<svg width="19" height="16" viewBox="0 0 19 16" fill="currentColor" xmlns="http://www.w3.org/2000/svg">
<path d="M0.289062 4.79688V3.10156C0.289062 2.29427 0.492188 1.6901 0.898438 1.28906C1.3099 0.882812 1.92448 0.679688 2.74219 0.679688H4.375V1.9375H2.75781C2.36719 1.9375 2.06771 2.04167 1.85938 2.25C1.65104 2.45312 1.54688 2.75781 1.54688 3.16406V4.79688H0.289062ZM0.289062 9.875V5.86719H1.54688V9.875H0.289062ZM2.74219 15.0625C1.92448 15.0625 1.3099 14.8594 0.898438 14.4531C0.492188 14.0521 0.289062 13.4479 0.289062 12.6406V10.9453H1.54688V12.5781C1.54688 12.9844 1.65104 13.2917 1.85938 13.5C2.06771 13.7031 2.36719 13.8047 2.75781 13.8047H4.375V15.0625H2.74219ZM5.44531 15.0625V13.8047H8.96875V15.0625H5.44531ZM10.0312 15.0625V13.8047H13.5547V15.0625H10.0312ZM16.2578 15.0625H14.625V13.8047H16.2422C16.6328 13.8047 16.9323 13.7031 17.1406 13.5C17.349 13.2917 17.4531 12.9844 17.4531 12.5781V10.9453H18.7109V12.6406C18.7109 13.4479 18.5052 14.0521 18.0938 14.4531C17.6875 14.8594 17.0755 15.0625 16.2578 15.0625ZM18.7109 4.79688H17.4531V3.16406C17.4531 2.75781 17.349 2.45312 17.1406 2.25C16.9323 2.04167 16.6328 1.9375 16.2422 1.9375H14.625V0.679688H16.2578C17.0755 0.679688 17.6875 0.882812 18.0938 1.28906C18.5052 1.6901 18.7109 2.29427 18.7109 3.10156V4.79688ZM18.7109 9.875H17.4531V5.86719H18.7109V9.875ZM5.44531 1.9375V0.679688H8.96875V1.9375H5.44531ZM10.0312 1.9375V0.679688H13.5547V1.9375H10.0312Z" fill="currentColor"/>
</svg>
