<svg width="28" height="21" viewBox="0 0 28 21" fill="currentColor" xmlns="http://www.w3.org/2000/svg">
<path d="M11.1777 14.4121C11.041 13.8262 10.8229 13.276 10.5234 12.7617C10.2305 12.2474 9.87565 11.7852 9.45898 11.375V6.49219C9.45898 6.14062 9.53385 5.88672 9.68359 5.73047C9.83984 5.57422 10.0905 5.49609 10.4355 5.49609H21.1289C21.4674 5.49609 21.7116 5.57422 21.8613 5.73047C22.0176 5.88672 22.0957 6.14062 22.0957 6.49219V13.4258C22.0957 13.7773 22.0176 14.0312 21.8613 14.1875C21.7116 14.3372 21.4674 14.4121 21.1289 14.4121H11.1777ZM10.5039 18.9531C10.6471 18.7122 10.7708 18.4583 10.875 18.1914C10.9792 17.931 11.0671 17.6608 11.1387 17.3809H24.2051C24.6868 17.3809 25.0612 17.2539 25.3281 17C25.5951 16.7396 25.7285 16.3555 25.7285 15.8477V4.08008C25.7285 3.57227 25.5951 3.19141 25.3281 2.9375C25.0612 2.67708 24.6868 2.54688 24.2051 2.54688H7.35938C6.87109 2.54688 6.49349 2.67708 6.22656 2.9375C5.96615 3.19141 5.83594 3.57227 5.83594 4.08008V9.57812C5.70573 9.5651 5.57552 9.55534 5.44531 9.54883C5.3151 9.53581 5.18164 9.5293 5.04492 9.5293C4.92122 9.5293 4.79102 9.53255 4.6543 9.53906C4.52409 9.54557 4.39388 9.55859 4.26367 9.57812V4.00195C4.26367 2.99284 4.52083 2.23763 5.03516 1.73633C5.54948 1.22852 6.31445 0.974609 7.33008 0.974609H24.2344C25.2565 0.974609 26.0215 1.22852 26.5293 1.73633C27.0436 2.23763 27.3008 2.99284 27.3008 4.00195V15.9258C27.3008 16.9349 27.0436 17.6901 26.5293 18.1914C26.0215 18.6992 25.2565 18.9531 24.2344 18.9531H10.5039ZM5.04492 20.7988C4.36784 20.7988 3.72982 20.6686 3.13086 20.4082C2.5319 20.1543 2.00456 19.7995 1.54883 19.3438C1.0931 18.888 0.735026 18.3607 0.474609 17.7617C0.214193 17.1628 0.0839844 16.5215 0.0839844 15.8379C0.0839844 15.1608 0.214193 14.5228 0.474609 13.9238C0.735026 13.3249 1.0931 12.7975 1.54883 12.3418C2.00456 11.8861 2.5319 11.528 3.13086 11.2676C3.72982 11.0072 4.36784 10.877 5.04492 10.877C5.72852 10.877 6.36979 11.0072 6.96875 11.2676C7.56771 11.528 8.09505 11.8861 8.55078 12.3418C9.00651 12.7975 9.36458 13.3249 9.625 13.9238C9.88542 14.5228 10.0156 15.1608 10.0156 15.8379C10.0156 16.515 9.88216 17.153 9.61523 17.752C9.35482 18.3509 8.99349 18.8783 8.53125 19.334C8.07552 19.7962 7.54818 20.1543 6.94922 20.4082C6.35677 20.6686 5.72201 20.7988 5.04492 20.7988ZM5.04492 18.9434C5.22721 18.9434 5.3737 18.888 5.48438 18.7773C5.59505 18.6732 5.65039 18.5299 5.65039 18.3477V16.4336H7.55469C7.73698 16.4336 7.88021 16.3815 7.98438 16.2773C8.09505 16.1667 8.15039 16.0202 8.15039 15.8379C8.15039 15.6556 8.09505 15.5124 7.98438 15.4082C7.88021 15.2975 7.73698 15.2422 7.55469 15.2422H5.65039V13.3379C5.65039 13.1556 5.59505 13.0091 5.48438 12.8984C5.3737 12.7878 5.22721 12.7324 5.04492 12.7324C4.86914 12.7324 4.72591 12.7878 4.61523 12.8984C4.50456 13.0091 4.44922 13.1556 4.44922 13.3379V15.2422H2.54492C2.36263 15.2422 2.21615 15.2975 2.10547 15.4082C1.99479 15.5124 1.93945 15.6556 1.93945 15.8379C1.93945 16.0202 1.99479 16.1667 2.10547 16.2773C2.21615 16.3815 2.36263 16.4336 2.54492 16.4336H4.44922V18.3477C4.44922 18.5299 4.50456 18.6732 4.61523 18.7773C4.72591 18.888 4.86914 18.9434 5.04492 18.9434Z" fill="currentColor"/>
</svg>
