<svg width="29" height="21" viewBox="0 0 29 21" fill="currentColor" xmlns="http://www.w3.org/2000/svg">
<path d="M11.2168 18.9531C11.36 18.7122 11.4837 18.4583 11.5879 18.1914C11.6921 17.931 11.7767 17.6608 11.8418 17.3809H24.918C25.3997 17.3809 25.7708 17.2539 26.0312 17C26.2982 16.7396 26.4316 16.3555 26.4316 15.8477V4.08008C26.4316 3.57227 26.2982 3.19141 26.0312 2.9375C25.7708 2.67708 25.3997 2.54688 24.918 2.54688H8.0625C7.57422 2.54688 7.19987 2.67708 6.93945 2.9375C6.67904 3.19141 6.54883 3.57227 6.54883 4.08008V9.57812C6.41862 9.5651 6.28516 9.55534 6.14844 9.54883C6.01823 9.53581 5.88802 9.5293 5.75781 9.5293C5.6276 9.5293 5.4974 9.53255 5.36719 9.53906C5.23698 9.54557 5.10677 9.55859 4.97656 9.57812V4.00195C4.97656 2.99284 5.23047 2.23763 5.73828 1.73633C6.2526 1.22852 7.02083 0.974609 8.04297 0.974609H24.9375C25.9661 0.974609 26.7344 1.22852 27.2422 1.73633C27.75 2.23763 28.0039 2.99284 28.0039 4.00195V15.9258C28.0039 16.9349 27.75 17.6901 27.2422 18.1914C26.7344 18.6992 25.9661 18.9531 24.9375 18.9531H11.2168ZM5.76758 20.7988C5.09049 20.7988 4.45247 20.6686 3.85352 20.4082C3.25456 20.1543 2.72721 19.7995 2.27148 19.3438C1.81576 18.888 1.45768 18.3607 1.19727 17.7617C0.936849 17.1628 0.806641 16.5215 0.806641 15.8379C0.806641 15.1543 0.936849 14.5163 1.19727 13.9238C1.45768 13.3249 1.81576 12.7975 2.27148 12.3418C2.72721 11.8796 3.25456 11.5215 3.85352 11.2676C4.45247 11.0072 5.09049 10.877 5.76758 10.877C6.45117 10.877 7.09245 11.0072 7.69141 11.2676C8.29036 11.5215 8.81771 11.8763 9.27344 12.332C9.72917 12.7878 10.084 13.3151 10.3379 13.9141C10.5983 14.513 10.7285 15.1543 10.7285 15.8379C10.7285 16.515 10.5983 17.153 10.3379 17.752C10.0775 18.3509 9.71615 18.8783 9.25391 19.334C8.79818 19.7897 8.27083 20.1478 7.67188 20.4082C7.07292 20.6686 6.43815 20.7988 5.76758 20.7988ZM5.76758 18.9434C5.94987 18.9434 6.0931 18.888 6.19727 18.7773C6.30794 18.6667 6.36328 18.5234 6.36328 18.3477V16.4336H8.27734C8.45312 16.4336 8.59635 16.3815 8.70703 16.2773C8.81771 16.1667 8.87305 16.0202 8.87305 15.8379C8.87305 15.6556 8.81771 15.5124 8.70703 15.4082C8.59635 15.2975 8.45312 15.2422 8.27734 15.2422H6.36328V13.3281C6.36328 13.1523 6.30794 13.0091 6.19727 12.8984C6.0931 12.7878 5.94987 12.7324 5.76758 12.7324C5.58529 12.7324 5.4388 12.7878 5.32812 12.8984C5.22396 13.0091 5.17188 13.1523 5.17188 13.3281V15.2422H3.25781C3.08203 15.2422 2.9388 15.2975 2.82812 15.4082C2.71745 15.5124 2.66211 15.6556 2.66211 15.8379C2.66211 16.0202 2.71745 16.1667 2.82812 16.2773C2.9388 16.3815 3.08203 16.4336 3.25781 16.4336H5.17188V18.3477C5.17188 18.5234 5.22396 18.6667 5.32812 18.7773C5.4388 18.888 5.58529 18.9434 5.76758 18.9434Z" fill="currentColor"/>
</svg>
