<svg width="22" height="23" viewBox="0 0 22 23" fill="currentColor" xmlns="http://www.w3.org/2000/svg">
<path d="M2.11133 21.0674C0.643555 19.5996 0.634766 17.5166 2.30469 16.0312C4.08887 14.4316 7.42871 12.6738 9.85449 10.2568C11.7793 8.33203 9.55566 5.3877 12.4824 2.60156C14.4863 0.703125 17.8438 0.729492 19.874 2.8125C20.2344 3.18164 20.5244 3.60352 20.6299 3.91113L17.334 4.79004C16.5518 5.00098 16.2793 5.56348 16.4639 6.24023L17.958 11.6895C16.2793 12.375 14.6094 11.5752 13.0977 13.0869C10.8301 15.3545 8.18457 19.6172 7.13867 20.874C5.71484 22.5703 3.56152 22.5176 2.11133 21.0674ZM12.8604 7.91895L14.8994 7.38281C15.084 7.33008 15.1982 7.1543 15.1367 6.95215C15.0928 6.76758 14.8994 6.66211 14.7324 6.70605L12.6758 7.25977C12.4912 7.3125 12.3857 7.50586 12.4385 7.66406C12.5 7.875 12.667 7.97168 12.8604 7.91895ZM18.9248 11.2676L17.9404 7.65527C18.2129 7.69922 18.4678 7.68164 18.7666 7.60254L21.4297 6.87305C21.6582 7.94531 21.0869 9.45703 19.9795 10.459C19.6191 10.8018 19.2676 11.0654 18.9248 11.2676ZM13.124 8.96484L15.1543 8.42871C15.3389 8.37598 15.4619 8.2002 15.4004 7.99805C15.3477 7.81348 15.1543 7.7168 14.9873 7.75195L12.9395 8.31445C12.7549 8.3584 12.6406 8.55176 12.6934 8.70996C12.7637 8.9209 12.9307 9.01758 13.124 8.96484ZM13.3789 10.0107L15.4355 9.45703C15.6025 9.41309 15.708 9.21973 15.6641 9.04395C15.6289 8.86816 15.4443 8.75391 15.251 8.81543L13.2119 9.36035C13.0186 9.41309 12.9219 9.58008 12.9658 9.75586C13.001 9.9668 13.1943 10.0635 13.3789 10.0107ZM4.59863 19.6611C5.19629 19.6611 5.67969 19.1777 5.67969 18.5801C5.67969 17.9824 5.19629 17.4902 4.59863 17.4902C4.00098 17.4902 3.50879 17.9824 3.50879 18.5801C3.50879 19.1777 4.00098 19.6611 4.59863 19.6611Z" fill="currentColor"/>
</svg>
