<svg width="21" height="21" viewBox="0 0 21 21" fill="currentColor" xmlns="http://www.w3.org/2000/svg">
<path fill-rule="evenodd" clip-rule="evenodd" d="M1 0C0.447715 0 0 0.447715 0 1V4H21V1C21 0.447715 20.5523 0 20 0H1ZM12.2 1C12.0895 1 12 1.08954 12 1.2V2.8C12 2.91046 12.0895 3 12.2 3H18.8C18.9105 3 19 2.91046 19 2.8V1.2C19 1.08954 18.9105 1 18.8 1H12.2ZM9 2C9 1.44772 9.44771 1 10 1C10.5523 1 11 1.44772 11 2C11 2.55228 10.5523 3 10 3C9.44771 3 9 2.55228 9 2Z" fill="currentColor"/>
<path fill-rule="evenodd" clip-rule="evenodd" d="M0 20V5H21V20C21 20.5523 20.5523 21 20 21H1C0.447715 21 0 20.5523 0 20ZM14.8007 16.249C15.5484 15.3751 16 14.2403 16 13C16 10.2386 13.7614 8 11 8C9.07433 8 7.40291 9.08861 6.56758 10.684C8.70768 10.8474 11.4612 11.9482 13.9 15.2C14.2213 15.6284 14.5216 15.9737 14.8007 16.249ZM14.0779 16.9406C13.2293 17.6044 12.1609 18 11 18C8.23858 18 6 15.7614 6 13C6 12.5375 6.06278 12.0898 6.18029 11.6647C8.06711 11.7203 10.7094 12.6125 13.1 15.8C13.4331 16.2441 13.7588 16.6234 14.0779 16.9406Z" fill="currentColor"/>
</svg>
