<svg width="13" height="13" viewBox="0 0 13 13" fill="currentColor" xmlns="http://www.w3.org/2000/svg">
<path d="M2.51709 12.6953C1.8016 12.6953 1.26383 12.5176 0.903809 12.1621C0.54834 11.8112 0.370605 11.2826 0.370605 10.5762V2.22949C0.370605 1.52311 0.54834 0.994466 0.903809 0.643555C1.26383 0.288086 1.8016 0.110352 2.51709 0.110352H10.8091C11.5246 0.110352 12.0601 0.288086 12.4155 0.643555C12.7756 0.994466 12.9556 1.52311 12.9556 2.22949V10.5762C12.9556 11.2826 12.7756 11.8112 12.4155 12.1621C12.0601 12.5176 11.5246 12.6953 10.8091 12.6953H2.51709ZM2.53076 11.5947H10.7954C11.1326 11.5947 11.3924 11.5059 11.5747 11.3281C11.7616 11.1458 11.855 10.877 11.855 10.5215V2.28418C11.855 1.92871 11.7616 1.66211 11.5747 1.48438C11.3924 1.30208 11.1326 1.21094 10.7954 1.21094H2.53076C2.18896 1.21094 1.92692 1.30208 1.74463 1.48438C1.56234 1.66211 1.47119 1.92871 1.47119 2.28418V10.5215C1.47119 10.877 1.56234 11.1458 1.74463 11.3281C1.92692 11.5059 2.18896 11.5947 2.53076 11.5947ZM8.81299 8.08105C8.6626 8.08105 8.53955 8.0332 8.44385 7.9375C8.3527 7.8418 8.30713 7.71191 8.30713 7.54785V6.36523L8.40967 5.30566L7.43213 6.35156L4.90967 8.87402C4.80485 8.97884 4.67497 9.03125 4.52002 9.03125C4.36963 9.03125 4.24886 8.98568 4.15771 8.89453C4.06657 8.79883 4.021 8.6735 4.021 8.51855C4.021 8.38639 4.07568 8.26562 4.18506 8.15625L6.70752 5.63379L7.76709 4.64258L6.75537 4.75195H5.51123C5.34717 4.75195 5.21501 4.70638 5.11475 4.61523C5.01904 4.52409 4.97119 4.40104 4.97119 4.24609C4.97119 4.0957 5.01904 3.97493 5.11475 3.88379C5.21045 3.79264 5.33805 3.74707 5.49756 3.74707H8.74463C8.91781 3.74707 9.05452 3.79036 9.15479 3.87695C9.2596 3.96354 9.31201 4.10938 9.31201 4.31445V7.53418C9.31201 7.69368 9.26644 7.82585 9.17529 7.93066C9.08415 8.03092 8.96338 8.08105 8.81299 8.08105Z" fill="currentColor"/>
</svg>
