<svg width="20" height="22" viewBox="0 0 20 22" fill="currentColor" xmlns="http://www.w3.org/2000/svg">
<path d="M7.43164 18.9902C7.62044 18.9902 7.77344 18.9349 7.89062 18.8242C8.00781 18.7135 8.06315 18.5703 8.05664 18.3945L7.74414 7.63281C7.74414 7.45052 7.68555 7.30729 7.56836 7.20312C7.45117 7.09896 7.30143 7.04688 7.11914 7.04688C6.92383 7.04688 6.76758 7.10221 6.65039 7.21289C6.53971 7.31706 6.48763 7.46029 6.49414 7.64258L6.78711 18.3945C6.80013 18.5768 6.86198 18.7233 6.97266 18.834C7.08984 18.9382 7.24284 18.9902 7.43164 18.9902ZM10.4102 18.9902C10.6055 18.9902 10.7617 18.9382 10.8789 18.834C11.0026 18.7233 11.0645 18.5768 11.0645 18.3945V7.64258C11.0645 7.46029 11.0026 7.31706 10.8789 7.21289C10.7617 7.10221 10.6055 7.04688 10.4102 7.04688C10.2214 7.04688 10.0651 7.10221 9.94141 7.21289C9.82422 7.31706 9.76562 7.46029 9.76562 7.64258V18.3945C9.76562 18.5768 9.82422 18.7233 9.94141 18.834C10.0651 18.9382 10.2214 18.9902 10.4102 18.9902ZM13.3984 18.9902C13.5872 18.9902 13.737 18.9382 13.8477 18.834C13.9648 18.7298 14.0267 18.5833 14.0332 18.3945L14.3262 7.64258C14.3327 7.46029 14.2773 7.31706 14.1602 7.21289C14.0495 7.10221 13.8965 7.04688 13.7012 7.04688C13.5254 7.04688 13.3789 7.09896 13.2617 7.20312C13.1445 7.30729 13.0827 7.45378 13.0762 7.64258L12.7734 18.3945C12.7669 18.5768 12.819 18.7233 12.9297 18.834C13.0469 18.9382 13.2031 18.9902 13.3984 18.9902ZM6.12305 4.67383V2.48633C6.12305 1.7832 6.33789 1.22982 6.76758 0.826172C7.20378 0.416016 7.79622 0.210938 8.54492 0.210938H12.2559C13.0046 0.210938 13.5938 0.416016 14.0234 0.826172C14.4596 1.22982 14.6777 1.7832 14.6777 2.48633V4.67383H13.125V2.58398C13.125 2.31055 13.0339 2.08919 12.8516 1.91992C12.6758 1.75065 12.4414 1.66602 12.1484 1.66602H8.65234C8.35938 1.66602 8.12174 1.75065 7.93945 1.91992C7.76367 2.08919 7.67578 2.31055 7.67578 2.58398V4.67383H6.12305ZM1.68945 5.45508C1.49414 5.45508 1.32161 5.38346 1.17188 5.24023C1.02865 5.09049 0.957031 4.91471 0.957031 4.71289C0.957031 4.51758 1.02865 4.34831 1.17188 4.20508C1.32161 4.05534 1.49414 3.98047 1.68945 3.98047H19.1406C19.3359 3.98047 19.5052 4.05208 19.6484 4.19531C19.7917 4.33854 19.8633 4.51107 19.8633 4.71289C19.8633 4.91471 19.7917 5.09049 19.6484 5.24023C19.5117 5.38346 19.3424 5.45508 19.1406 5.45508H1.68945ZM5.9375 21.959C5.23438 21.959 4.66471 21.7507 4.22852 21.334C3.79883 20.9238 3.56771 20.3672 3.53516 19.6641L2.8418 5.25H17.9785L17.2949 19.6543C17.2624 20.3574 17.028 20.9173 16.5918 21.334C16.1556 21.7507 15.5892 21.959 14.8926 21.959H5.9375Z" fill="currentColor"/>
</svg>
