<svg width="19" height="19" viewBox="0 0 19 19" fill="currentColor" xmlns="http://www.w3.org/2000/svg">
<path d="M5.22266 10.623C5.22266 10.4928 5.27799 10.3626 5.38867 10.2324L10.7402 3.51367C10.877 3.3444 11.0267 3.26302 11.1895 3.26953C11.3522 3.27604 11.4759 3.3444 11.5605 3.47461C11.6517 3.60482 11.6582 3.77409 11.5801 3.98242L9.82227 8.72852H13.123C13.2467 8.72852 13.3509 8.76758 13.4355 8.8457C13.5267 8.92383 13.5723 9.02474 13.5723 9.14844C13.5723 9.27865 13.5202 9.4056 13.416 9.5293L8.05469 16.248C7.91797 16.4173 7.76823 16.502 7.60547 16.502C7.44922 16.4954 7.32552 16.4271 7.23438 16.2969C7.14323 16.1667 7.13672 15.9974 7.21484 15.7891L8.98242 11.043H5.67188C5.54818 11.043 5.44076 11.0039 5.34961 10.9258C5.26497 10.8477 5.22266 10.7467 5.22266 10.623ZM3.57227 18.9531C2.55013 18.9531 1.7819 18.6992 1.26758 18.1914C0.759766 17.6901 0.505859 16.9349 0.505859 15.9258V4.00195C0.505859 2.99284 0.759766 2.23763 1.26758 1.73633C1.7819 1.22852 2.55013 0.974609 3.57227 0.974609H15.418C16.4401 0.974609 17.2051 1.22852 17.7129 1.73633C18.2272 2.23763 18.4844 2.99284 18.4844 4.00195V15.9258C18.4844 16.9349 18.2272 17.6901 17.7129 18.1914C17.2051 18.6992 16.4401 18.9531 15.418 18.9531H3.57227ZM3.5918 17.3809H15.3984C15.8802 17.3809 16.2513 17.2539 16.5117 17C16.7786 16.7396 16.9121 16.3555 16.9121 15.8477V4.08008C16.9121 3.57227 16.7786 3.19141 16.5117 2.9375C16.2513 2.67708 15.8802 2.54688 15.3984 2.54688H3.5918C3.10352 2.54688 2.72917 2.67708 2.46875 2.9375C2.20833 3.19141 2.07812 3.57227 2.07812 4.08008V15.8477C2.07812 16.3555 2.20833 16.7396 2.46875 17C2.72917 17.2539 3.10352 17.3809 3.5918 17.3809Z" fill="currentColor"/>
</svg>
