<svg width="19" height="19" viewBox="0 0 19 19" fill="currentColor" xmlns="http://www.w3.org/2000/svg">
<path d="M3.73877 18.2812C2.71663 18.2812 1.9484 18.0273 1.43408 17.5195C0.92627 17.0182 0.672363 16.263 0.672363 15.2539V3.33008C0.672363 2.32096 0.92627 1.56576 1.43408 1.06445C1.9484 0.556641 2.71663 0.302734 3.73877 0.302734H15.5845C16.6066 0.302734 17.3716 0.556641 17.8794 1.06445C18.3937 1.56576 18.6509 2.32096 18.6509 3.33008V15.2539C18.6509 16.263 18.3937 17.0182 17.8794 17.5195C17.3716 18.0273 16.6066 18.2812 15.5845 18.2812H3.73877ZM3.7583 16.709H15.5649C16.0467 16.709 16.4178 16.582 16.6782 16.3281C16.9451 16.0677 17.0786 15.6836 17.0786 15.1758V3.4082C17.0786 2.90039 16.9451 2.51953 16.6782 2.26562C16.4178 2.00521 16.0467 1.875 15.5649 1.875H3.7583C3.27002 1.875 2.89567 2.00521 2.63525 2.26562C2.37484 2.51953 2.24463 2.90039 2.24463 3.4082V15.1758C2.24463 15.6836 2.37484 16.0677 2.63525 16.3281C2.89567 16.582 3.27002 16.709 3.7583 16.709ZM8.60205 13.9062C8.43929 13.9062 8.28955 13.8704 8.15283 13.7988C8.02262 13.7272 7.89567 13.6133 7.77197 13.457L5.38916 10.5273C5.23942 10.3255 5.16455 10.1237 5.16455 9.92188C5.16455 9.70703 5.23617 9.52474 5.37939 9.375C5.52913 9.21875 5.70817 9.14062 5.9165 9.14062C6.05322 9.14062 6.17692 9.16992 6.2876 9.22852C6.40479 9.2806 6.52197 9.38477 6.63916 9.54102L8.56299 12.0312L12.6157 5.52734C12.798 5.23438 13.0259 5.08789 13.2993 5.08789C13.5011 5.08789 13.6834 5.15299 13.8462 5.2832C14.009 5.41341 14.0903 5.58594 14.0903 5.80078C14.0903 5.91146 14.0643 6.02214 14.0122 6.13281C13.9666 6.23698 13.9146 6.33464 13.856 6.42578L9.39307 13.457C9.19775 13.7565 8.93408 13.9062 8.60205 13.9062Z" fill="currentColor"/>
</svg>
