<svg width="24" height="22" viewBox="0 0 24 22" fill="currentColor" xmlns="http://www.w3.org/2000/svg">
<path d="M16.248 21.3691C16.4043 21.1087 16.5215 20.8288 16.5996 20.5293C16.6842 20.2363 16.7266 19.9238 16.7266 19.5918V5.35352H21.8828C22.3776 5.35352 22.7682 5.51628 23.0547 5.8418C23.3477 6.16081 23.4941 6.59049 23.4941 7.13086V19.5918C23.4941 20.1322 23.3477 20.5618 23.0547 20.8809C22.7682 21.2064 22.3776 21.3691 21.8828 21.3691H16.248ZM18.9434 10.2949C18.9434 10.5293 19.0573 10.6465 19.2852 10.6465H20.9062C21.1341 10.6465 21.248 10.5293 21.248 10.2949V8.73242C21.248 8.50456 21.1341 8.39062 20.9062 8.39062H19.2852C19.0573 8.39062 18.9434 8.50456 18.9434 8.73242V10.2949ZM18.9434 14.1426C18.9434 14.3704 19.0573 14.4844 19.2852 14.4844H20.9062C21.1341 14.4844 21.248 14.3704 21.248 14.1426V12.5801C21.248 12.3522 21.1341 12.2383 20.9062 12.2383H19.2852C19.0573 12.2383 18.9434 12.3522 18.9434 12.5801V14.1426ZM18.9434 17.9902C18.9434 18.2181 19.0573 18.332 19.2852 18.332H20.9062C21.1341 18.332 21.248 18.2181 21.248 17.9902V16.4277C21.248 16.1934 21.1341 16.0762 20.9062 16.0762H19.2852C19.0573 16.0762 18.9434 16.1934 18.9434 16.4277V17.9902ZM0.505859 19.5918V2.32617C0.505859 1.7793 0.649089 1.34635 0.935547 1.02734C1.22852 0.708333 1.62565 0.548828 2.12695 0.548828H13.7676C14.2689 0.548828 14.6628 0.708333 14.9492 1.02734C15.2422 1.34635 15.3887 1.7793 15.3887 2.32617V19.5918C15.3887 20.1322 15.2422 20.5618 14.9492 20.8809C14.6628 21.2064 14.2689 21.3691 13.7676 21.3691H2.12695C1.62565 21.3691 1.22852 21.2064 0.935547 20.8809C0.649089 20.5618 0.505859 20.1322 0.505859 19.5918ZM4.56836 19.7969H11.4141V16.623C11.4141 16.3952 11.3457 16.2161 11.209 16.0859C11.0788 15.9492 10.8997 15.8809 10.6719 15.8809H5.31055C5.08919 15.8809 4.91016 15.9492 4.77344 16.0859C4.63672 16.2161 4.56836 16.3952 4.56836 16.623V19.7969ZM4.24609 5.79297C4.24609 6.07292 4.37956 6.21289 4.64648 6.21289H6.59961C6.87956 6.21289 7.01953 6.07292 7.01953 5.79297V3.89844C7.01953 3.61849 6.87956 3.47852 6.59961 3.47852H4.64648C4.37956 3.47852 4.24609 3.61849 4.24609 3.89844V5.79297ZM8.96289 5.79297C8.96289 6.07292 9.09961 6.21289 9.37305 6.21289H11.3164C11.5964 6.21289 11.7363 6.07292 11.7363 5.79297V3.89844C11.7363 3.61849 11.5964 3.47852 11.3164 3.47852H9.37305C9.09961 3.47852 8.96289 3.61849 8.96289 3.89844V5.79297ZM4.24609 9.77734C4.24609 10.0573 4.37956 10.1973 4.64648 10.1973H6.59961C6.87956 10.1973 7.01953 10.0573 7.01953 9.77734V7.88281C7.01953 7.60286 6.87956 7.46289 6.59961 7.46289H4.64648C4.37956 7.46289 4.24609 7.60286 4.24609 7.88281V9.77734ZM8.96289 9.77734C8.96289 10.0573 9.09961 10.1973 9.37305 10.1973H11.3164C11.5964 10.1973 11.7363 10.0573 11.7363 9.77734V7.88281C11.7363 7.60286 11.5964 7.46289 11.3164 7.46289H9.37305C9.09961 7.46289 8.96289 7.60286 8.96289 7.88281V9.77734ZM4.24609 13.7617C4.24609 14.0417 4.37956 14.1816 4.64648 14.1816H6.59961C6.87956 14.1816 7.01953 14.0417 7.01953 13.7617V11.8672C7.01953 11.5872 6.87956 11.4473 6.59961 11.4473H4.64648C4.37956 11.4473 4.24609 11.5872 4.24609 11.8672V13.7617ZM8.96289 13.7617C8.96289 14.0417 9.09961 14.1816 9.37305 14.1816H11.3164C11.5964 14.1816 11.7363 14.0417 11.7363 13.7617V11.8672C11.7363 11.5872 11.5964 11.4473 11.3164 11.4473H9.37305C9.09961 11.4473 8.96289 11.5872 8.96289 11.8672V13.7617Z" fill="currentColor"/>
</svg>
