<svg width="12" height="21" viewBox="0 0 12 21" fill="currentColor" xmlns="http://www.w3.org/2000/svg">
<path d="M0.241211 5.57422C0.241211 2.54199 2.83398 0.160156 6.12109 0.160156C9.4082 0.160156 12.001 2.54199 12.001 5.57422C12.001 8.94922 9.78613 9.78418 9.42578 15.6465C9.39941 15.9629 9.21484 16.165 8.87207 16.165H3.37012C3.03613 16.165 2.84277 15.9629 2.8252 15.6465C2.46484 9.78418 0.241211 8.94922 0.241211 5.57422ZM3.34375 18.0635C3.05371 18.0635 2.8252 17.835 2.8252 17.5449C2.8252 17.2637 3.05371 17.0352 3.34375 17.0352H8.90723C9.19727 17.0352 9.41699 17.2637 9.41699 17.5449C9.41699 17.835 9.19727 18.0635 8.90723 18.0635H3.34375ZM6.12109 20.6123C4.75 20.6123 3.60742 19.9443 3.5459 18.9336H8.70508C8.61719 19.9443 7.4834 20.6123 6.12109 20.6123Z" fill="currentColor"/>
</svg>
