<svg width="17" height="21" viewBox="0 0 17 21" fill="currentColor" xmlns="http://www.w3.org/2000/svg">
<path d="M3.06211 0C1.63866 0 0.5 0.963215 0.5 2.16734V16.9058C0.5 17.9413 1.38249 18.8083 2.5214 19.0251V20.2775C2.5214 20.6869 2.89156 21 3.37552 21C3.85949 21 4.22965 20.6869 4.22965 20.2775V19.0734H12.7704V20.2775C12.7704 20.6869 13.1405 21 13.6245 21C14.1084 21 14.4786 20.6869 14.4786 20.2775V19.0251C15.6459 18.8084 16.5 17.9415 16.5 16.9058L16.4996 2.16734C16.4996 0.963215 15.3609 0 13.9375 0H3.06211ZM2.20804 6.30962H14.7914V9.68109L2.20804 9.68125V6.30962ZM3.06216 1.44495H13.9373C14.4213 1.44495 14.7915 1.75808 14.7915 2.16747V4.86467H2.20814V2.1673C2.20814 1.75792 2.5783 1.44495 3.06226 1.44495H3.06216ZM3.06216 17.6284C2.57821 17.6284 2.20804 17.3153 2.20804 16.9059V11.1261H14.7914V16.9059C14.7916 17.3153 14.4214 17.6284 13.9374 17.6284H3.06216Z" fill="currentColor"/>
<path d="M9.35377 7.22475H7.64553C7.16158 7.22475 6.79141 7.53788 6.79141 7.94727C6.79141 8.35667 7.16157 8.66979 7.64553 8.66979H9.35377C9.83772 8.66979 10.2079 8.35667 10.2079 7.94727C10.2079 7.53788 9.83774 7.22475 9.35377 7.22475Z" fill="currentColor"/>
<path d="M7.64562 3.87728H9.35387C9.83782 3.87728 10.208 3.56416 10.208 3.15477C10.208 2.74537 9.83783 2.43225 9.35387 2.43225H7.64562C7.16168 2.43225 6.7915 2.74537 6.7915 3.15477C6.7915 3.56416 7.16166 3.87728 7.64562 3.87728Z" fill="currentColor"/>
<path d="M9.35377 12.2821H7.64553C7.16158 12.2821 6.79141 12.5952 6.79141 13.0046C6.79141 13.414 7.16157 13.7271 7.64553 13.7271H9.35377C9.83772 13.7271 10.2079 13.414 10.2079 13.0046C10.2079 12.5951 9.83774 12.2821 9.35377 12.2821Z" fill="currentColor"/>
</svg>
