<svg width="15" height="21" viewBox="0 0 15 21" fill="currentColor" xmlns="http://www.w3.org/2000/svg">
<path d="M12.0002 0.78418H3.00004C2.20435 0.78418 1.44126 1.10026 0.878755 1.66276C0.316076 2.22544 0 2.98853 0 3.78422V17.7841C0 18.5798 0.316076 19.3429 0.878755 19.9056C1.44126 20.4681 2.20435 20.7842 3.00004 20.7842H12.0002C12.7959 20.7842 13.5589 20.4681 14.1215 19.9056C14.6841 19.3429 15.0002 18.5798 15.0002 17.7841V3.78422C15.0002 2.98853 14.6841 2.22544 14.1215 1.66276C13.5589 1.10026 12.7959 0.78418 12.0002 0.78418ZM3.00004 2.2842H12.0002C12.3979 2.2842 12.7795 2.44224 13.0609 2.72349C13.3422 3.00475 13.5002 3.38629 13.5002 3.78422V5.78431L1.50002 5.78414V3.78423C1.50002 3.38628 1.65806 3.00473 1.93931 2.7235C2.22073 2.44224 2.60228 2.2842 3.00004 2.2842ZM12.0002 19.2842H3.00004C2.60227 19.2842 2.22072 19.1261 1.93931 18.8449C1.65806 18.5636 1.50002 18.1821 1.50002 17.7841V7.28399H13.5002V17.7841C13.5002 18.1821 13.3422 18.5636 13.0609 18.8449C12.7795 19.1261 12.3979 19.2842 12.0002 19.2842Z" fill="currentColor"/>
<path d="M3.50019 8.78409H4.50015C4.77621 8.78409 5.00021 9.06016 5.00021 9.28416V10.2841C5.00021 10.5602 4.77638 10.7842 4.50015 10.7842H3.50019C3.22413 10.7842 3.00013 10.5081 3.00013 10.2841V9.28416C3.00013 9.00809 3.22396 8.78409 3.50019 8.78409Z" fill="currentColor"/>
<path d="M6.99996 8.78409H7.99992C8.27598 8.78409 8.49998 9.06016 8.49998 9.28416V10.2841C8.49998 10.5602 8.27615 10.7842 7.99992 10.7842H6.99996C6.72389 10.7842 6.49989 10.5081 6.49989 10.2841V9.28416C6.49989 9.00809 6.72373 8.78409 6.99996 8.78409Z" fill="currentColor"/>
<path d="M10.5001 8.78409H11.5001C11.7762 8.78409 12.0002 9.06016 12.0002 9.28416V10.2841C12.0002 10.5602 11.7763 10.7842 11.5001 10.7842H10.5001C10.2241 10.7842 10.0001 10.5081 10.0001 10.2841V9.28416C10.0001 9.00809 10.2239 8.78409 10.5001 8.78409Z" fill="currentColor"/>
<path d="M3.50019 12.2843H4.50015C4.77621 12.2843 5.00021 12.5604 5.00021 12.7844V13.7843C5.00021 14.0604 4.77638 14.2844 4.50015 14.2844H3.50019C3.22413 14.2844 3.00013 14.0083 3.00013 13.7843V12.7844C3.00013 12.5083 3.22396 12.2843 3.50019 12.2843Z" fill="currentColor"/>
<path d="M6.99996 12.2843H7.99992C8.27598 12.2843 8.49998 12.5604 8.49998 12.7844V13.7843C8.49998 14.0604 8.27615 14.2844 7.99992 14.2844H6.99996C6.72389 14.2844 6.49989 14.0083 6.49989 13.7843V12.7844C6.49989 12.5083 6.72373 12.2843 6.99996 12.2843Z" fill="currentColor"/>
<path d="M3.50019 15.7845H4.50015C4.77621 15.7845 5.00021 16.0605 5.00021 16.2845V17.2845C5.00021 17.5606 4.77638 17.7846 4.50015 17.7846H3.50019C3.22413 17.7846 3.00013 17.5085 3.00013 17.2845V16.2845C3.00013 16.0085 3.22396 15.7845 3.50019 15.7845Z" fill="currentColor"/>
<path d="M6.99996 15.7845H7.99992C8.27598 15.7845 8.49998 16.0605 8.49998 16.2845V17.2845C8.49998 17.5606 8.27615 17.7846 7.99992 17.7846H6.99996C6.72389 17.7846 6.49989 17.5085 6.49989 17.2845V16.2845C6.49989 16.0085 6.72373 15.7845 6.99996 15.7845Z" fill="currentColor"/>
<path d="M10.5001 12.2843H11.5001C11.7762 12.2843 12.0002 12.5604 12.0002 12.7844V17.2844C12.0002 17.5605 11.7763 17.7845 11.5001 17.7845H10.5001C10.2241 17.7845 10.0001 17.5084 10.0001 17.2844V12.7844C10.0001 12.5083 10.2239 12.2843 10.5001 12.2843Z" fill="currentColor"/>
</svg>
