<svg width="19" height="17" viewBox="0 0 19 17" fill="currentColor" xmlns="http://www.w3.org/2000/svg">
<path d="M3.49707 16.2578C2.57715 16.2578 1.88574 16.0293 1.42285 15.5723C0.96582 15.1211 0.737305 14.4414 0.737305 13.5332V2.80176C0.737305 1.89355 0.96582 1.21387 1.42285 0.762695C1.88574 0.305664 2.57715 0.0771484 3.49707 0.0771484H15.5029C16.4229 0.0771484 17.1113 0.305664 17.5684 0.762695C18.0254 1.21387 18.2539 1.89355 18.2539 2.80176V13.5332C18.2539 14.4414 18.0254 15.1211 17.5684 15.5723C17.1113 16.0293 16.4229 16.2578 15.5029 16.2578H3.49707ZM3.36523 14.8428H15.6172C16.0098 14.8428 16.3115 14.7373 16.5225 14.5264C16.7334 14.3213 16.8389 14.0166 16.8389 13.6123V5.32422C16.8389 4.91992 16.7334 4.61523 16.5225 4.41016C16.3115 4.19922 16.0098 4.09375 15.6172 4.09375H3.36523C2.97852 4.09375 2.67969 4.19922 2.46875 4.41016C2.25781 4.61523 2.15234 4.91992 2.15234 5.32422V13.6123C2.15234 14.0166 2.25781 14.3213 2.46875 14.5264C2.67969 14.7373 2.97852 14.8428 3.36523 14.8428ZM7.78613 7.25781C7.63379 7.25781 7.52539 7.22852 7.46094 7.16992C7.40234 7.11133 7.37305 7.00586 7.37305 6.85352V6.33496C7.37305 6.18262 7.40234 6.08008 7.46094 6.02734C7.52539 5.96875 7.63379 5.93945 7.78613 5.93945H8.30469C8.45703 5.93945 8.5625 5.96875 8.62109 6.02734C8.68555 6.08008 8.71777 6.18262 8.71777 6.33496V6.85352C8.71777 7.00586 8.68555 7.11133 8.62109 7.16992C8.5625 7.22852 8.45703 7.25781 8.30469 7.25781H7.78613ZM10.7041 7.25781C10.5518 7.25781 10.4463 7.22852 10.3877 7.16992C10.3291 7.11133 10.2998 7.00586 10.2998 6.85352V6.33496C10.2998 6.18262 10.3291 6.08008 10.3877 6.02734C10.4463 5.96875 10.5518 5.93945 10.7041 5.93945H11.2227C11.3809 5.93945 11.4893 5.96875 11.5479 6.02734C11.6064 6.08008 11.6357 6.18262 11.6357 6.33496V6.85352C11.6357 7.00586 11.6064 7.11133 11.5479 7.16992C11.4893 7.22852 11.3809 7.25781 11.2227 7.25781H10.7041ZM13.6309 7.25781C13.4727 7.25781 13.3643 7.22852 13.3057 7.16992C13.2471 7.11133 13.2178 7.00586 13.2178 6.85352V6.33496C13.2178 6.18262 13.2471 6.08008 13.3057 6.02734C13.3643 5.96875 13.4727 5.93945 13.6309 5.93945H14.1406C14.2988 5.93945 14.4072 5.96875 14.4658 6.02734C14.5244 6.08008 14.5537 6.18262 14.5537 6.33496V6.85352C14.5537 7.00586 14.5244 7.11133 14.4658 7.16992C14.4072 7.22852 14.2988 7.25781 14.1406 7.25781H13.6309ZM4.86816 10.1318C4.70996 10.1318 4.60156 10.1025 4.54297 10.0439C4.48438 9.98535 4.45508 9.87988 4.45508 9.72754V9.21777C4.45508 9.05957 4.48438 8.9541 4.54297 8.90137C4.60156 8.84277 4.70996 8.81348 4.86816 8.81348H5.38672C5.53906 8.81348 5.64453 8.84277 5.70312 8.90137C5.76172 8.9541 5.79102 9.05957 5.79102 9.21777V9.72754C5.79102 9.87988 5.76172 9.98535 5.70312 10.0439C5.64453 10.1025 5.53906 10.1318 5.38672 10.1318H4.86816ZM7.78613 10.1318C7.63379 10.1318 7.52539 10.1025 7.46094 10.0439C7.40234 9.98535 7.37305 9.87988 7.37305 9.72754V9.21777C7.37305 9.05957 7.40234 8.9541 7.46094 8.90137C7.52539 8.84277 7.63379 8.81348 7.78613 8.81348H8.30469C8.45703 8.81348 8.5625 8.84277 8.62109 8.90137C8.68555 8.9541 8.71777 9.05957 8.71777 9.21777V9.72754C8.71777 9.87988 8.68555 9.98535 8.62109 10.0439C8.5625 10.1025 8.45703 10.1318 8.30469 10.1318H7.78613ZM10.7041 10.1318C10.5518 10.1318 10.4463 10.1025 10.3877 10.0439C10.3291 9.98535 10.2998 9.87988 10.2998 9.72754V9.21777C10.2998 9.05957 10.3291 8.9541 10.3877 8.90137C10.4463 8.84277 10.5518 8.81348 10.7041 8.81348H11.2227C11.3809 8.81348 11.4893 8.84277 11.5479 8.90137C11.6064 8.9541 11.6357 9.05957 11.6357 9.21777V9.72754C11.6357 9.87988 11.6064 9.98535 11.5479 10.0439C11.4893 10.1025 11.3809 10.1318 11.2227 10.1318H10.7041ZM13.6309 10.1318C13.4727 10.1318 13.3643 10.1025 13.3057 10.0439C13.2471 9.98535 13.2178 9.87988 13.2178 9.72754V9.21777C13.2178 9.05957 13.2471 8.9541 13.3057 8.90137C13.3643 8.84277 13.4727 8.81348 13.6309 8.81348H14.1406C14.2988 8.81348 14.4072 8.84277 14.4658 8.90137C14.5244 8.9541 14.5537 9.05957 14.5537 9.21777V9.72754C14.5537 9.87988 14.5244 9.98535 14.4658 10.0439C14.4072 10.1025 14.2988 10.1318 14.1406 10.1318H13.6309ZM4.86816 13.0059C4.70996 13.0059 4.60156 12.9795 4.54297 12.9268C4.48438 12.8682 4.45508 12.7598 4.45508 12.6016V12.0918C4.45508 11.9336 4.48438 11.8281 4.54297 11.7754C4.60156 11.7168 4.70996 11.6875 4.86816 11.6875H5.38672C5.53906 11.6875 5.64453 11.7168 5.70312 11.7754C5.76172 11.8281 5.79102 11.9336 5.79102 12.0918V12.6016C5.79102 12.7598 5.76172 12.8682 5.70312 12.9268C5.64453 12.9795 5.53906 13.0059 5.38672 13.0059H4.86816ZM7.78613 13.0059C7.63379 13.0059 7.52539 12.9795 7.46094 12.9268C7.40234 12.8682 7.37305 12.7598 7.37305 12.6016V12.0918C7.37305 11.9336 7.40234 11.8281 7.46094 11.7754C7.52539 11.7168 7.63379 11.6875 7.78613 11.6875H8.30469C8.45703 11.6875 8.5625 11.7168 8.62109 11.7754C8.68555 11.8281 8.71777 11.9336 8.71777 12.0918V12.6016C8.71777 12.7598 8.68555 12.8682 8.62109 12.9268C8.5625 12.9795 8.45703 13.0059 8.30469 13.0059H7.78613ZM10.7041 13.0059C10.5518 13.0059 10.4463 12.9795 10.3877 12.9268C10.3291 12.8682 10.2998 12.7598 10.2998 12.6016V12.0918C10.2998 11.9336 10.3291 11.8281 10.3877 11.7754C10.4463 11.7168 10.5518 11.6875 10.7041 11.6875H11.2227C11.3809 11.6875 11.4893 11.7168 11.5479 11.7754C11.6064 11.8281 11.6357 11.9336 11.6357 12.0918V12.6016C11.6357 12.7598 11.6064 12.8682 11.5479 12.9268C11.4893 12.9795 11.3809 13.0059 11.2227 13.0059H10.7041Z" fill="currentColor"/>
</svg>
