<svg width="25" height="22" viewBox="0 0 25 22" fill="currentColor" xmlns="http://www.w3.org/2000/svg">
<path d="M10.4102 20.9102C9.04948 20.9102 7.76693 20.6497 6.5625 20.1289C5.36458 19.6081 4.30664 18.8887 3.38867 17.9707C2.4707 17.0527 1.7513 15.9948 1.23047 14.7969C0.709635 13.5924 0.449219 12.3099 0.449219 10.9492C0.449219 9.58854 0.70638 8.30924 1.2207 7.11133C1.74154 5.9069 2.46094 4.8457 3.37891 3.92773C4.29688 3.00977 5.35482 2.29036 6.55273 1.76953C7.75716 1.2487 9.03971 0.988281 10.4004 0.988281C11.6699 0.988281 12.8711 1.21615 14.0039 1.67188C15.1367 2.1276 16.1523 2.76237 17.0508 3.57617C17.9492 4.38997 18.6816 5.33398 19.248 6.4082C19.8145 7.48242 20.166 8.64128 20.3027 9.88477C19.9186 9.80013 19.515 9.75781 19.0918 9.75781C18.2259 9.75781 17.4121 9.92383 16.6504 10.2559C15.8952 10.5814 15.2279 11.0339 14.6484 11.6133C14.069 12.1927 13.6133 12.8633 13.2812 13.625C12.9557 14.3802 12.793 15.1908 12.793 16.0566C12.793 16.8249 12.9264 17.5508 13.1934 18.2344C13.4603 18.9245 13.8281 19.5462 14.2969 20.0996C13.6979 20.36 13.0729 20.5586 12.4219 20.6953C11.7708 20.8385 11.1003 20.9102 10.4102 20.9102ZM9.02344 15.4316C9.1862 15.4316 9.33594 15.3926 9.47266 15.3145C9.61589 15.2298 9.73633 15.1094 9.83398 14.9531L14.4336 7.72656C14.4922 7.62891 14.5475 7.52474 14.5996 7.41406C14.6517 7.29688 14.6777 7.1862 14.6777 7.08203C14.6777 6.85417 14.5931 6.67188 14.4238 6.53516C14.2546 6.39844 14.0625 6.33008 13.8477 6.33008C13.5677 6.33008 13.3366 6.47982 13.1543 6.7793L8.98438 13.4785L6.99219 10.9199C6.875 10.7637 6.75781 10.6562 6.64062 10.5977C6.52344 10.5391 6.39648 10.5098 6.25977 10.5098C6.03841 10.5098 5.85286 10.5879 5.70312 10.7441C5.55339 10.9004 5.47852 11.0892 5.47852 11.3105C5.47852 11.4212 5.49805 11.5319 5.53711 11.6426C5.57617 11.7467 5.63477 11.8477 5.71289 11.9453L8.1543 14.9531C8.28451 15.1224 8.41797 15.2461 8.55469 15.3242C8.69792 15.3958 8.85417 15.4316 9.02344 15.4316ZM19.0918 21.0176C18.4147 21.0176 17.7767 20.8874 17.1777 20.627C16.5788 20.373 16.0514 20.0182 15.5957 19.5625C15.14 19.1068 14.7819 18.5794 14.5215 17.9805C14.2611 17.3815 14.1309 16.7402 14.1309 16.0566C14.1309 15.373 14.2611 14.735 14.5215 14.1426C14.7819 13.5436 15.14 13.0163 15.5957 12.5605C16.0514 12.0983 16.5788 11.7402 17.1777 11.4863C17.7767 11.2259 18.4147 11.0957 19.0918 11.0957C19.7754 11.0957 20.4167 11.2259 21.0156 11.4863C21.6146 11.7402 22.1419 12.0951 22.5977 12.5508C23.0534 13.0065 23.4082 13.5339 23.6621 14.1328C23.9225 14.7318 24.0527 15.373 24.0527 16.0566C24.0527 16.7337 23.9225 17.3717 23.6621 17.9707C23.4017 18.5697 23.0404 19.097 22.5781 19.5527C22.1224 20.0085 21.5951 20.3665 20.9961 20.627C20.3971 20.8874 19.7624 21.0176 19.0918 21.0176ZM17.6953 18.3613L19.1309 16.9258L20.459 18.2441C20.5762 18.3613 20.7161 18.4167 20.8789 18.4102C21.0417 18.4102 21.1816 18.3548 21.2988 18.2441C21.4095 18.1335 21.4648 17.9967 21.4648 17.834C21.4648 17.6647 21.4095 17.5215 21.2988 17.4043L19.9805 16.0859L21.4062 14.6504C21.5365 14.5267 21.5951 14.3802 21.582 14.2109C21.569 14.0417 21.5007 13.8952 21.377 13.7715C21.2598 13.6543 21.1165 13.5892 20.9473 13.5762C20.778 13.5632 20.6315 13.6185 20.5078 13.7422L19.0723 15.1777L17.7441 13.8594C17.627 13.7487 17.487 13.6934 17.3242 13.6934C17.168 13.6934 17.0312 13.7487 16.9141 13.8594C16.7969 13.9701 16.7383 14.11 16.7383 14.2793C16.7383 14.4421 16.7969 14.582 16.9141 14.6992L18.2227 16.0273L16.7969 17.4531C16.6667 17.5833 16.6081 17.7331 16.6211 17.9023C16.6341 18.0716 16.7025 18.2148 16.8262 18.332C16.9434 18.4557 17.0866 18.5241 17.2559 18.5371C17.4251 18.5501 17.5716 18.4915 17.6953 18.3613Z" fill="currentColor"/>
</svg>
