<svg width="17" height="16" viewBox="0 0 17 16" fill="currentColor" xmlns="http://www.w3.org/2000/svg">
<path d="M1.00977 15.4492C0.892578 15.3385 0.814453 15.2083 0.775391 15.0586C0.742839 14.9089 0.746094 14.7591 0.785156 14.6094C0.824219 14.4596 0.899089 14.3294 1.00977 14.2188L7.25977 7.95898L1.00977 1.70898C0.899089 1.59831 0.824219 1.4681 0.785156 1.31836C0.752604 1.16862 0.752604 1.01888 0.785156 0.869141C0.824219 0.719401 0.899089 0.589193 1.00977 0.478516C1.12044 0.361328 1.25065 0.286458 1.40039 0.253906C1.55013 0.214844 1.69987 0.214844 1.84961 0.253906C2.00586 0.286458 2.13932 0.361328 2.25 0.478516L8.5 6.72852L14.75 0.478516C14.8607 0.361328 14.9909 0.286458 15.1406 0.253906C15.2904 0.214844 15.4401 0.214844 15.5898 0.253906C15.7396 0.286458 15.873 0.361328 15.9902 0.478516C16.1009 0.589193 16.1758 0.719401 16.2148 0.869141C16.2539 1.01888 16.2539 1.16862 16.2148 1.31836C16.1758 1.4681 16.1009 1.59831 15.9902 1.70898L9.74023 7.95898L15.9902 14.2188C16.1009 14.3294 16.1725 14.4596 16.2051 14.6094C16.2441 14.7591 16.2441 14.9089 16.2051 15.0586C16.1725 15.2083 16.1009 15.3385 15.9902 15.4492C15.8796 15.5664 15.7461 15.6413 15.5898 15.6738C15.4401 15.7129 15.2904 15.7129 15.1406 15.6738C14.9909 15.6348 14.8607 15.5599 14.75 15.4492L8.5 9.19922L2.25 15.4492C2.13932 15.5599 2.00911 15.6348 1.85938 15.6738C1.70964 15.7129 1.5599 15.7129 1.41016 15.6738C1.26042 15.6348 1.12695 15.5599 1.00977 15.4492Z" fill="currentColor"/>
</svg>
