<svg width="20" height="21" viewBox="0 0 20 21" fill="currentColor" xmlns="http://www.w3.org/2000/svg">
<path d="M10 20.9102C8.63932 20.9102 7.35677 20.6497 6.15234 20.1289C4.95443 19.6081 3.89648 18.8887 2.97852 17.9707C2.06055 17.0527 1.34115 15.9948 0.820312 14.7969C0.299479 13.5924 0.0390625 12.3099 0.0390625 10.9492C0.0390625 9.58854 0.299479 8.30924 0.820312 7.11133C1.34115 5.9069 2.05729 4.8457 2.96875 3.92773C3.88672 3.00977 4.94466 2.29036 6.14258 1.76953C7.34701 1.2487 8.62956 0.988281 9.99023 0.988281C11.3509 0.988281 12.6335 1.2487 13.8379 1.76953C15.0423 2.29036 16.1035 3.00977 17.0215 3.92773C17.9395 4.8457 18.6589 5.9069 19.1797 7.11133C19.7005 8.30924 19.9609 9.58854 19.9609 10.9492C19.9609 12.3099 19.7005 13.5924 19.1797 14.7969C18.6589 15.9948 17.9395 17.0527 17.0215 17.9707C16.1035 18.8887 15.0423 19.6081 13.8379 20.1289C12.64 20.6497 11.3607 20.9102 10 20.9102ZM7.00195 15.5684C7.17122 15.5684 7.30794 15.5358 7.41211 15.4707C7.51628 15.3991 7.63346 15.2754 7.76367 15.0996L9.94141 12.0039H9.98047L12.1484 15.0996C12.2786 15.2754 12.3958 15.3991 12.5 15.4707C12.6107 15.5358 12.7441 15.5684 12.9004 15.5684C13.1348 15.5684 13.3268 15.5 13.4766 15.3633C13.6263 15.2266 13.7012 15.0475 13.7012 14.8262C13.7012 14.6374 13.6361 14.4616 13.5059 14.2988L10.9863 10.8516L13.5254 7.39453C13.6556 7.22526 13.7207 7.04622 13.7207 6.85742C13.7207 6.6556 13.6458 6.48633 13.4961 6.34961C13.3529 6.21289 13.1738 6.14453 12.959 6.14453C12.8027 6.14453 12.666 6.18034 12.5488 6.25195C12.4382 6.31706 12.3307 6.43424 12.2266 6.60352L10.1172 9.69922H10.0684L7.92969 6.59375C7.8125 6.43099 7.69531 6.31706 7.57812 6.25195C7.46745 6.18034 7.32747 6.14453 7.1582 6.14453C6.94336 6.14453 6.75781 6.2194 6.60156 6.36914C6.44531 6.51237 6.36719 6.68815 6.36719 6.89648C6.36719 7.0918 6.4388 7.28711 6.58203 7.48242L8.99414 10.8027L6.43555 14.3379C6.31836 14.5072 6.25977 14.6829 6.25977 14.8652C6.25977 15.0605 6.33138 15.2266 6.47461 15.3633C6.61784 15.5 6.79362 15.5684 7.00195 15.5684Z" fill="currentColor"/>
</svg>
