<svg width="22" height="17" viewBox="0 0 22 17" fill="currentColor" xmlns="http://www.w3.org/2000/svg">
<path d="M1.41016 16.793C0.750977 16.793 0.241211 16.2832 0.241211 15.6328V10.5703C0.241211 9.08496 0.540039 8.25879 1.35742 7.2041L2.0957 6.24609C2.4209 4.66406 3.00098 3.00293 3.30859 2.35254C3.77441 1.35938 4.68848 0.75293 5.85742 0.612305C6.44629 0.541992 8.37109 0.489258 10.6387 0.489258C12.915 0.489258 14.8398 0.533203 15.4287 0.612305C16.5977 0.770508 17.5029 1.35938 17.9775 2.35254C18.2764 3.00293 18.8652 4.66406 19.1816 6.24609L19.9287 7.2041C20.7373 8.25879 21.0361 9.08496 21.0361 10.5703V15.6328C21.0361 16.2832 20.5352 16.793 19.876 16.793H18.8389C18.1797 16.793 17.6787 16.2832 17.6787 15.6328V14.165C15.7275 14.2881 12.8975 14.376 10.6387 14.376C8.37988 14.376 5.55859 14.2881 3.60742 14.165V15.6328C3.60742 16.2832 3.09766 16.793 2.43848 16.793H1.41016ZM3.87109 5.50781C3.79199 5.83301 3.92383 5.95605 4.2666 5.93848C5.72559 5.8418 7.46582 5.75391 10.6387 5.75391C13.8203 5.75391 15.5605 5.8418 17.0195 5.93848C17.3535 5.95605 17.4941 5.83301 17.415 5.50781C17.1865 4.5498 16.7822 3.28418 16.4834 2.7832C16.2373 2.37012 15.9912 2.19434 15.5166 2.12402C14.8574 2.01855 13.3633 1.97461 10.6387 1.97461C7.92285 1.97461 6.42871 2.03613 5.76074 2.12402C5.28613 2.18555 5.03125 2.37012 4.79395 2.7832C4.50391 3.29297 4.07324 4.5498 3.87109 5.50781ZM4.30176 12.0029C5.10156 12.0029 5.7168 11.3877 5.7168 10.5879C5.7168 9.7793 5.10156 9.17285 4.30176 9.17285C3.50195 9.17285 2.88672 9.7793 2.88672 10.5879C2.88672 11.3877 3.50195 12.0029 4.30176 12.0029ZM16.9756 12.0029C17.7842 12.0029 18.3906 11.3877 18.3906 10.5879C18.3906 9.7793 17.7842 9.17285 16.9756 9.17285C16.1758 9.17285 15.5693 9.7793 15.5693 10.5879C15.5693 11.3877 16.1758 12.0029 16.9756 12.0029ZM8.31836 11.6514H12.9678C13.5654 11.6514 13.9785 11.2383 13.9785 10.6318C13.9785 10.0342 13.5654 9.62109 12.9678 9.62109H8.31836C7.71191 9.62109 7.29883 10.0342 7.29883 10.6318C7.29883 11.2383 7.71191 11.6514 8.31836 11.6514Z" fill="currentColor"/>
</svg>
