<svg width="18" height="18" viewBox="0 0 18 18" fill="currentColor" xmlns="http://www.w3.org/2000/svg">
<path d="M6.94922 17.5723C6.5651 17.5723 6.22656 17.3835 5.93359 17.0059L0.865234 10.5508C0.767578 10.4336 0.695964 10.3164 0.650391 10.1992C0.604818 10.0755 0.582031 9.95508 0.582031 9.83789C0.582031 9.57096 0.669922 9.35286 0.845703 9.18359C1.02148 9.00781 1.24609 8.91992 1.51953 8.91992C1.84505 8.91992 2.125 9.07943 2.35938 9.39844L6.91016 15.3555L15.6797 1.38086C15.7969 1.19857 15.9173 1.07161 16.041 1C16.1647 0.921875 16.3242 0.882812 16.5195 0.882812C16.7865 0.882812 17.0013 0.964193 17.1641 1.12695C17.3268 1.28971 17.4082 1.50456 17.4082 1.77148C17.4082 1.88867 17.3887 2.00586 17.3496 2.12305C17.3105 2.23372 17.2487 2.35742 17.1641 2.49414L7.93555 17.0254C7.69466 17.39 7.36589 17.5723 6.94922 17.5723Z" fill="currentColor"/>
</svg>
