<svg width="30" height="30" viewBox="0 0 30 30" fill="currentColor" xmlns="http://www.w3.org/2000/svg">
<path d="M15 29.7617C13.0074 29.7617 11.1292 29.3803 9.36547 28.6176C7.61123 27.8549 6.06197 26.8014 4.71769 25.4571C3.37341 24.1128 2.31992 22.5636 1.5572 20.8093C0.794492 19.0456 0.413137 17.1674 0.413137 15.1748C0.413137 13.1822 0.794492 11.3088 1.5572 9.55456C2.31992 7.79078 3.36864 6.23676 4.70339 4.89248C6.04767 3.5482 7.59693 2.4947 9.35117 1.73199C11.1149 0.96928 12.9931 0.587924 14.9857 0.587924C16.9783 0.587924 18.8565 0.96928 20.6202 1.73199C22.384 2.4947 23.938 3.5482 25.2823 4.89248C26.6266 6.23676 27.6801 7.79078 28.4428 9.55456C29.2055 11.3088 29.5869 13.1822 29.5869 15.1748C29.5869 17.1674 29.2055 19.0456 28.4428 20.8093C27.6801 22.5636 26.6266 24.1128 25.2823 25.4571C23.938 26.8014 22.384 27.8549 20.6202 28.6176C18.866 29.3803 16.9926 29.7617 15 29.7617ZM13.3983 22.1536C13.6462 22.1536 13.8702 22.0964 14.0704 21.982C14.2707 21.8676 14.447 21.696 14.5996 21.4672L21.321 10.8702C21.4068 10.7272 21.4878 10.5747 21.5641 10.4126C21.6404 10.2505 21.6785 10.0885 21.6785 9.92638C21.6785 9.59269 21.5546 9.33051 21.3067 9.13983C21.0588 8.93962 20.7823 8.83951 20.4772 8.83951C20.0577 8.83951 19.7145 9.05879 19.4476 9.49735L13.3411 19.3077L10.438 15.5609C10.2569 15.3226 10.0805 15.1605 9.9089 15.0747C9.74682 14.9889 9.56091 14.946 9.35117 14.946C9.02701 14.946 8.7553 15.0651 8.53602 15.3035C8.31674 15.5323 8.2071 15.8088 8.2071 16.1329C8.2071 16.295 8.2357 16.4571 8.2929 16.6192C8.35964 16.7717 8.44545 16.9195 8.55032 17.0625L12.1398 21.4672C12.3305 21.715 12.526 21.8914 12.7262 21.9963C12.9264 22.1012 13.1504 22.1536 13.3983 22.1536Z" fill="currentColor"/>
</svg>
