<svg width="25" height="18" viewBox="0 0 25 18" fill="currentColor" xmlns="http://www.w3.org/2000/svg">
<path d="M18.9648 9.26172C18.8021 9.26172 18.6523 9.22591 18.5156 9.1543C18.3854 9.08268 18.2585 8.96875 18.1348 8.8125L15.752 5.88281C15.6022 5.6875 15.5273 5.48568 15.5273 5.27734C15.5273 5.05599 15.599 4.87044 15.7422 4.7207C15.8919 4.57096 16.0742 4.49609 16.2891 4.49609C16.4193 4.49609 16.5397 4.52539 16.6504 4.58398C16.7676 4.63607 16.8848 4.74023 17.002 4.89648L18.9258 7.37695L22.9883 0.882812C23.1641 0.589844 23.3887 0.443359 23.6621 0.443359C23.8639 0.443359 24.0462 0.508464 24.209 0.638672C24.3717 0.76888 24.4531 0.941406 24.4531 1.15625C24.4531 1.26693 24.4271 1.3776 24.375 1.48828C24.3294 1.59245 24.2773 1.6901 24.2188 1.78125L19.7559 8.8125C19.5605 9.11198 19.2969 9.26172 18.9648 9.26172ZM2.2168 17.7285C1.69596 17.7285 1.28581 17.6113 0.986328 17.377C0.693359 17.1491 0.546875 16.8333 0.546875 16.4297C0.546875 15.7982 0.735677 15.1374 1.11328 14.4473C1.49089 13.7507 2.03776 13.0996 2.75391 12.4941C3.47005 11.8822 4.33268 11.3874 5.3418 11.0098C6.35742 10.6257 7.49674 10.4336 8.75977 10.4336C10.0293 10.4336 11.1686 10.6257 12.1777 11.0098C13.1934 11.3874 14.056 11.8822 14.7656 12.4941C15.4818 13.0996 16.0286 13.7507 16.4062 14.4473C16.7904 15.1374 16.9824 15.7982 16.9824 16.4297C16.9824 16.8333 16.8327 17.1491 16.5332 17.377C16.2402 17.6113 15.8333 17.7285 15.3125 17.7285H2.2168ZM8.76953 8.68555C8.07292 8.68555 7.42839 8.49674 6.83594 8.11914C6.24349 7.73503 5.76497 7.2207 5.40039 6.57617C5.04232 5.92513 4.86328 5.19596 4.86328 4.38867C4.86328 3.5944 5.04232 2.87826 5.40039 2.24023C5.76497 1.60221 6.24349 1.09766 6.83594 0.726562C7.42839 0.355469 8.07292 0.169922 8.76953 0.169922C9.46615 0.169922 10.1107 0.352214 10.7031 0.716797C11.2956 1.08138 11.7708 1.58268 12.1289 2.2207C12.4935 2.85221 12.6758 3.56836 12.6758 4.36914C12.6758 5.18294 12.4935 5.91536 12.1289 6.56641C11.7708 7.21745 11.2956 7.73503 10.7031 8.11914C10.1107 8.49674 9.46615 8.68555 8.76953 8.68555Z" fill="currentColor"/>
</svg>
