<svg xmlns="http://www.w3.org/2000/svg" width="11" height="19" viewBox="0 0 11 19" fill="currentColor">
    <path d="M0.5 9.50005C0.5 9.85161 0.63058 10.153 0.91183 10.4141L8.72656 18.0681C8.94755 18.2891 9.2288 18.4097 9.56027 18.4097C10.2232 18.4097 10.7556 17.8873 10.7556 17.2143C10.7556 16.8829 10.615 16.5916 10.394 16.3605L3.35268 9.50005L10.394 2.63956C10.615 2.40853 10.7556 2.1072 10.7556 1.78577C10.7556 1.11278 10.2232 0.590454 9.56027 0.590454C9.2288 0.590454 8.94755 0.71099 8.72656 0.931972L0.91183 8.57595C0.63058 8.84715 0.5 9.14849 0.5 9.50005Z" fill="currentColor"/>
</svg>