<svg width="23" height="21" viewBox="0 0 23 21" fill="currentColor" xmlns="http://www.w3.org/2000/svg">
<path d="M8.44446 10.1288H14.6463V12.4754C15.0295 12.1881 15.5802 11.8289 16.3704 11.6613V2.8734C16.3704 2.22683 16.8972 1.72406 17.5197 1.72406C17.9986 1.72406 18.3817 1.3409 18.3817 0.862031C18.3817 0.383168 17.9986 0 17.5197 0C15.9393 0 14.6463 1.29296 14.6463 2.8734V4.42976L8.44446 4.42992V2.87356C8.44446 2.227 8.97126 1.72423 9.61783 1.72423C10.0967 1.72423 10.4799 1.34107 10.4799 0.862198C10.4799 0.383331 10.0967 0.000167029 9.61783 0.000167029C8.03739 0.000167029 6.74443 1.29313 6.74443 2.87356V11.6615C7.53463 11.8292 8.08532 12.1883 8.46849 12.4756L8.46833 10.1288L8.44446 10.1288ZM8.44446 6.15386H14.6463V8.40476H8.44446V6.15386Z" fill="currentColor"/>
<path d="M22.0454 13.2178C21.5904 13.3614 21.2552 13.6248 21.0158 13.8403C20.7045 14.1037 20.5129 14.2712 20.0581 14.2712C19.6031 14.2712 19.4115 14.1035 19.1004 13.8403C18.7172 13.529 18.1904 13.074 17.2088 13.074C16.227 13.074 15.7002 13.5049 15.3172 13.8403C15.0059 14.1037 14.8143 14.2712 14.3595 14.2712C13.9045 14.2712 13.7129 14.1035 13.4017 13.8403C13.0186 13.529 12.4918 13.074 11.5101 13.074C10.5283 13.074 10.0256 13.5049 9.61855 13.8403C9.30721 14.1037 9.11561 14.2712 8.66082 14.2712C8.20582 14.2712 8.01426 14.1035 7.7031 13.8403C7.31993 13.529 6.79313 13.074 5.83536 13.074C4.85356 13.074 4.35079 13.5049 3.94377 13.8403C3.63243 14.1037 3.44083 14.2712 2.98604 14.2712C2.53104 14.2712 2.33947 14.1035 2.02831 13.8403C1.76491 13.6248 1.45358 13.3614 0.99875 13.2178C0.591701 13.0741 0.136719 13.4094 0.136719 13.8403V20.3534C0.136719 20.7125 0.424011 21 0.783285 21H22.2143C22.5735 21 22.8609 20.7127 22.8609 20.3534L22.8597 13.8403C22.9077 13.4094 22.4767 13.0741 22.0456 13.2178H22.0454Z" fill="currentColor"/>
</svg>
