<svg width="29" height="14" viewBox="0 0 29 14" fill="currentColor" xmlns="http://www.w3.org/2000/svg">
<path d="M6.54419 7.35938C5.99731 7.35938 5.49731 7.21354 5.04419 6.92188C4.59106 6.63021 4.22909 6.23958 3.95825 5.75C3.68742 5.26042 3.552 4.71615 3.552 4.11719C3.54679 3.53385 3.67961 3.0026 3.95044 2.52344C4.22127 2.04427 4.58325 1.66146 5.03638 1.375C5.4895 1.08854 5.99211 0.945312 6.54419 0.945312C7.09627 0.945312 7.59888 1.08594 8.052 1.36719C8.50513 1.64844 8.86711 2.02865 9.13794 2.50781C9.40877 2.98698 9.54419 3.52083 9.54419 4.10938C9.54419 4.70833 9.40877 5.2526 9.13794 5.74219C8.86711 6.23177 8.50252 6.625 8.04419 6.92188C7.59106 7.21354 7.09106 7.35938 6.54419 7.35938ZM6.54419 6.17969C6.8619 6.17969 7.15356 6.08854 7.41919 5.90625C7.68481 5.71875 7.89575 5.47135 8.052 5.16406C8.21346 4.85156 8.29419 4.5 8.29419 4.10938C8.29419 3.72917 8.21346 3.39062 8.052 3.09375C7.89575 2.79167 7.68481 2.55469 7.41919 2.38281C7.15877 2.21094 6.86711 2.125 6.54419 2.125C6.22127 2.125 5.927 2.21354 5.66138 2.39062C5.40096 2.5625 5.19263 2.79948 5.03638 3.10156C4.88013 3.40365 4.802 3.74219 4.802 4.11719C4.802 4.50781 4.88013 4.85938 5.03638 5.17188C5.19263 5.47917 5.40356 5.72396 5.66919 5.90625C5.93481 6.08854 6.22648 6.17969 6.54419 6.17969ZM2.47388 13.7344C1.90617 13.7344 1.47648 13.638 1.18481 13.4453C0.898356 13.2578 0.755127 12.9661 0.755127 12.5703C0.755127 12.1224 0.882731 11.6432 1.13794 11.1328C1.39315 10.6224 1.76554 10.1432 2.25513 9.69531C2.74992 9.24219 3.35669 8.875 4.07544 8.59375C4.79419 8.30729 5.6145 8.16406 6.53638 8.16406C7.46346 8.16406 8.28377 8.30729 8.99731 8.59375C9.71606 8.875 10.3228 9.24219 10.8176 9.69531C11.3124 10.1432 11.6874 10.6224 11.9426 11.1328C12.1978 11.6432 12.3254 12.1224 12.3254 12.5703C12.3254 12.9661 12.1796 13.2578 11.8879 13.4453C11.6015 13.638 11.1744 13.7344 10.6067 13.7344H2.47388ZM2.16919 12.5547H10.9114C11.0155 12.5547 11.0676 12.5078 11.0676 12.4141C11.0676 12.1589 10.9739 11.8568 10.7864 11.5078C10.6041 11.1589 10.3254 10.8203 9.95044 10.4922C9.57544 10.1641 9.10409 9.89062 8.53638 9.67188C7.96867 9.45312 7.302 9.34375 6.53638 9.34375C5.77596 9.34375 5.1119 9.45312 4.54419 9.67188C3.97648 9.89062 3.50513 10.1641 3.13013 10.4922C2.75513 10.8203 2.47388 11.1589 2.28638 11.5078C2.09888 11.8568 2.00513 12.1589 2.00513 12.4141C2.00513 12.5078 2.05981 12.5547 2.16919 12.5547ZM23.1301 7.39844C22.5833 7.39844 22.0833 7.2526 21.6301 6.96094C21.177 6.66927 20.815 6.27865 20.5442 5.78906C20.2734 5.29948 20.1379 4.75521 20.1379 4.15625C20.1327 3.57292 20.2655 3.04167 20.5364 2.5625C20.8072 2.08333 21.1692 1.70052 21.6223 1.41406C22.0754 1.1276 22.578 0.984375 23.1301 0.984375C23.6822 0.984375 24.1848 1.125 24.6379 1.40625C25.0911 1.6875 25.453 2.06771 25.7239 2.54688C25.9947 3.02604 26.1301 3.5599 26.1301 4.14844C26.1301 4.7474 25.9947 5.29167 25.7239 5.78125C25.453 6.27083 25.0885 6.66406 24.6301 6.96094C24.177 7.2526 23.677 7.39844 23.1301 7.39844ZM23.1301 6.21875C23.4478 6.21875 23.7395 6.1276 24.0051 5.94531C24.2708 5.75781 24.4817 5.51042 24.6379 5.20312C24.7994 4.89062 24.8801 4.53906 24.8801 4.14844C24.8801 3.76823 24.7994 3.42969 24.6379 3.13281C24.4817 2.83073 24.2708 2.59375 24.0051 2.42188C23.7447 2.25 23.453 2.16406 23.1301 2.16406C22.8072 2.16406 22.5129 2.2526 22.2473 2.42969C21.9869 2.60156 21.7786 2.83854 21.6223 3.14062C21.4661 3.44271 21.3879 3.78125 21.3879 4.15625C21.3879 4.54688 21.4661 4.89844 21.6223 5.21094C21.7786 5.51823 21.9895 5.76302 22.2551 5.94531C22.5208 6.1276 22.8124 6.21875 23.1301 6.21875ZM19.0598 13.7734C18.4921 13.7734 18.0624 13.6771 17.7708 13.4844C17.4843 13.2969 17.3411 13.0052 17.3411 12.6094C17.3411 12.1615 17.4687 11.6823 17.7239 11.1719C17.9791 10.6615 18.3515 10.1823 18.8411 9.73438C19.3359 9.28125 19.9426 8.91406 20.6614 8.63281C21.3801 8.34635 22.2004 8.20312 23.1223 8.20312C24.0494 8.20312 24.8697 8.34635 25.5833 8.63281C26.302 8.91406 26.9088 9.28125 27.4036 9.73438C27.8984 10.1823 28.2734 10.6615 28.5286 11.1719C28.7838 11.6823 28.9114 12.1615 28.9114 12.6094C28.9114 13.0052 28.7655 13.2969 28.4739 13.4844C28.1874 13.6771 27.7603 13.7734 27.1926 13.7734H19.0598ZM18.7551 12.5938H27.4973C27.6015 12.5938 27.6536 12.5469 27.6536 12.4531C27.6536 12.1979 27.5598 11.8958 27.3723 11.5469C27.19 11.1979 26.9114 10.8594 26.5364 10.5312C26.1614 10.2031 25.69 9.92969 25.1223 9.71094C24.5546 9.49219 23.8879 9.38281 23.1223 9.38281C22.3619 9.38281 21.6978 9.49219 21.1301 9.71094C20.5624 9.92969 20.0911 10.2031 19.7161 10.5312C19.3411 10.8594 19.0598 11.1979 18.8723 11.5469C18.6848 11.8958 18.5911 12.1979 18.5911 12.4531C18.5911 12.5469 18.6458 12.5938 18.7551 12.5938ZM11.7629 7.79688C11.4765 7.79688 11.2317 7.69531 11.0286 7.49219C10.8306 7.28906 10.7317 7.04427 10.7317 6.75781C10.7317 6.47135 10.8306 6.22917 11.0286 6.03125C11.2317 5.82812 11.4765 5.72656 11.7629 5.72656C12.0494 5.72656 12.2942 5.82812 12.4973 6.03125C12.7004 6.22917 12.802 6.47135 12.802 6.75781C12.802 7.04427 12.7004 7.28906 12.4973 7.49219C12.2942 7.69531 12.0494 7.79688 11.7629 7.79688ZM14.8333 7.79688C14.5468 7.79688 14.302 7.69531 14.0989 7.49219C13.901 7.28906 13.802 7.04427 13.802 6.75781C13.802 6.47135 13.901 6.22917 14.0989 6.03125C14.302 5.82812 14.5468 5.72656 14.8333 5.72656C15.1197 5.72656 15.3619 5.82812 15.5598 6.03125C15.7629 6.22917 15.8645 6.47135 15.8645 6.75781C15.8645 7.04427 15.7629 7.28906 15.5598 7.49219C15.3619 7.69531 15.1197 7.79688 14.8333 7.79688ZM17.8879 7.79688C17.6015 7.79688 17.3567 7.69531 17.1536 7.49219C16.9556 7.28906 16.8567 7.04427 16.8567 6.75781C16.8567 6.47135 16.9556 6.22917 17.1536 6.03125C17.3567 5.82812 17.6015 5.72656 17.8879 5.72656C18.1744 5.72656 18.4192 5.82812 18.6223 6.03125C18.8254 6.22917 18.927 6.47135 18.927 6.75781C18.927 7.04427 18.8254 7.28906 18.6223 7.49219C18.4192 7.69531 18.1744 7.79688 17.8879 7.79688Z" fill="currentColor"/>
</svg>
