<svg width="21" height="26" viewBox="0 0 21 26" fill="currentColor" xmlns="http://www.w3.org/2000/svg">
<path d="M4.90918 6.44141V3.72656C4.90918 2.70443 5.15983 1.93945 5.66113 1.43164C6.16895 0.917318 6.92741 0.660156 7.93652 0.660156H17.1162C18.1253 0.660156 18.8805 0.917318 19.3818 1.43164C19.8896 1.94596 20.1436 2.71094 20.1436 3.72656V17.291C20.1436 18.3066 19.8896 19.0716 19.3818 19.5859C18.8805 20.1003 18.1253 20.3574 17.1162 20.3574H14.6553V8.74609C14.6553 8.21224 14.5446 7.77604 14.3232 7.4375C14.1084 7.09896 13.8285 6.84831 13.4834 6.68555C13.1383 6.52279 12.7803 6.44141 12.4092 6.44141H4.90918ZM9.51855 3.43359C9.51855 3.58333 9.56738 3.7168 9.66504 3.83398C9.76921 3.95117 9.92871 4.00977 10.1436 4.00977H14.9092C15.1175 4.00977 15.2738 3.95117 15.3779 3.83398C15.4821 3.7168 15.5342 3.58333 15.5342 3.43359V3.22852C15.5342 3.07878 15.4821 2.94531 15.3779 2.82812C15.2738 2.71094 15.1175 2.65234 14.9092 2.65234H10.1436C9.92871 2.65234 9.76921 2.71094 9.66504 2.82812C9.56738 2.94531 9.51855 3.07878 9.51855 3.22852V3.43359ZM0.172852 22.1641V8.59961C0.172852 7.57747 0.423503 6.8125 0.924805 6.30469C1.43262 5.79036 2.19108 5.5332 3.2002 5.5332H12.3799C13.389 5.5332 14.1442 5.79036 14.6455 6.30469C15.1533 6.81901 15.4072 7.58398 15.4072 8.59961V22.1641C15.4072 23.1797 15.1533 23.9447 14.6455 24.459C14.1442 24.9733 13.389 25.2305 12.3799 25.2305H3.2002C2.19108 25.2305 1.43262 24.9733 0.924805 24.459C0.423503 23.9512 0.172852 23.1862 0.172852 22.1641ZM1.74512 22.1348C1.74512 22.623 1.87207 22.9974 2.12598 23.2578C2.38639 23.5247 2.76725 23.6582 3.26855 23.6582H12.3018C12.8031 23.6582 13.1839 23.5247 13.4443 23.2578C13.7048 22.9974 13.835 22.623 13.835 22.1348V8.61914C13.835 8.13737 13.7048 7.76628 13.4443 7.50586C13.1839 7.23893 12.8031 7.10547 12.3018 7.10547H3.26855C2.76725 7.10547 2.38639 7.23893 2.12598 7.50586C1.87207 7.76628 1.74512 8.13737 1.74512 8.61914V22.1348ZM3.52246 15.3672C3.52246 15.1849 3.58105 15.0384 3.69824 14.9277C3.81543 14.8105 3.96191 14.752 4.1377 14.752H8.36621L10.1143 14.8203L9.08887 13.9609L8.1416 13.0039C8.0179 12.8802 7.95605 12.737 7.95605 12.5742C7.95605 12.4049 8.01139 12.265 8.12207 12.1543C8.23275 12.0371 8.37598 11.9785 8.55176 11.9785C8.72103 11.9785 8.861 12.0339 8.97168 12.1445L11.7061 14.8984C11.8623 15.0547 11.9404 15.2109 11.9404 15.3672C11.9404 15.5299 11.8623 15.6895 11.7061 15.8457L8.97168 18.5898C8.85449 18.707 8.71452 18.7656 8.55176 18.7656C8.37598 18.7656 8.23275 18.707 8.12207 18.5898C8.01139 18.4727 7.95605 18.3294 7.95605 18.1602C7.95605 17.9844 8.0179 17.8411 8.1416 17.7305L9.08887 16.7832L10.1143 15.9238L8.36621 15.9824H4.1377C3.9554 15.9824 3.80566 15.9271 3.68848 15.8164C3.5778 15.6992 3.52246 15.5495 3.52246 15.3672Z" fill="currentColor"/>
</svg>
