<svg width="24" height="21" viewBox="0 0 24 21" fill="currentColor" xmlns="http://www.w3.org/2000/svg">
<path d="M3.33008 18.4531C2.30794 18.4531 1.53971 18.1992 1.02539 17.6914C0.517578 17.1901 0.263672 16.4349 0.263672 15.4258V3.50195C0.263672 2.49284 0.517578 1.73763 1.02539 1.23633C1.53971 0.728516 2.30794 0.474609 3.33008 0.474609H16.6699C17.6921 0.474609 18.457 0.728516 18.9648 1.23633C19.4727 1.73763 19.7266 2.49284 19.7266 3.50195V9.07812C19.6029 9.05859 19.4759 9.04557 19.3457 9.03906C19.2155 9.03255 19.0853 9.0293 18.9551 9.0293C18.8249 9.0293 18.6947 9.03581 18.5645 9.04883C18.4342 9.05534 18.2975 9.0651 18.1543 9.07812V6.30469C18.1543 5.85547 18.0371 5.51693 17.8027 5.28906C17.5684 5.05469 17.2331 4.9375 16.7969 4.9375H3.18359C2.75391 4.9375 2.42188 5.05469 2.1875 5.28906C1.95312 5.51693 1.83594 5.85547 1.83594 6.30469V15.5137C1.83594 15.9629 1.95312 16.3014 2.1875 16.5293C2.42188 16.7637 2.75391 16.8809 3.18359 16.8809H12.8613C12.9264 17.1608 13.0111 17.431 13.1152 17.6914C13.2259 17.9583 13.3529 18.2122 13.4961 18.4531H3.33008ZM8.08594 8.44336C7.91667 8.44336 7.79622 8.41406 7.72461 8.35547C7.65951 8.29036 7.62695 8.17318 7.62695 8.00391V7.42773C7.62695 7.25846 7.65951 7.14128 7.72461 7.07617C7.79622 7.01107 7.91667 6.97852 8.08594 6.97852H8.66211C8.83138 6.97852 8.94857 7.01107 9.01367 7.07617C9.08529 7.14128 9.12109 7.25846 9.12109 7.42773V8.00391C9.12109 8.17318 9.08529 8.29036 9.01367 8.35547C8.94857 8.41406 8.83138 8.44336 8.66211 8.44336H8.08594ZM11.3379 8.44336C11.1621 8.44336 11.0417 8.41406 10.9766 8.35547C10.9115 8.29036 10.8789 8.17318 10.8789 8.00391V7.42773C10.8789 7.25846 10.9115 7.14128 10.9766 7.07617C11.0417 7.01107 11.1621 6.97852 11.3379 6.97852H11.9043C12.0801 6.97852 12.2005 7.01107 12.2656 7.07617C12.3307 7.14128 12.3633 7.25846 12.3633 7.42773V8.00391C12.3633 8.17318 12.3307 8.29036 12.2656 8.35547C12.2005 8.41406 12.0801 8.44336 11.9043 8.44336H11.3379ZM14.5801 8.44336C14.4043 8.44336 14.2839 8.41406 14.2188 8.35547C14.1536 8.29036 14.1211 8.17318 14.1211 8.00391V7.42773C14.1211 7.25846 14.1536 7.14128 14.2188 7.07617C14.2839 7.01107 14.4043 6.97852 14.5801 6.97852H15.1562C15.3255 6.97852 15.4427 7.01107 15.5078 7.07617C15.5729 7.14128 15.6055 7.25846 15.6055 7.42773V8.00391C15.6055 8.17318 15.5729 8.29036 15.5078 8.35547C15.4427 8.41406 15.3255 8.44336 15.1562 8.44336H14.5801ZM4.84375 11.6367C4.66797 11.6367 4.54753 11.6074 4.48242 11.5488C4.41732 11.4837 4.38477 11.3665 4.38477 11.1973V10.6211C4.38477 10.4518 4.41732 10.3379 4.48242 10.2793C4.54753 10.2142 4.66797 10.1816 4.84375 10.1816H5.41992C5.58919 10.1816 5.70638 10.2142 5.77148 10.2793C5.83659 10.3379 5.86914 10.4518 5.86914 10.6211V11.1973C5.86914 11.3665 5.83659 11.4837 5.77148 11.5488C5.70638 11.6074 5.58919 11.6367 5.41992 11.6367H4.84375ZM8.08594 11.6367C7.91667 11.6367 7.79622 11.6074 7.72461 11.5488C7.65951 11.4837 7.62695 11.3665 7.62695 11.1973V10.6211C7.62695 10.4518 7.65951 10.3379 7.72461 10.2793C7.79622 10.2142 7.91667 10.1816 8.08594 10.1816H8.66211C8.83138 10.1816 8.94857 10.2142 9.01367 10.2793C9.08529 10.3379 9.12109 10.4518 9.12109 10.6211V11.1973C9.12109 11.3665 9.08529 11.4837 9.01367 11.5488C8.94857 11.6074 8.83138 11.6367 8.66211 11.6367H8.08594ZM11.3379 11.6367C11.1621 11.6367 11.0417 11.6074 10.9766 11.5488C10.9115 11.4837 10.8789 11.3665 10.8789 11.1973V10.6211C10.8789 10.4518 10.9115 10.3379 10.9766 10.2793C11.0417 10.2142 11.1621 10.1816 11.3379 10.1816H11.9043C12.0801 10.1816 12.2005 10.2142 12.2656 10.2793C12.3307 10.3379 12.3633 10.4518 12.3633 10.6211V11.1973C12.3633 11.3665 12.3307 11.4837 12.2656 11.5488C12.2005 11.6074 12.0801 11.6367 11.9043 11.6367H11.3379ZM4.84375 14.8398C4.66797 14.8398 4.54753 14.8073 4.48242 14.7422C4.41732 14.6771 4.38477 14.5599 4.38477 14.3906V13.8145C4.38477 13.6452 4.41732 13.5312 4.48242 13.4727C4.54753 13.4076 4.66797 13.375 4.84375 13.375H5.41992C5.58919 13.375 5.70638 13.4076 5.77148 13.4727C5.83659 13.5312 5.86914 13.6452 5.86914 13.8145V14.3906C5.86914 14.5599 5.83659 14.6771 5.77148 14.7422C5.70638 14.8073 5.58919 14.8398 5.41992 14.8398H4.84375ZM8.08594 14.8398C7.91667 14.8398 7.79622 14.8073 7.72461 14.7422C7.65951 14.6771 7.62695 14.5599 7.62695 14.3906V13.8145C7.62695 13.6452 7.65951 13.5312 7.72461 13.4727C7.79622 13.4076 7.91667 13.375 8.08594 13.375H8.66211C8.83138 13.375 8.94857 13.4076 9.01367 13.4727C9.08529 13.5312 9.12109 13.6452 9.12109 13.8145V14.3906C9.12109 14.5599 9.08529 14.6771 9.01367 14.7422C8.94857 14.8073 8.83138 14.8398 8.66211 14.8398H8.08594ZM11.3379 14.8398C11.1621 14.8398 11.0417 14.8073 10.9766 14.7422C10.9115 14.6771 10.8789 14.5599 10.8789 14.3906V13.8145C10.8789 13.6452 10.9115 13.5312 10.9766 13.4727C11.0417 13.4076 11.1621 13.375 11.3379 13.375H11.9043C12.0801 13.375 12.2005 13.4076 12.2656 13.4727C12.3307 13.5312 12.3633 13.6452 12.3633 13.8145V14.3906C12.3633 14.5599 12.3307 14.6771 12.2656 14.7422C12.2005 14.8073 12.0801 14.8398 11.9043 14.8398H11.3379ZM18.9551 20.2891C18.278 20.2891 17.64 20.1589 17.041 19.8984C16.4421 19.6445 15.9147 19.2897 15.459 18.834C15.0033 18.3783 14.6452 17.8509 14.3848 17.252C14.1243 16.653 13.9941 16.0117 13.9941 15.3281C13.9941 14.6445 14.1243 14.0065 14.3848 13.4141C14.6452 12.8151 15.0033 12.2878 15.459 11.832C15.9147 11.3698 16.4421 11.0117 17.041 10.7578C17.64 10.4974 18.278 10.3672 18.9551 10.3672C19.6387 10.3672 20.2799 10.4974 20.8789 10.7578C21.4779 11.0117 22.0052 11.3665 22.4609 11.8223C22.9167 12.278 23.2715 12.8053 23.5254 13.4043C23.7858 14.0033 23.916 14.6445 23.916 15.3281C23.916 16.0052 23.7858 16.6432 23.5254 17.2422C23.265 17.8411 22.9036 18.3685 22.4414 18.8242C21.9857 19.2799 21.4583 19.638 20.8594 19.8984C20.2604 20.1589 19.6257 20.2891 18.9551 20.2891ZM16.6309 16.0898H19.0039C19.1732 16.0898 19.3132 16.0312 19.4238 15.9141C19.541 15.7969 19.5996 15.6536 19.5996 15.4844V12.4375C19.5996 12.2747 19.541 12.138 19.4238 12.0273C19.3066 11.9102 19.1667 11.8516 19.0039 11.8516C18.8346 11.8516 18.6914 11.9102 18.5742 12.0273C18.457 12.138 18.3984 12.2747 18.3984 12.4375V14.8887H16.6309C16.4681 14.8887 16.3249 14.9473 16.2012 15.0645C16.084 15.1816 16.0254 15.3216 16.0254 15.4844C16.0254 15.6471 16.084 15.7904 16.2012 15.9141C16.3184 16.0312 16.4616 16.0898 16.6309 16.0898Z" fill="currentColor"/>
</svg>
