<svg width="17" height="18" viewBox="0 0 17 18" fill="currentColor" xmlns="http://www.w3.org/2000/svg">
<path d="M4.92188 17.6514C3.78906 17.6514 3.05469 16.9326 3 15.8154L2.45312 4.44824H1.52344C1.21094 4.44824 0.9375 4.18262 0.9375 3.85449C0.9375 3.53418 1.21094 3.26855 1.52344 3.26855H5.07031V2.07324C5.07031 0.94043 5.80469 0.25293 7.00781 0.25293H9.97656C11.1797 0.25293 11.9141 0.94043 11.9141 2.07324V3.26855H15.4844C15.8047 3.26855 16.0625 3.53418 16.0625 3.85449C16.0625 4.1748 15.8047 4.44824 15.4844 4.44824H14.5469L14.0078 15.8076C13.9531 16.9248 13.2031 17.6514 12.0859 17.6514H4.92188ZM6.3125 2.15137V3.26855H10.6719V2.15137C10.6719 1.70605 10.3594 1.41699 9.89062 1.41699H7.09375C6.625 1.41699 6.3125 1.70605 6.3125 2.15137ZM5.03125 16.4717H11.9609C12.4219 16.4717 12.7578 16.1436 12.7734 15.6748L13.2891 4.44824H3.67969L4.22656 15.6748C4.25 16.1357 4.58594 16.4717 5.03125 16.4717ZM6.1875 15.1357C5.89844 15.1357 5.70312 14.9561 5.69531 14.6748L5.46094 6.32324C5.45312 6.0498 5.64844 5.8623 5.94531 5.8623C6.22656 5.8623 6.42188 6.04199 6.42969 6.31543L6.67188 14.6748C6.67969 14.9482 6.48438 15.1357 6.1875 15.1357ZM8.5 15.1357C8.20312 15.1357 8 14.9482 8 14.6748V6.32324C8 6.0498 8.20312 5.8623 8.5 5.8623C8.79688 5.8623 9.00781 6.0498 9.00781 6.32324V14.6748C9.00781 14.9482 8.79688 15.1357 8.5 15.1357ZM10.8203 15.1357C10.5234 15.1357 10.3281 14.9482 10.3359 14.6748L10.5703 6.32324C10.5781 6.04199 10.7734 5.8623 11.0547 5.8623C11.3516 5.8623 11.5469 6.0498 11.5391 6.32324L11.3047 14.6748C11.2969 14.9561 11.1016 15.1357 10.8203 15.1357Z" fill="currentColor"/>
</svg>
