<svg width="19" height="19" viewBox="0 0 19 19" fill="currentColor" xmlns="http://www.w3.org/2000/svg">
<path d="M9.53809 18.6279C4.64258 18.6279 0.573242 14.5674 0.573242 9.66309C0.573242 4.76758 4.63379 0.698242 9.5293 0.698242C14.4336 0.698242 18.5029 4.76758 18.5029 9.66309C18.5029 14.5674 14.4424 18.6279 9.53809 18.6279ZM7.2002 15.0068H11.8848C12.4912 15.0068 12.8691 14.6641 12.8955 14.0488L13.2031 6.88574H13.915C14.1348 6.88574 14.293 6.71875 14.3018 6.50781C14.3105 6.28809 14.1348 6.1123 13.915 6.1123H11.7441V5.38281C11.7441 4.63574 11.2432 4.15234 10.4434 4.15234H8.61523C7.82422 4.15234 7.33203 4.63574 7.33203 5.38281V6.1123H5.15234C4.94141 6.1123 4.76562 6.28809 4.76562 6.50781C4.76562 6.71875 4.94141 6.88574 5.15234 6.88574H5.89062L6.20703 14.0488C6.22461 14.6641 6.58496 15.0068 7.2002 15.0068ZM8.25488 6.1123V5.43555C8.25488 5.19824 8.42188 5.04004 8.66797 5.04004H10.3906C10.6367 5.04004 10.8037 5.19824 10.8037 5.43555V6.1123H8.25488ZM7.98242 13.6006C7.79785 13.6006 7.64844 13.4688 7.64844 13.293L7.46387 8.00195C7.46387 7.80859 7.57812 7.68555 7.79785 7.68555C7.98242 7.68555 8.12305 7.80859 8.12305 8.00195L8.29883 13.293C8.29883 13.4688 8.17578 13.6006 7.98242 13.6006ZM9.5293 13.6006C9.32715 13.6006 9.19531 13.4688 9.19531 13.293V8.00195C9.19531 7.80859 9.31836 7.68555 9.5293 7.68555C9.73145 7.68555 9.86328 7.80859 9.86328 8.00195V13.293C9.86328 13.4688 9.73145 13.6006 9.5293 13.6006ZM11.0674 13.6006C10.874 13.6006 10.751 13.4688 10.751 13.293L10.9268 8.00195C10.9355 7.80859 11.0674 7.68555 11.2607 7.68555C11.4717 7.68555 11.5859 7.80859 11.5859 8.00195L11.4014 13.293C11.4014 13.4688 11.252 13.6006 11.0674 13.6006Z" fill="currentColor"/>
</svg>
