<svg width="16" height="16" viewBox="0 0 16 16" fill="currentColor" xmlns="http://www.w3.org/2000/svg">
<path d="M1.01367 9.5752C0.507812 9.06934 0.252604 8.56803 0.248047 8.07129C0.24349 7.56999 0.491862 7.06641 0.993164 6.56055L6.50293 1.05762C7.00423 0.556315 7.50553 0.307943 8.00684 0.3125C8.50814 0.317057 9.01172 0.572266 9.51758 1.07812L14.9863 6.54688C15.4922 7.05273 15.7474 7.55859 15.752 8.06445C15.7565 8.56576 15.5081 9.06478 15.0068 9.56152L9.50391 15.0713C9.0026 15.5726 8.5013 15.821 8 15.8164C7.4987 15.8118 6.99512 15.5566 6.48926 15.0508L1.01367 9.5752ZM4.94434 10.0605C4.94434 10.2656 4.99219 10.4251 5.08789 10.5391C5.18815 10.6484 5.32943 10.7031 5.51172 10.7031C5.68945 10.6986 5.82845 10.6416 5.92871 10.5322C6.02897 10.4229 6.0791 10.2656 6.0791 10.0605V8.31738C6.0791 8.00293 6.1543 7.77051 6.30469 7.62012C6.45964 7.46517 6.6875 7.3877 6.98828 7.3877H8.91602V8.29004C8.91602 8.52246 9.00944 8.67969 9.19629 8.76172C9.38314 8.83919 9.56543 8.80957 9.74316 8.67285L11.4111 7.37402C11.6299 7.20085 11.7393 7.01628 11.7393 6.82031C11.7393 6.61979 11.6299 6.43294 11.4111 6.25977L9.74316 4.96777C9.56543 4.8265 9.38314 4.79688 9.19629 4.87891C9.00944 4.95638 8.91602 5.10905 8.91602 5.33691V6.24609H6.96777C6.28418 6.24609 5.77604 6.41243 5.44336 6.74512C5.11068 7.07324 4.94434 7.5791 4.94434 8.2627V10.0605Z" fill="currentColor"/>
</svg>
