<svg width="19" height="20" viewBox="0 0 19 20" fill="currentColor" xmlns="http://www.w3.org/2000/svg">
<path d="M14.1367 6.42871L5.77832 1.68262L7.5625 0.671875C8.09863 0.364258 8.63477 0.197266 9.16211 0.197266C9.68066 0.197266 10.2168 0.364258 10.7529 0.671875L16.958 4.20508C17.1514 4.31055 17.3096 4.41602 17.4414 4.54785L14.1367 6.42871ZM9.16211 9.25L0.874023 4.54785C1.01465 4.41602 1.17285 4.31055 1.36621 4.20508L4.5918 2.36816L12.915 7.12305L9.16211 9.25ZM9.75977 19.3223V10.3047L18.0039 5.59375C18.0566 5.78711 18.0742 5.99805 18.0742 6.26172V13.1084C18.0742 14.3828 17.6348 14.8574 16.8174 15.3232L9.93555 19.2432C9.87402 19.2783 9.82129 19.3047 9.75977 19.3223ZM8.55566 19.3223C8.49414 19.3047 8.44141 19.2783 8.38867 19.2432L1.49805 15.3232C0.689453 14.8574 0.241211 14.3828 0.241211 13.1084V6.26172C0.241211 5.99805 0.258789 5.78711 0.311523 5.59375L8.55566 10.3047V19.3223Z" fill="currentColor"/>
</svg>
