<svg width="16" height="22" viewBox="0 0 16 22" fill="currentColor" xmlns="http://www.w3.org/2000/svg">
<path d="M15.4023 11.9062C15.4023 12.1406 15.3145 12.3522 15.1387 12.541L8.6543 19.0352C8.56315 19.1328 8.46224 19.2044 8.35156 19.25C8.24089 19.3021 8.1237 19.3281 8 19.3281C7.88281 19.3281 7.76888 19.3021 7.6582 19.25C7.54753 19.2044 7.44336 19.1328 7.3457 19.0352L0.871094 12.541C0.688802 12.3522 0.597656 12.1406 0.597656 11.9062C0.597656 11.6654 0.675781 11.4635 0.832031 11.3008C0.994792 11.138 1.19661 11.0566 1.4375 11.0566C1.55469 11.0566 1.66536 11.0762 1.76953 11.1152C1.88021 11.1543 1.97461 11.2129 2.05273 11.291L4.2793 13.4785L7.78516 17.3164L7.22852 17.5117L7.13086 14.6016V1.73047C7.13086 1.48307 7.21224 1.27799 7.375 1.11523C7.53776 0.952474 7.74609 0.871094 8 0.871094C8.25391 0.871094 8.46224 0.952474 8.625 1.11523C8.78776 1.27799 8.86914 1.48307 8.86914 1.73047V14.6016L8.77148 17.5117L8.22461 17.3164L11.7207 13.4785L13.9473 11.291C14.0254 11.2129 14.1165 11.1543 14.2207 11.1152C14.3314 11.0762 14.4453 11.0566 14.5625 11.0566C14.8034 11.0566 15.002 11.138 15.1582 11.3008C15.321 11.4635 15.4023 11.6654 15.4023 11.9062ZM15.4023 20.1973C15.4023 20.4512 15.3242 20.6595 15.168 20.8223C15.0117 20.9915 14.8099 21.0762 14.5625 21.0762H1.45703C1.20312 21.0762 0.994792 20.9915 0.832031 20.8223C0.675781 20.6595 0.597656 20.4512 0.597656 20.1973C0.597656 19.9434 0.675781 19.735 0.832031 19.5723C0.994792 19.4095 1.20312 19.3281 1.45703 19.3281H14.5625C14.8099 19.3281 15.0117 19.4095 15.168 19.5723C15.3242 19.735 15.4023 19.9434 15.4023 20.1973Z" fill="currentColor"/>
</svg>
