<svg width="20" height="20" viewBox="0 0 20 20" fill="currentColor" xmlns="http://www.w3.org/2000/svg">
<path d="M3.57715 19.9297C2.56152 19.9297 1.79655 19.6758 1.28223 19.168C0.767904 18.6667 0.510742 17.9115 0.510742 16.9023V5.65234C0.510742 4.64323 0.767904 3.88802 1.28223 3.38672C1.79655 2.87891 2.56152 2.625 3.57715 2.625H14.6416L13.0693 4.19727H3.60645C3.11816 4.19727 2.74056 4.32747 2.47363 4.58789C2.21322 4.84831 2.08301 5.23242 2.08301 5.74023V16.8242C2.08301 17.332 2.21322 17.7161 2.47363 17.9766C2.74056 18.2305 3.11816 18.3574 3.60645 18.3574H15.0225C15.361 18.3574 15.6475 18.2305 15.8818 17.9766C16.1227 17.7161 16.2432 17.332 16.2432 16.8242V7.44922L17.8154 5.87695V16.9023C17.8154 17.9115 17.5713 18.6667 17.083 19.168C16.6012 19.6758 15.9209 19.9297 15.042 19.9297H3.57715ZM7.13184 13.6016C7.04069 13.6406 6.95605 13.6211 6.87793 13.543C6.80632 13.4583 6.79004 13.3737 6.8291 13.2891L7.70801 11.4531L16.8193 2.3418L18.1572 3.66016L9.03613 12.7715L7.13184 13.6016ZM18.8799 2.94727L17.542 1.59961L18.2549 0.896484C18.4176 0.740234 18.6032 0.655599 18.8115 0.642578C19.0264 0.629557 19.2087 0.697917 19.3584 0.847656L19.583 1.08203C19.7523 1.24479 19.8337 1.43359 19.8271 1.64844C19.8271 1.85677 19.7458 2.04883 19.583 2.22461L18.8799 2.94727Z" fill="currentColor"/>
</svg>
