<svg width="19" height="19" viewBox="0 0 19 19" fill="currentColor" xmlns="http://www.w3.org/2000/svg">
    <path d="M5.22266 9.72314C5.22266 9.59294 5.27799 9.46273 5.38867 9.33252L10.7402 2.61377C10.877 2.4445 11.0267 2.36312 11.1895 2.36963C11.3522 2.37614 11.4759 2.4445 11.5605 2.57471C11.6517 2.70492 11.6582 2.87419 11.5801 3.08252L9.82227 7.82861H13.123C13.2467 7.82861 13.3509 7.86768 13.4355 7.9458C13.5267 8.02393 13.5723 8.12484 13.5723 8.24854C13.5723 8.37874 13.5202 8.5057 13.416 8.62939L8.05469 15.3481C7.91797 15.5174 7.76823 15.6021 7.60547 15.6021C7.44922 15.5955 7.32552 15.5272 7.23438 15.397C7.14323 15.2668 7.13672 15.0975 7.21484 14.8892L8.98242 10.1431H5.67188C5.54818 10.1431 5.44076 10.104 5.34961 10.0259C5.26497 9.94775 5.22266 9.84684 5.22266 9.72314ZM3.57227 18.0532C2.55013 18.0532 1.7819 17.7993 1.26758 17.2915C0.759766 16.7902 0.505859 16.035 0.505859 15.0259V3.10205C0.505859 2.09294 0.759766 1.33773 1.26758 0.836426C1.7819 0.328613 2.55013 0.074707 3.57227 0.074707H15.418C16.4401 0.074707 17.2051 0.328613 17.7129 0.836426C18.2272 1.33773 18.4844 2.09294 18.4844 3.10205V15.0259C18.4844 16.035 18.2272 16.7902 17.7129 17.2915C17.2051 17.7993 16.4401 18.0532 15.418 18.0532H3.57227ZM3.5918 16.481H15.3984C15.8802 16.481 16.2513 16.354 16.5117 16.1001C16.7786 15.8397 16.9121 15.4556 16.9121 14.9478V3.18018C16.9121 2.67236 16.7786 2.2915 16.5117 2.0376C16.2513 1.77718 15.8802 1.64697 15.3984 1.64697H3.5918C3.10352 1.64697 2.72917 1.77718 2.46875 2.0376C2.20833 2.2915 2.07812 2.67236 2.07812 3.18018V14.9478C2.07812 15.4556 2.20833 15.8397 2.46875 16.1001C2.72917 16.354 3.10352 16.481 3.5918 16.481Z" fill="currentColor"/>
</svg>
