<svg width="18" height="14" viewBox="0 0 18 14" fill="currentColor" xmlns="http://www.w3.org/2000/svg">
<path d="M8.68225 7.77344C8.36454 7.77344 8.04423 7.60938 7.72131 7.28125L0.885376 0.523438C1.14058 0.268229 1.59892 0.140625 2.26038 0.140625H14.8385C15.6145 0.140625 16.1484 0.278646 16.4401 0.554688L9.64319 7.28125C9.31506 7.60938 8.99475 7.77344 8.68225 7.77344ZM0.236938 12.3438C0.10673 12.1198 0.041626 11.7318 0.041626 11.1797V2.55469C0.041626 2.02344 0.101522 1.64583 0.221313 1.42188L5.76038 6.88281L0.236938 12.3438ZM2.49475 13.6016C1.74996 13.6016 1.22913 13.474 0.932251 13.2188L6.54944 7.64844L7.07288 8.17188C7.59371 8.67188 8.13017 8.92188 8.68225 8.92188C9.22913 8.92188 9.76558 8.67188 10.2916 8.17188L10.8073 7.64844L16.4401 13.2266C16.1796 13.4766 15.7239 13.6016 15.0729 13.6016H2.49475ZM17.1041 12.3359L11.5963 6.88281L17.1198 1.44531C17.2343 1.65885 17.2916 2.02865 17.2916 2.55469V11.1797C17.2916 11.7214 17.2291 12.1068 17.1041 12.3359Z" fill="currentColor"/>
</svg>
