<svg width="18" height="14" viewBox="0 0 18 14" fill="currentColor" xmlns="http://www.w3.org/2000/svg">
<path d="M3.08691 13.3604C2.37142 13.3604 1.83366 13.1826 1.47363 12.8271C1.11816 12.4762 0.94043 11.9499 0.94043 11.248V2.89453C0.94043 2.18815 1.11816 1.65951 1.47363 1.30859C1.83366 0.953125 2.37142 0.775391 3.08691 0.775391H14.9131C15.6331 0.775391 16.1709 0.953125 16.5264 1.30859C16.8818 1.66406 17.0596 2.19271 17.0596 2.89453V11.248C17.0596 11.9499 16.8818 12.4762 16.5264 12.8271C16.1709 13.1826 15.6331 13.3604 14.9131 13.3604H3.08691ZM3.10059 12.2598H14.8994C15.2367 12.2598 15.4964 12.1709 15.6787 11.9932C15.8656 11.8109 15.959 11.542 15.959 11.1865V2.95605C15.959 2.60059 15.8656 2.33171 15.6787 2.14941C15.4964 1.96712 15.2367 1.87598 14.8994 1.87598H3.10059C2.75879 1.87598 2.49674 1.96712 2.31445 2.14941C2.13216 2.33171 2.04102 2.60059 2.04102 2.95605V11.1865C2.04102 11.542 2.13216 11.8109 2.31445 11.9932C2.49674 12.1709 2.75879 12.2598 3.10059 12.2598Z" fill="currentColor"/>
</svg>
