<svg width="23" height="21" viewBox="0 0 23 21" fill="currentColor" xmlns="http://www.w3.org/2000/svg">
<path d="M8.15815 10.8C6.41152 9.74788 5.33725 7.85832 5.33725 5.81586C5.33725 2.60547 7.94374 0 11.1531 0C11.4946 0 11.7718 0.277186 11.7718 0.618656V8.87164C12.5727 9.02589 13.2684 9.47388 13.7431 10.0993C15.4038 9.17995 17.8553 9.07425 19.4694 10.1504C22.2448 11.7528 23.1994 15.3143 21.5971 18.0903C21.4279 18.3852 21.0508 18.487 20.7563 18.3178L13.6082 14.191C13.0962 14.7807 12.3752 15.1841 11.5602 15.286C11.5231 17.302 10.4101 19.2393 8.63925 20.2277C5.86026 21.8225 2.31145 20.8683 0.709464 18.0931C0.532184 17.788 0.643191 17.3889 0.971737 17.2275L8.08123 13.123C7.96642 12.7903 7.90395 12.4334 7.90395 12.0619C7.90395 11.6143 7.99425 11.1881 8.15778 10.8003L8.15815 10.8ZM14.3324 11.1815C14.4242 11.5129 14.4648 11.8578 14.4499 12.2033C14.4361 12.5209 14.3766 12.8395 14.2683 13.1487L20.8018 16.9207C21.6693 14.8063 20.8306 12.3582 18.852 11.2164C17.4535 10.4096 15.7417 10.399 14.3324 11.1816L14.3324 11.1815ZM10.3237 15.2558C9.67459 15.085 9.09241 14.7265 8.65482 14.2167L2.12258 17.9882C3.50983 19.7842 6.02373 20.2912 8.00164 19.1696C9.43147 18.2233 10.2945 17.0313 10.324 15.2559L10.3237 15.2558ZM8.80145 9.74873C9.04268 9.50353 9.32217 9.29592 9.6295 9.13555C9.91116 8.98859 10.2152 8.8809 10.5345 8.81943V1.27858C8.27144 1.58327 6.57418 3.52175 6.57418 5.81607C6.57418 7.43426 7.41551 8.91796 8.80145 9.74869V9.74873Z" fill="currentColor"/>
</svg>
