<svg width="23" height="21" viewBox="0 0 23 21" fill="currentColor" xmlns="http://www.w3.org/2000/svg">
<path d="M19.621 2.62827V3.9309H15.8082V2.62827C15.8082 2.56264 15.8279 2.5003 15.8673 2.44452L17.4423 0.141091C17.5669 -0.0360955 17.8623 -0.0360955 17.9837 0.141091L19.5619 2.44452C19.6013 2.5003 19.621 2.56264 19.621 2.62827Z" fill="currentColor"/>
<path d="M15.8082 8.80035H19.621V14.4931H15.8082V8.80035Z" fill="currentColor"/>
<path d="M15.8082 19.3627H19.621V20.6719C19.621 20.8523 19.4733 21 19.2929 21H16.1363C15.9558 21 15.8082 20.8523 15.8082 20.6719L15.8082 19.3627Z" fill="currentColor"/>
<path d="M7.19145 2.62827V3.9309H3.37867V2.62827C3.37867 2.56264 3.39836 2.5003 3.43774 2.44452L5.01601 0.141091C5.07507 0.0524997 5.17679 0 5.28507 0C5.39335 0 5.49507 0.0524997 5.55741 0.141091L7.1324 2.44452C7.17178 2.5003 7.19145 2.56264 7.19145 2.62827Z" fill="currentColor"/>
<path d="M3.37867 8.80035H7.19145V14.4931H3.37867V8.80035Z" fill="currentColor"/>
<path d="M3.37868 19.3627H7.19145V20.6719C7.19145 20.8523 7.0438 21 6.86333 21H3.70679C3.52632 21 3.37867 20.8523 3.37867 20.6719L3.37868 19.3627Z" fill="currentColor"/>
<path d="M13.4062 2.62827V3.9309H9.59344V2.62827C9.59344 2.56264 9.61313 2.5003 9.6525 2.44452L11.2275 0.141091C11.3522 -0.0360955 11.6475 -0.0360955 11.7722 0.141091L13.3472 2.44452C13.3865 2.5003 13.4062 2.56264 13.4062 2.62827Z" fill="currentColor"/>
<path d="M9.59344 8.80035H13.4062V14.4931H9.59344V8.80035Z" fill="currentColor"/>
<path d="M9.59344 19.3627H13.4062V20.6719C13.4062 20.8523 13.2586 21 13.0781 21H9.92156C9.74109 21 9.59343 20.8523 9.59343 20.6719L9.59344 19.3627Z" fill="currentColor"/>
<path d="M21.931 6.00157V6.73C21.931 7.50764 21.2944 8.14419 20.5168 8.14419H2.48328C1.70565 8.14419 1.06909 7.50764 1.06909 6.73V6.00157C1.06909 5.22065 1.70565 4.58738 2.48328 4.58738H20.5168C21.2944 4.58738 21.931 5.22065 21.931 6.00157Z" fill="currentColor"/>
<path d="M21.931 16.5635V17.2919C21.931 18.0696 21.2944 18.7061 20.5168 18.7061H2.48328C1.70565 18.7061 1.06909 18.0696 1.06909 17.2919V16.5635C1.06909 15.7826 1.70565 15.1493 2.48328 15.1493H20.5168C21.2944 15.1493 21.931 15.7826 21.931 16.5635Z" fill="currentColor"/>
</svg>
