<svg width="21" height="12" viewBox="0 0 21 12" fill="currentColor" xmlns="http://www.w3.org/2000/svg">
<path d="M5.46094 11.7598C5.23958 11.7598 5.05404 11.6849 4.9043 11.5352C4.75456 11.3854 4.67969 11.1999 4.67969 10.9785C4.67969 10.7572 4.75456 10.5716 4.9043 10.4219C5.05404 10.2656 5.23958 10.1875 5.46094 10.1875H15.5781C15.7995 10.1875 15.985 10.2656 16.1348 10.4219C16.291 10.5716 16.3691 10.7572 16.3691 10.9785C16.3691 11.1999 16.291 11.3854 16.1348 11.5352C15.985 11.6849 15.7995 11.7598 15.5781 11.7598H5.46094ZM3.45898 6.73047C3.23763 6.73047 3.04883 6.6556 2.89258 6.50586C2.74284 6.35612 2.66797 6.17057 2.66797 5.94922C2.66797 5.72786 2.74284 5.54232 2.89258 5.39258C3.04883 5.23633 3.23763 5.1582 3.45898 5.1582H17.5898C17.8047 5.1582 17.987 5.23633 18.1367 5.39258C18.293 5.54232 18.3711 5.72786 18.3711 5.94922C18.3711 6.17057 18.293 6.35612 18.1367 6.50586C17.987 6.6556 17.8047 6.73047 17.5898 6.73047H3.45898ZM1.39844 1.70117C1.18359 1.70117 0.998047 1.6263 0.841797 1.47656C0.692057 1.32682 0.617188 1.14128 0.617188 0.919922C0.617188 0.698568 0.692057 0.513021 0.841797 0.363281C0.998047 0.207031 1.18359 0.128906 1.39844 0.128906H19.5918C19.8132 0.128906 19.9987 0.207031 20.1484 0.363281C20.2982 0.513021 20.373 0.698568 20.373 0.919922C20.373 1.14128 20.2982 1.32682 20.1484 1.47656C19.9987 1.6263 19.8132 1.70117 19.5918 1.70117H1.39844Z" fill="currentColor"/>
</svg>
