<svg width="18" height="20" viewBox="0 0 18 20" fill="currentColor" xmlns="http://www.w3.org/2000/svg">
<path d="M1.06836 19.239C0.866536 19.239 0.690755 19.1641 0.541016 19.0144C0.397786 18.8712 0.326172 18.7019 0.326172 18.5066V2.27612C0.326172 1.83341 0.427083 1.4786 0.628906 1.21167C0.83724 0.938232 1.10742 0.726644 1.43945 0.576904C1.68685 0.466227 1.93099 0.375081 2.17188 0.303467C2.41276 0.225342 2.69596 0.170003 3.02148 0.137451C3.35352 0.0983887 3.77344 0.0788574 4.28125 0.0788574C5.1862 0.0788574 6.01953 0.166748 6.78125 0.342529C7.54948 0.518311 8.29167 0.723389 9.00781 0.957764C9.72396 1.19214 10.4531 1.40047 11.1953 1.58276C11.9375 1.75854 12.7383 1.84644 13.5977 1.84644C14.4375 1.84644 15.0951 1.77808 15.5703 1.64136C16.0521 1.50464 16.4134 1.43628 16.6543 1.43628C16.9408 1.43628 17.1816 1.50789 17.377 1.65112C17.5723 1.79435 17.6699 1.99943 17.6699 2.26636V12.1785C17.6699 12.6277 17.569 12.989 17.3672 13.2625C17.1654 13.5294 16.8952 13.7377 16.5566 13.8875C16.3092 13.9981 16.0651 14.0925 15.8242 14.1707C15.5833 14.2423 15.3001 14.2976 14.9746 14.3367C14.6491 14.3692 14.2324 14.3855 13.7246 14.3855C12.8652 14.3855 12.0645 14.2976 11.3223 14.1218C10.5801 13.9395 9.85091 13.7345 9.13477 13.5066C8.41862 13.2722 7.67643 13.0671 6.9082 12.8914C6.14648 12.7091 5.31315 12.6179 4.4082 12.6179C3.69206 12.6179 3.10938 12.683 2.66016 12.8132C2.21745 12.9369 1.93424 13.0248 1.81055 13.0769V18.5066C1.81055 18.7084 1.73893 18.8809 1.5957 19.0242C1.45247 19.1674 1.27669 19.239 1.06836 19.239ZM1.81055 8.61401C1.87565 8.45125 2.11328 8.28198 2.52344 8.1062C2.93359 7.93042 3.51953 7.84253 4.28125 7.84253C4.51562 7.84253 4.70768 7.84904 4.85742 7.86206C5.00716 7.86857 5.17643 7.88159 5.36523 7.90112V11.1726C6.04883 11.2312 6.6901 11.3354 7.28906 11.4851C7.88802 11.6348 8.4707 11.7944 9.03711 11.9636V8.77026C9.45378 8.90698 9.85742 9.02743 10.248 9.13159C10.6452 9.22925 11.0423 9.31714 11.4395 9.39526C11.8431 9.46688 12.263 9.52547 12.6992 9.57104V12.8523C12.8685 12.8718 13.0378 12.8881 13.207 12.9011C13.3763 12.9076 13.5488 12.9109 13.7246 12.9109C14.4863 12.9109 15.0723 12.823 15.4824 12.6472C15.8926 12.4714 16.1302 12.3022 16.1953 12.1394V9.29761C15.8698 9.38875 15.4889 9.46362 15.0527 9.52222C14.6165 9.58081 14.1315 9.61011 13.5977 9.61011C13.4219 9.61011 13.2624 9.60685 13.1191 9.60034C12.9824 9.59383 12.8424 9.58407 12.6992 9.57104V6.2605C12.8424 6.26701 12.9889 6.27677 13.1387 6.28979C13.2949 6.29631 13.4479 6.29956 13.5977 6.29956C14.1836 6.29956 14.7012 6.26375 15.1504 6.19214C15.6061 6.12052 15.9544 6.05216 16.1953 5.98706V3.00854C15.8698 3.09969 15.4889 3.17456 15.0527 3.23315C14.6165 3.29175 14.1315 3.32104 13.5977 3.32104C13.4414 3.32104 13.2884 3.31779 13.1387 3.31128C12.9889 3.30477 12.8424 3.295 12.6992 3.28198V6.2605C12.0417 6.2019 11.4167 6.10099 10.8242 5.95776C10.2383 5.81453 9.64258 5.64852 9.03711 5.45972V2.4812C8.43815 2.30542 7.83919 2.13615 7.24023 1.97339C6.64779 1.80412 6.02279 1.68368 5.36523 1.61206V4.59058C5.19596 4.57104 5.01042 4.55802 4.80859 4.55151C4.61328 4.53849 4.4375 4.53198 4.28125 4.53198C3.51953 4.53198 2.93359 4.61987 2.52344 4.79565C2.11328 4.97144 1.87565 5.14071 1.81055 5.30347V8.61401ZM5.36523 7.90112V4.59058C6.04232 4.65568 6.67057 4.77287 7.25 4.94214C7.82943 5.1049 8.42513 5.27743 9.03711 5.45972V8.77026C8.38607 8.58146 7.7806 8.40894 7.2207 8.25269C6.66081 8.09644 6.04232 7.97925 5.36523 7.90112Z" fill="currentColor"/>
</svg>
