<svg width="19" height="20" viewBox="0 0 19 20" fill="currentColor" xmlns="http://www.w3.org/2000/svg">
<path d="M9.17969 11.2363C8.81934 11.2363 8.48535 11.1221 8.05469 10.876L1.18164 6.88574C0.469727 6.47266 0.197266 6.14746 0.197266 5.66406C0.197266 5.18945 0.469727 4.86426 1.18164 4.45117L8.05469 0.460938C8.48535 0.214844 8.81934 0.100586 9.17969 0.100586C9.53125 0.100586 9.87402 0.214844 10.2959 0.460938L17.1689 4.45117C17.8809 4.86426 18.1533 5.18945 18.1533 5.66406C18.1533 6.14746 17.8809 6.47266 17.1689 6.88574L10.2959 10.876C9.87402 11.1221 9.53125 11.2363 9.17969 11.2363ZM9.17969 15.5693C8.85449 15.5693 8.59082 15.4199 8.21289 15.2002L0.671875 10.7441C0.34668 10.5508 0.188477 10.252 0.188477 9.97949C0.188477 9.61914 0.452148 9.32031 0.698242 9.20605L8.83691 13.9082C8.96875 13.9785 9.07422 14.0312 9.17969 14.0312C9.27637 14.0312 9.38184 13.9785 9.51367 13.9082L17.6523 9.20605C17.8984 9.32031 18.1621 9.61914 18.1621 9.97949C18.1621 10.252 18.0127 10.542 17.6875 10.7441L10.1377 15.2002C9.76855 15.4199 9.49609 15.5693 9.17969 15.5693ZM9.17969 19.6123C8.85449 19.6123 8.59082 19.4629 8.21289 19.2432L0.671875 14.7871C0.34668 14.6025 0.188477 14.2949 0.188477 14.0225C0.188477 13.6621 0.452148 13.3721 0.698242 13.249L8.83691 17.96C8.96875 18.0303 9.07422 18.083 9.17969 18.083C9.27637 18.083 9.38184 18.0303 9.51367 17.96L17.6523 13.249C17.8984 13.3721 18.1621 13.6621 18.1621 14.0225C18.1621 14.2949 18.0039 14.6025 17.6875 14.7871L10.1377 19.2432C9.76855 19.4629 9.49609 19.6123 9.17969 19.6123Z" fill="currentColor"/>
</svg>
