<svg width="23" height="21" viewBox="0 0 23 21" fill="currentColor" xmlns="http://www.w3.org/2000/svg">
<path d="M16.8262 20.294H1.80976V2.39086C1.80976 1.619 2.05412 1.02913 2.54283 0.621246C3.03918 0.207082 3.75697 0 4.69622 0H13.9283C14.8599 0 15.5739 0.207082 16.0702 0.621246C16.5742 1.02913 16.8262 1.619 16.8262 2.39086V20.294ZM5.0742 9.82698H13.5503C13.9703 9.82698 14.2986 9.73913 14.5354 9.56342C14.7797 9.38144 14.9019 9.13357 14.9019 8.81981V2.60735C14.9019 2.29359 14.7797 2.04572 14.5354 1.86374C14.2986 1.68176 13.9703 1.59077 13.5503 1.59077H5.0742C4.65422 1.59077 4.32586 1.68176 4.08914 1.86374C3.85242 2.04572 3.73406 2.29359 3.73406 2.60735V8.81981C3.73406 9.13357 3.85242 9.38144 4.08914 9.56342C4.32586 9.73913 4.65422 9.82698 5.0742 9.82698ZM0 20.2281C0 20.0211 0.0878154 19.8454 0.263446 19.701C0.446713 19.5567 0.660525 19.4845 0.904881 19.4845H17.7082C17.9602 19.4845 18.1778 19.5567 18.3611 19.701C18.5443 19.8516 18.636 20.0273 18.636 20.2281C18.636 20.4415 18.5443 20.6235 18.3611 20.7741C18.1778 20.9247 17.9602 21 17.7082 21H0.904881C0.652888 21 0.439077 20.9247 0.263446 20.7741C0.0878154 20.6235 0 20.4415 0 20.2281ZM15.9442 12.3967V11.0695H16.9407C17.712 11.0695 18.3152 11.2483 18.7505 11.606C19.1934 11.9574 19.4148 12.4594 19.4148 13.1121V16.2277C19.4148 16.485 19.5027 16.6858 19.6783 16.8301C19.8539 16.9745 20.0983 17.0466 20.4114 17.0466C20.7092 17.0466 20.9459 16.9745 21.1215 16.8301C21.2971 16.6858 21.385 16.485 21.385 16.2277V9.33752L19.4607 7.50202C18.9261 6.98745 18.8956 6.46033 19.369 5.92066L20.8695 4.19812C21.0146 4.01614 21.0222 3.83729 20.8924 3.66159L19.5523 1.87315C19.4072 1.67862 19.3652 1.49978 19.4263 1.33662C19.495 1.16719 19.6172 1.03855 19.7928 0.950695C19.9761 0.856567 20.1708 0.82519 20.377 0.856567C20.5908 0.881667 20.7703 0.988346 20.9153 1.1766L22.4846 3.26625C22.6526 3.48588 22.7786 3.70865 22.8626 3.93456C22.9542 4.16047 23 4.41461 23 4.697V16.2277C23 16.8991 22.7709 17.4231 22.3127 17.7996C21.8546 18.1824 21.2208 18.3738 20.4114 18.3738C19.5943 18.3738 18.9529 18.1824 18.4871 17.7996C18.0289 17.4231 17.7998 16.8991 17.7998 16.2277V13.1121C17.7998 12.8799 17.7196 12.7042 17.5593 12.5849C17.4065 12.4594 17.2004 12.3967 16.9407 12.3967H15.9442Z" fill="currentColor"/>
</svg>
