<svg width="455" height="116" viewBox="0 0 455 116" fill="none" xmlns="http://www.w3.org/2000/svg">
<g clip-path="url(#clip0_321_27425)">
<path d="M0 116C0 116 56.8238 106.508 93.0843 107.809V39.4597L74.3023 31.3931L54.3597 44.5215V99.1542L57.3638 97.9647V47.1732L71.4347 37.5763V100.393C71.4347 100.393 26.3357 103.064 0 116Z" fill="black"/>
<path d="M208.166 115.758C208.166 115.758 142.305 106.267 102.239 107.809V7.00102L89.0436 15.6067V34.3545L85.0029 32.2171V13.4692L105.212 0V98.7639H108.657V1.60466L114.486 4.45463V50.4383L110.861 53.1705V99.2162C110.861 99.2162 128.141 99.0798 131.579 99.7056V47.7122L118.172 56.3179V95.9511H114.368V54.4778L134.161 41.4547L153.421 49.0195V101.973C153.421 101.973 187.36 105.92 208.166 115.771V115.758Z" fill="black"/>
<path d="M117.843 5.2229V48.7407L124.261 44.379V7.71353L117.843 5.2229Z" fill="black"/>
<path d="M170.31 50.8844C167.827 48.7097 167.169 45.8783 167.169 43.4249C167.169 41.7025 167.703 38.7224 170.136 36.492C171.961 34.8254 174.369 33.8093 178.143 33.8093C179.714 33.8093 180.651 33.9085 181.818 34.0633C182.78 34.1873 183.593 34.4165 184.35 34.4908C184.629 34.5156 184.729 34.6457 184.729 34.7944C184.729 34.9989 184.654 35.3025 184.605 36.1884C184.555 37.0248 184.58 38.4126 184.53 38.9207C184.505 39.2986 184.456 39.5031 184.226 39.5031C184.021 39.5031 183.971 39.2986 183.971 38.9455C183.947 38.1586 183.618 37.2789 182.985 36.6159C182.147 35.73 180.173 35.0484 177.839 35.0484C175.636 35.0484 174.189 35.606 173.072 36.6159C171.223 38.3135 170.738 40.7174 170.738 43.1647C170.738 49.1868 175.325 52.173 178.72 52.173C180.973 52.173 182.345 51.919 183.357 50.7543C183.785 50.271 184.114 49.5399 184.22 49.0877C184.294 48.6849 184.344 48.5796 184.549 48.5796C184.729 48.5796 184.778 48.7593 184.778 48.9575C184.778 49.2611 184.474 51.4606 184.22 52.3217C184.096 52.7492 183.99 52.8793 183.562 53.0528C182.55 53.4555 180.62 53.6352 179 53.6352C175.53 53.6352 172.613 52.8732 170.31 50.8782V50.8844Z" fill="black"/>
<path d="M187.454 43.7285C187.454 39.404 190.315 33.8156 197.918 33.8156C204.231 33.8156 208.153 37.4833 208.153 43.2762C208.153 49.0691 204.1 53.6476 197.664 53.6476C190.389 53.6476 187.454 48.2079 187.454 43.7347V43.7285ZM204.609 44.2117C204.609 38.5428 201.338 35.0299 197.186 35.0299C194.275 35.0299 190.954 36.6469 190.954 42.9478C190.954 48.2079 193.865 52.3837 198.731 52.3837C200.507 52.3837 204.609 51.5225 204.609 44.2117Z" fill="black"/>
<path d="M212.324 52.9848C211.921 52.8051 211.84 52.6812 211.84 52.1236C211.84 50.7296 211.94 49.2116 211.964 48.8089C211.989 48.431 212.064 48.1522 212.269 48.1522C212.498 48.1522 212.523 48.3814 212.523 48.5797C212.523 48.9081 212.622 49.4409 212.753 49.8684C213.311 51.7394 214.807 52.421 216.378 52.421C218.655 52.421 219.773 50.8783 219.773 49.54C219.773 48.3009 219.394 47.1361 217.29 45.4943L216.123 44.5835C213.336 42.4089 212.374 40.637 212.374 38.5862C212.374 35.8044 214.708 33.8032 218.227 33.8032C219.872 33.8032 220.94 34.0572 221.598 34.2307C221.827 34.2803 221.951 34.3546 221.951 34.5343C221.951 34.8627 221.852 35.5937 221.852 37.5701C221.852 38.1277 221.778 38.326 221.573 38.326C221.393 38.326 221.318 38.1773 221.318 37.8737C221.318 37.6445 221.194 36.8638 220.66 36.2071C220.282 35.73 219.543 34.968 217.898 34.968C216.024 34.968 214.882 36.0522 214.882 37.5701C214.882 38.7349 215.465 39.6209 217.569 41.2131L218.277 41.746C221.343 44.0507 222.435 45.7917 222.435 48.1956C222.435 49.6639 221.877 51.4049 220.052 52.5944C218.786 53.4061 217.364 53.6353 216.024 53.6353C214.553 53.6353 213.411 53.4556 212.324 52.9786V52.9848Z" fill="black"/>
<path d="M231.839 35.5814L228.065 35.6805C226.594 35.73 225.986 35.854 225.607 36.4116C225.353 36.7895 225.229 37.0931 225.179 37.2975C225.129 37.502 225.055 37.6011 224.9 37.6011C224.726 37.6011 224.67 37.4772 224.67 37.1984C224.67 36.7957 225.154 34.4909 225.204 34.2865C225.278 33.9581 225.359 33.8032 225.508 33.8032C225.713 33.8032 225.961 34.0572 226.594 34.1068C227.326 34.1812 228.295 34.2307 229.126 34.2307H239.163C239.976 34.2307 240.528 34.1564 240.913 34.1068C241.292 34.0325 241.497 33.9829 241.596 33.9829C241.77 33.9829 241.801 34.1378 241.801 34.5157C241.801 35.0485 241.726 36.7895 241.726 37.4524C241.702 37.7064 241.652 37.8551 241.497 37.8551C241.292 37.8551 241.242 37.7312 241.217 37.3471L241.193 37.0683C241.143 36.4116 240.46 35.7053 238.201 35.6495L235.011 35.5752V45.9466C235.011 48.2761 235.011 50.2711 235.135 51.3615C235.209 52.0678 235.364 52.6254 236.122 52.7245C236.475 52.7741 237.034 52.8237 237.413 52.8237C237.692 52.8237 237.816 52.898 237.816 53.0281C237.816 53.2078 237.611 53.2822 237.332 53.2822C235.662 53.2822 234.061 53.2078 233.353 53.2078C232.77 53.2078 231.175 53.2822 230.163 53.2822C229.834 53.2822 229.654 53.2078 229.654 53.0281C229.654 52.9042 229.753 52.8237 230.057 52.8237C230.436 52.8237 230.74 52.7741 230.97 52.7245C231.479 52.6254 231.628 52.0678 231.702 51.3305C231.826 50.2711 231.826 48.2699 231.826 45.9404V35.569L231.839 35.5814Z" fill="black"/>
<path d="M252.681 52.9848C252.278 52.8051 252.197 52.6812 252.197 52.1236C252.197 50.7296 252.297 49.2116 252.321 48.8089C252.346 48.431 252.421 48.1522 252.626 48.1522C252.855 48.1522 252.88 48.3814 252.88 48.5797C252.88 48.9081 252.979 49.4409 253.11 49.8684C253.668 51.7394 255.164 52.421 256.734 52.421C259.012 52.421 260.13 50.8783 260.13 49.54C260.13 48.3009 259.751 47.1361 257.647 45.4943L256.48 44.5835C253.693 42.4089 252.731 40.637 252.731 38.5862C252.731 35.8044 255.065 33.8032 258.584 33.8032C260.229 33.8032 261.297 34.0572 261.954 34.2307C262.184 34.2803 262.308 34.3546 262.308 34.5343C262.308 34.8627 262.209 35.5937 262.209 37.5701C262.209 38.1277 262.134 38.326 261.93 38.326C261.75 38.326 261.675 38.1773 261.675 37.8737C261.675 37.6445 261.551 36.8638 261.017 36.2071C260.639 35.73 259.9 34.968 258.255 34.968C256.381 34.968 255.239 36.0522 255.239 37.5701C255.239 38.7349 255.822 39.6209 257.926 41.2131L258.634 41.746C261.7 44.0507 262.792 45.7917 262.792 48.1956C262.792 49.6639 262.234 51.4049 260.409 52.5944C259.143 53.4061 257.721 53.6353 256.381 53.6353C254.91 53.6353 253.768 53.4556 252.681 52.9786V52.9848Z" fill="black"/>
<path d="M268.832 41.5043C268.832 37.6568 268.832 36.9505 268.782 36.1451C268.732 35.2839 268.528 34.8812 267.69 34.7015C267.485 34.652 267.056 34.6272 266.703 34.6272C266.423 34.6272 266.274 34.5776 266.274 34.398C266.274 34.2183 266.454 34.1687 266.833 34.1687C267.516 34.1687 268.254 34.1935 268.887 34.1935C269.545 34.2183 270.129 34.2431 270.483 34.2431C271.296 34.2431 276.336 34.2431 276.82 34.2183C277.304 34.1687 277.707 34.1192 277.906 34.0696C278.03 34.0448 278.185 33.9705 278.31 33.9705C278.434 33.9705 278.465 34.0696 278.465 34.1997C278.465 34.3732 278.341 34.6829 278.26 35.8415C278.235 36.0955 278.185 37.2108 278.136 37.5081C278.111 37.6321 278.061 37.7869 277.881 37.7869C277.701 37.7869 277.652 37.663 277.652 37.4338C277.652 37.2541 277.627 36.8266 277.496 36.523C277.316 36.0646 277.068 35.7672 275.796 35.6123C275.367 35.5627 272.705 35.5132 272.196 35.5132C272.072 35.5132 272.016 35.5875 272.016 35.7672V42.1672C272.016 42.3469 272.041 42.446 272.196 42.446C272.754 42.446 275.665 42.446 276.249 42.3965C276.857 42.3469 277.236 42.2725 277.465 42.0185C277.645 41.8141 277.745 41.6902 277.869 41.6902C277.968 41.6902 278.049 41.7397 278.049 41.8946C278.049 42.0495 277.95 42.4522 277.844 43.7409C277.819 44.2489 277.745 45.2588 277.745 45.4385C277.745 45.6429 277.745 45.9217 277.515 45.9217C277.335 45.9217 277.285 45.8226 277.285 45.6925C277.261 45.4385 277.261 45.1101 277.186 44.7818C277.062 44.2799 276.702 43.8958 275.765 43.7967C275.281 43.7471 272.773 43.7223 272.165 43.7223C272.041 43.7223 272.01 43.8214 272.01 43.9763V45.9713C272.01 46.8325 271.985 49.162 272.01 49.8931C272.059 51.6403 272.469 52.0182 275.051 52.0182C275.709 52.0182 276.776 52.0182 277.434 51.7146C278.092 51.411 278.396 50.8782 278.576 49.8436C278.626 49.5648 278.676 49.4656 278.856 49.4656C279.061 49.4656 279.061 49.6701 279.061 49.9241C279.061 50.5065 278.856 52.2289 278.732 52.7307C278.552 53.3874 278.328 53.3874 277.366 53.3874C275.467 53.3874 274.07 53.3379 272.984 53.3131C271.898 53.2635 271.11 53.2387 270.352 53.2387C270.073 53.2387 269.514 53.2387 268.906 53.2635C268.323 53.2635 267.665 53.3131 267.156 53.3131C266.827 53.3131 266.647 53.2387 266.647 53.0591C266.647 52.9352 266.746 52.8546 267.05 52.8546C267.429 52.8546 267.733 52.805 267.963 52.7555C268.472 52.6564 268.596 52.0987 268.695 51.3615C268.819 50.302 268.819 48.3009 268.819 45.9713V41.5229L268.832 41.5043Z" fill="black"/>
<path d="M300.232 51.5969C300.232 52.2784 300.207 52.3342 299.903 52.5077C298.258 53.3689 295.775 53.6477 293.795 53.6477C287.589 53.6477 282.089 50.7109 282.089 43.7347C282.089 39.689 284.193 36.8514 286.496 35.4636C288.929 33.9953 291.189 33.8218 293.311 33.8218C295.062 33.8218 297.29 34.1254 297.799 34.2245C298.333 34.3236 299.22 34.4785 299.804 34.5033C300.108 34.5281 300.158 34.6272 300.158 34.8069C300.158 35.0857 299.978 35.792 299.978 38.9579C299.978 39.3606 299.903 39.4907 299.698 39.4907C299.518 39.4907 299.469 39.3668 299.444 39.1624C299.369 38.58 299.245 37.7684 298.581 37.0621C297.818 36.2504 295.794 35.0857 292.927 35.0857C291.53 35.0857 289.68 35.1848 287.911 36.6532C286.49 37.8427 285.578 39.7386 285.578 42.8488C285.578 48.2885 289.047 52.359 294.398 52.359C295.055 52.359 295.943 52.359 296.551 52.0802C296.93 51.9005 297.035 51.5721 297.035 51.1446V48.7655C297.035 47.5016 297.035 46.5413 297.011 45.7793C296.986 44.9181 296.756 44.5154 295.924 44.3357C295.72 44.2861 295.291 44.2613 294.938 44.2613C294.708 44.2613 294.559 44.2118 294.559 44.0569C294.559 43.8524 294.739 43.8029 295.093 43.8029C296.409 43.8029 298.004 43.8772 298.767 43.8772C299.531 43.8772 300.896 43.8029 301.734 43.8029C302.063 43.8029 302.243 43.8524 302.243 44.0569C302.243 44.2118 302.088 44.2613 301.914 44.2613C301.709 44.2613 301.535 44.2861 301.231 44.3357C300.549 44.4596 300.294 44.8933 300.269 45.7793C300.244 46.5351 300.244 47.5512 300.244 48.8151V51.5969H300.232Z" fill="black"/>
<path d="M307.314 41.5043C307.314 37.6568 307.314 36.9505 307.265 36.1451C307.215 35.2839 307.01 34.8812 306.178 34.7015C305.974 34.652 305.545 34.6272 305.191 34.6272C304.912 34.6272 304.763 34.5776 304.763 34.3979C304.763 34.2183 304.943 34.1687 305.322 34.1687C306.662 34.1687 308.264 34.243 308.791 34.243C309.654 34.243 311.578 34.1687 312.36 34.1687C313.956 34.1687 315.656 34.3174 317.022 35.2529C317.729 35.7362 318.747 37.0249 318.747 38.7163C318.747 40.5873 317.965 42.3097 315.402 44.379C317.655 47.2104 319.405 49.4656 320.901 51.0331C322.322 52.5014 323.359 52.6749 323.738 52.7555C324.017 52.805 324.246 52.8298 324.445 52.8298C324.644 52.8298 324.749 52.9042 324.749 53.0343C324.749 53.2387 324.569 53.2883 324.265 53.2883H321.857C320.435 53.2883 319.809 53.1644 319.144 52.805C318.058 52.2226 317.09 51.0331 315.675 49.0877C314.663 47.6937 313.496 45.9775 313.167 45.5996C313.043 45.4447 312.888 45.4199 312.708 45.4199L310.505 45.3703C310.38 45.3703 310.306 45.4199 310.306 45.5748V45.9279C310.306 48.2822 310.306 50.2772 310.43 51.3429C310.505 52.0801 310.66 52.6316 311.417 52.7369C311.796 52.7864 312.354 52.836 312.658 52.836C312.863 52.836 312.962 52.9104 312.962 53.0405C312.962 53.2201 312.782 53.2945 312.453 53.2945C310.982 53.2945 309.108 53.2201 308.729 53.2201C308.245 53.2201 306.65 53.2945 305.638 53.2945C305.309 53.2945 305.136 53.2201 305.136 53.0405C305.136 52.9165 305.235 52.836 305.539 52.836C305.918 52.836 306.222 52.7864 306.451 52.7369C306.96 52.6378 307.085 52.0801 307.19 51.3429C307.314 50.2834 307.314 48.2822 307.314 45.9527V41.5043ZM310.306 43.5055C310.306 43.7843 310.356 43.8834 310.536 43.9639C311.069 44.1436 311.827 44.2179 312.46 44.2179C313.471 44.2179 313.8 44.1188 314.26 43.7904C315.023 43.2328 315.756 42.0681 315.756 39.9987C315.756 36.4053 313.372 35.3706 311.882 35.3706C311.249 35.3706 310.79 35.3954 310.536 35.4698C310.362 35.5193 310.306 35.6247 310.306 35.8229V43.5116V43.5055Z" fill="black"/>
<path d="M326.456 41.5043C326.456 37.6568 326.456 36.9505 326.407 36.1451C326.357 35.2839 326.152 34.8812 325.32 34.7015C325.116 34.652 324.687 34.6272 324.334 34.6272C324.054 34.6272 323.905 34.5776 323.905 34.398C323.905 34.2183 324.085 34.1687 324.464 34.1687C325.147 34.1687 325.885 34.1935 326.512 34.1935C327.17 34.2183 327.754 34.2431 328.107 34.2431C328.92 34.2431 333.96 34.2431 334.445 34.2183C334.922 34.1687 335.332 34.1192 335.531 34.0696C335.655 34.0448 335.81 33.9705 335.934 33.9705C336.058 33.9705 336.083 34.0696 336.083 34.1997C336.083 34.3732 335.959 34.6829 335.885 35.8415C335.86 36.0955 335.81 37.2108 335.76 37.5081C335.736 37.6321 335.686 37.7869 335.506 37.7869C335.326 37.7869 335.276 37.663 335.276 37.4338C335.276 37.2541 335.251 36.8266 335.121 36.523C334.941 36.0646 334.693 35.7672 333.42 35.6123C332.992 35.5627 330.329 35.5132 329.82 35.5132C329.696 35.5132 329.64 35.5875 329.64 35.7672V42.1672C329.64 42.3469 329.665 42.446 329.82 42.446C330.379 42.446 333.29 42.446 333.873 42.3965C334.482 42.3469 334.86 42.2725 335.09 42.0185C335.27 41.8141 335.369 41.6902 335.494 41.6902C335.593 41.6902 335.673 41.7397 335.673 41.8946C335.673 42.0495 335.574 42.4522 335.469 43.7409C335.444 44.2489 335.369 45.2588 335.369 45.4385C335.369 45.6429 335.369 45.9217 335.14 45.9217C334.96 45.9217 334.91 45.8226 334.91 45.6925C334.885 45.4385 334.885 45.1101 334.811 44.7818C334.687 44.2799 334.333 43.8958 333.389 43.7967C332.905 43.7471 330.398 43.7223 329.789 43.7223C329.665 43.7223 329.634 43.8214 329.634 43.9763V45.9713C329.634 46.8325 329.609 49.162 329.634 49.8931C329.684 51.6403 330.094 52.0182 332.676 52.0182C333.333 52.0182 334.401 52.0182 335.059 51.7146C335.717 51.411 336.021 50.8782 336.201 49.8436C336.251 49.5648 336.3 49.4656 336.48 49.4656C336.685 49.4656 336.685 49.6701 336.685 49.9241C336.685 50.5065 336.48 52.2289 336.356 52.7307C336.176 53.3874 335.953 53.3874 334.991 53.3874C333.091 53.3874 331.695 53.3379 330.609 53.3131C329.523 53.2635 328.734 53.2387 327.977 53.2387C327.698 53.2387 327.139 53.2387 326.531 53.2635C325.947 53.2635 325.289 53.3131 324.78 53.3131C324.451 53.3131 324.278 53.2387 324.278 53.0591C324.278 52.9352 324.377 52.8546 324.681 52.8546C325.06 52.8546 325.364 52.805 325.594 52.7555C326.103 52.6564 326.227 52.0987 326.332 51.3615C326.456 50.302 326.456 48.3009 326.456 45.9713V41.5229V41.5043Z" fill="black"/>
<path d="M357.857 51.5969C357.857 52.2784 357.832 52.3342 357.528 52.5077C355.883 53.3689 353.4 53.6477 351.42 53.6477C345.213 53.6477 339.714 50.7109 339.714 43.7347C339.714 39.689 341.818 36.8514 344.121 35.4636C346.554 33.9953 348.813 33.8218 350.936 33.8218C352.686 33.8218 354.914 34.1254 355.423 34.2245C355.957 34.3236 356.845 34.4785 357.428 34.5033C357.732 34.5281 357.782 34.6272 357.782 34.8069C357.782 35.0857 357.602 35.792 357.602 38.9579C357.602 39.3606 357.528 39.4907 357.323 39.4907C357.143 39.4907 357.093 39.3668 357.068 39.1624C356.994 38.58 356.87 37.7684 356.205 37.0621C355.442 36.2504 353.419 35.0857 350.551 35.0857C349.155 35.0857 347.305 35.1848 345.536 36.6532C344.115 37.8427 343.202 39.7386 343.202 42.8488C343.202 48.2885 346.672 52.359 352.022 52.359C352.68 52.359 353.568 52.359 354.176 52.0802C354.554 51.9005 354.66 51.5721 354.66 51.1446V48.7655C354.66 47.5016 354.66 46.5413 354.635 45.7793C354.61 44.9181 354.381 44.5154 353.549 44.3357C353.344 44.2861 352.916 44.2613 352.562 44.2613C352.332 44.2613 352.183 44.2118 352.183 44.0569C352.183 43.8524 352.363 43.8029 352.717 43.8029C354.033 43.8029 355.628 43.8772 356.392 43.8772C357.155 43.8772 358.521 43.8029 359.359 43.8029C359.688 43.8029 359.868 43.8524 359.868 44.0569C359.868 44.2118 359.712 44.2613 359.539 44.2613C359.334 44.2613 359.16 44.2861 358.856 44.3357C358.173 44.4596 357.919 44.8933 357.894 45.7793C357.869 46.5351 357.869 47.5512 357.869 48.8151V51.5969H357.857Z" fill="black"/>
<path d="M365.95 46.69C365.826 46.69 365.77 46.7396 365.721 46.8945L364.355 50.5127C364.101 51.1446 363.977 51.7518 363.977 52.0554C363.977 52.5077 364.206 52.836 364.988 52.836H365.367C365.671 52.836 365.745 52.8856 365.745 53.0405C365.745 53.2449 365.59 53.2945 365.317 53.2945C364.504 53.2945 363.418 53.2202 362.63 53.2202C362.35 53.2202 360.96 53.2945 359.638 53.2945C359.309 53.2945 359.154 53.2449 359.154 53.0405C359.154 52.8856 359.253 52.836 359.458 52.836C359.688 52.836 360.041 52.8112 360.24 52.7865C361.407 52.6316 361.885 51.7766 362.394 50.5127L368.756 34.6272C369.06 33.8961 369.215 33.6173 369.463 33.6173C369.693 33.6173 369.842 33.8465 370.097 34.4289C370.705 35.8229 374.758 46.1386 376.378 49.9861C377.34 52.266 378.079 52.6192 378.606 52.7431C378.985 52.8174 379.37 52.8422 379.667 52.8422C379.872 52.8422 379.996 52.867 379.996 53.0467C379.996 53.2511 379.767 53.3007 378.83 53.3007C377.892 53.3007 376.067 53.3007 374.038 53.2511C373.579 53.2263 373.274 53.2263 373.274 53.0467C373.274 52.8918 373.374 52.8422 373.628 52.8174C373.808 52.7679 373.982 52.5386 373.858 52.2351L371.828 46.8697C371.779 46.7458 371.704 46.69 371.574 46.69H365.925H365.95ZM371.121 45.4261C371.245 45.4261 371.276 45.3518 371.245 45.2712L368.961 39.0261C368.936 38.9269 368.911 38.7968 368.836 38.7968C368.762 38.7968 368.712 38.9207 368.681 39.0261L366.354 45.2464C366.329 45.3456 366.354 45.4261 366.453 45.4261H371.114H371.121Z" fill="black"/>
<path d="M384.41 35.5814L380.636 35.6805C379.165 35.73 378.557 35.854 378.178 36.4116C377.923 36.7895 377.799 37.0931 377.75 37.2975C377.7 37.502 377.626 37.6011 377.47 37.6011C377.29 37.6011 377.241 37.4772 377.241 37.1984C377.241 36.7957 377.719 34.4909 377.775 34.2865C377.849 33.9581 377.93 33.8032 378.079 33.8032C378.283 33.8032 378.538 34.0572 379.171 34.1068C379.903 34.1812 380.872 34.2307 381.703 34.2307H391.74C392.553 34.2307 393.105 34.1564 393.49 34.1068C393.869 34.0325 394.074 33.9829 394.173 33.9829C394.353 33.9829 394.378 34.1378 394.378 34.5157C394.378 35.0485 394.303 36.7895 394.303 37.4524C394.279 37.7064 394.229 37.8551 394.074 37.8551C393.875 37.8551 393.819 37.7312 393.794 37.3471L393.77 37.0683C393.72 36.4116 393.031 35.7053 390.778 35.6495L387.588 35.5752V45.9466C387.588 48.2761 387.588 50.2711 387.712 51.3615C387.786 52.0678 387.941 52.6254 388.699 52.7245C389.052 52.7741 389.611 52.8237 389.99 52.8237C390.269 52.8237 390.393 52.898 390.393 53.0281C390.393 53.2078 390.188 53.2822 389.909 53.2822C388.239 53.2822 386.638 53.2078 385.93 53.2078C385.347 53.2078 383.752 53.2822 382.74 53.2822C382.411 53.2822 382.237 53.2078 382.237 53.0281C382.237 52.9042 382.337 52.8237 382.641 52.8237C383.019 52.8237 383.323 52.7741 383.553 52.7245C384.062 52.6254 384.211 52.0678 384.285 51.3305C384.41 50.2711 384.41 48.2699 384.41 45.9404V35.569V35.5814Z" fill="black"/>
<path d="M399.039 41.5043C399.039 37.6568 399.039 36.9505 398.99 36.1451C398.94 35.2839 398.686 34.8564 398.127 34.7263C397.848 34.652 397.519 34.6272 397.214 34.6272C396.96 34.6272 396.811 34.5776 396.811 34.3732C396.811 34.2183 397.016 34.1687 397.419 34.1687C398.381 34.1687 399.983 34.243 400.715 34.243C401.348 34.243 402.844 34.1687 403.806 34.1687C404.135 34.1687 404.34 34.2183 404.34 34.3732C404.34 34.5776 404.185 34.6272 403.936 34.6272C403.688 34.6272 403.483 34.652 403.179 34.7015C402.497 34.8254 402.292 35.2591 402.242 36.1451C402.192 36.9567 402.192 37.663 402.192 41.5043V45.9527C402.192 48.4062 402.192 50.4073 402.292 51.4916C402.366 52.1731 402.546 52.6316 403.303 52.7307C403.657 52.7802 404.216 52.8298 404.594 52.8298C404.874 52.8298 404.998 52.9042 404.998 53.0343C404.998 53.2139 404.793 53.2883 404.514 53.2883C402.844 53.2883 401.243 53.2139 400.56 53.2139C399.977 53.2139 398.381 53.2883 397.363 53.2883C397.034 53.2883 396.861 53.2139 396.861 53.0343C396.861 52.9104 396.96 52.8298 397.264 52.8298C397.643 52.8298 397.947 52.7802 398.177 52.7307C398.686 52.6316 398.834 52.1979 398.915 51.4668C399.039 50.4073 399.039 48.4062 399.039 45.9527V41.5043Z" fill="black"/>
<path d="M407.48 43.7285C407.48 39.404 410.342 33.8156 417.945 33.8156C424.258 33.8156 428.18 37.4833 428.18 43.2762C428.18 49.0691 424.127 53.6476 417.691 53.6476C410.416 53.6476 407.48 48.2079 407.48 43.7347V43.7285ZM424.636 44.2117C424.636 38.5428 421.365 35.0299 417.213 35.0299C414.302 35.0299 410.981 36.6469 410.981 42.9478C410.981 48.2079 413.892 52.3837 418.758 52.3837C420.533 52.3837 424.636 51.5225 424.636 44.2117Z" fill="black"/>
<path d="M434.909 49.8497C434.958 51.8261 435.287 52.4829 435.796 52.6563C436.225 52.8112 436.709 52.836 437.112 52.836C437.391 52.836 437.54 52.8856 437.54 53.0405C437.54 53.2449 437.311 53.2945 436.957 53.2945C435.312 53.2945 434.294 53.2201 433.816 53.2201C433.587 53.2201 432.395 53.2945 431.079 53.2945C430.75 53.2945 430.521 53.2697 430.521 53.0405C430.521 52.8856 430.676 52.836 430.924 52.836C431.253 52.836 431.712 52.8112 432.066 52.7121C432.724 52.5076 432.829 51.7766 432.854 49.5771L433.084 34.6024C433.084 34.0944 433.158 33.7412 433.413 33.7412C433.692 33.7412 433.922 34.0696 434.35 34.5281C434.654 34.8564 438.503 38.9827 442.208 42.6505C443.934 44.3666 447.354 48.0097 447.782 48.4186H447.906L447.651 37.062C447.627 35.5193 447.397 35.0361 446.789 34.7883C446.41 34.6334 445.802 34.6334 445.448 34.6334C445.144 34.6334 445.045 34.559 445.045 34.4041C445.045 34.1997 445.324 34.1749 445.702 34.1749C447.018 34.1749 448.235 34.2492 448.769 34.2492C449.048 34.2492 450.01 34.1749 451.251 34.1749C451.58 34.1749 451.835 34.1997 451.835 34.4041C451.835 34.559 451.68 34.6334 451.376 34.6334C451.121 34.6334 450.922 34.6334 450.618 34.7077C449.911 34.9122 449.706 35.4388 449.681 36.8576L449.402 52.8174C449.402 53.375 449.302 53.6043 449.073 53.6043C448.794 53.6043 448.489 53.3255 448.21 53.0467C446.615 51.5287 443.369 48.2141 440.737 45.612C437.975 42.8797 435.163 39.72 434.704 39.2367H434.629L434.909 49.8621V49.8497Z" fill="black"/>
<path d="M350.738 67.6436C350.049 67.6436 349.304 67.7241 349.062 67.7737C348.956 67.8232 348.875 67.9038 348.875 68.0401V75.2827C348.875 75.4128 348.925 75.4934 349.037 75.5739C349.384 75.7598 350.582 75.9209 351.619 75.9209C352.178 75.9209 352.817 75.8961 353.369 75.5243C354.164 74.9915 354.778 73.802 354.778 72.0734C354.778 69.2606 353.233 67.6436 350.738 67.6436Z" fill="black"/>
<path d="M316.649 67.3771C312.745 67.3771 309.927 69.8181 309.927 74.725C309.927 79.9789 313.093 83.2688 317.313 83.2688C319.411 83.2688 323.638 82.1536 323.638 75.6296C323.638 70.2147 320.342 67.3771 316.649 67.3771Z" fill="black"/>
<path d="M175.971 70.351C175.84 70.0041 175.704 70.0041 175.574 70.351L173.395 76.5342C173.37 76.6396 173.395 76.6953 173.476 76.6953H178.205C178.311 76.6953 178.311 76.6458 178.286 76.5342L175.971 70.351Z" fill="black"/>
<path d="M164.01 60.3265V90.307H455V60.3265H164.01ZM185.008 83.9131C184.66 83.9131 182.935 83.9131 181.315 83.8636C180.862 83.8388 180.489 83.8388 180.489 83.7025C180.489 83.5972 180.545 83.5972 180.651 83.5414C180.781 83.4856 181.023 83.2998 180.862 82.928L178.764 77.7547C178.714 77.6494 178.683 77.6246 178.553 77.6246H173.159C173.054 77.6246 172.973 77.6742 172.917 77.8105L171.589 81.4163C171.378 81.9739 171.241 82.5315 171.241 82.928C171.241 83.3803 171.638 83.5414 172.036 83.5414H172.247C172.433 83.5414 172.489 83.622 172.489 83.7273C172.489 83.8574 172.358 83.9131 172.141 83.9131C171.583 83.9131 170.304 83.8326 170.043 83.8326C169.801 83.8326 168.634 83.9131 167.679 83.9131C167.387 83.9131 167.225 83.8636 167.225 83.7273C167.225 83.622 167.331 83.5414 167.436 83.5414C167.598 83.5414 167.939 83.5166 168.125 83.4856C169.187 83.3555 169.64 82.5563 170.093 81.4163L175.592 67.3028C175.884 66.5593 175.989 66.4292 176.151 66.4292C176.393 66.4292 176.474 66.7452 176.71 67.2532C177.138 68.2073 180.887 77.5193 182.32 80.9455C183.171 82.959 183.81 83.2502 184.313 83.4113C184.66 83.5166 185.002 83.5414 185.244 83.5414C185.374 83.5414 185.536 83.591 185.536 83.7273C185.536 83.8636 185.269 83.9131 185.002 83.9131H185.008ZM218.78 67.2284C218.618 67.2284 218.488 67.2284 218.196 67.278C217.557 67.4081 217.426 67.7798 217.371 68.5233C217.315 69.242 217.346 69.8739 217.346 73.3806V75.7969C217.346 78.238 217.029 80.9702 215.167 82.5625C213.467 84.0185 211.66 84.2105 210.276 84.2105C209.507 84.2105 207.061 84.1548 205.41 82.6183C204.268 81.5588 203.362 79.9913 203.362 76.7015V73.3868C203.362 69.8863 203.362 69.2482 203.312 68.5295C203.256 67.817 203.126 67.3895 202.356 67.2842C202.17 67.2594 201.773 67.2346 201.562 67.2346C201.481 67.2346 201.376 67.1293 201.376 67.0488C201.376 66.9186 201.481 66.8629 201.748 66.8629C202.809 66.8629 204.218 66.9186 204.429 66.9186C204.64 66.9186 206.105 66.8629 206.794 66.8629C207.061 66.8629 207.191 66.9186 207.191 67.0488C207.191 67.1293 207.086 67.2346 206.98 67.2346C206.819 67.2346 206.689 67.2346 206.397 67.2842C205.782 67.3895 205.652 67.786 205.602 68.5295C205.547 69.2482 205.547 69.8801 205.547 73.3868V76.5466C205.547 79.8117 206.267 81.1623 207.272 82.0669C208.414 83.1015 209.426 83.2874 210.754 83.2874C212.188 83.2874 213.572 82.6492 214.367 81.6951C215.459 80.394 215.695 78.5354 215.695 76.2306V73.393C215.695 69.8925 215.67 69.2544 215.645 68.5357C215.62 67.8232 215.484 67.3957 214.714 67.2904C214.528 67.2656 214.131 67.2408 213.92 67.2408C213.814 67.2408 213.733 67.1355 213.733 67.0549C213.733 66.9248 213.839 66.8691 214.106 66.8691C215.142 66.8691 216.495 66.9248 216.632 66.9248C216.793 66.9248 217.911 66.8691 218.6 66.8691C218.866 66.8691 218.972 66.9248 218.972 67.0549C218.972 67.1355 218.891 67.2408 218.786 67.2408L218.78 67.2284ZM251.223 69.5332C251.223 69.7191 251.117 69.8244 251.012 69.8244C250.906 69.8244 250.85 69.7438 250.826 69.4279L250.801 69.1862C250.72 68.4985 250.217 67.9905 247.983 67.9409L245.059 67.8914V77.3644C245.059 79.5391 245.059 81.3172 245.165 82.2465C245.246 82.9095 245.351 83.3308 246.071 83.4423C246.388 83.4918 246.921 83.5476 247.133 83.5476C247.294 83.5476 247.319 83.6529 247.319 83.7335C247.319 83.8388 247.213 83.9193 246.946 83.9193C245.668 83.9193 244.184 83.8388 244.048 83.8388C243.942 83.8388 242.322 83.9193 241.627 83.9193C241.36 83.9193 241.255 83.8698 241.255 83.7335C241.255 83.6529 241.31 83.5724 241.441 83.5724C241.652 83.5724 241.919 83.5228 242.13 83.4671C242.608 83.3617 242.744 82.9095 242.819 82.2465C242.924 81.3172 242.924 79.5391 242.924 77.3644V67.8914L239.548 67.9409C238.089 67.9657 237.531 68.1268 237.183 68.6596C236.916 69.0561 236.891 69.2172 236.811 69.3783C236.761 69.5642 236.68 69.5889 236.568 69.5889C236.519 69.5889 236.407 69.5332 236.407 69.4031C236.407 69.1614 236.885 67.1479 236.91 66.962C236.966 66.8319 237.071 66.5407 237.152 66.5407C237.313 66.5407 237.549 66.7266 238.188 66.8071C238.853 66.8877 239.759 66.9124 240.026 66.9124H248.852C249.621 66.9124 250.155 66.8567 250.528 66.8071C250.875 66.7576 251.086 66.7018 251.192 66.7018C251.297 66.7018 251.297 66.8319 251.297 66.9682C251.297 67.6559 251.217 69.2792 251.217 69.5394L251.223 69.5332ZM288.21 83.9131C286.931 83.9131 285.447 83.8326 285.311 83.8326C285.205 83.8326 283.691 83.9131 283.002 83.9131C282.735 83.9131 282.63 83.8636 282.63 83.7273C282.63 83.6467 282.679 83.5414 282.816 83.5414C283.027 83.5414 283.294 83.4856 283.505 83.4361C283.983 83.3308 284.063 82.8785 284.144 82.2155C284.25 81.2862 284.25 79.5886 284.25 77.414V75.1588C284.25 75.0534 284.194 75.0287 284.119 75.0287H274.362C274.281 75.0287 274.232 75.0534 274.232 75.1588V77.414C274.232 79.5886 274.232 81.311 274.337 82.2403C274.418 82.9033 274.499 83.3246 275.188 83.4361C275.535 83.4856 276.038 83.5414 276.249 83.5414C276.379 83.5414 276.435 83.6467 276.435 83.7273C276.435 83.8326 276.33 83.9131 276.063 83.9131C274.759 83.9131 273.27 83.8326 273.164 83.8326C273.034 83.8326 271.544 83.9131 270.824 83.9131C270.582 83.9131 270.452 83.8636 270.452 83.7273C270.452 83.6467 270.508 83.5414 270.638 83.5414C270.849 83.5414 271.141 83.4856 271.352 83.4361C271.805 83.3308 271.854 82.9033 271.966 82.2403C272.097 81.311 272.097 79.5329 272.097 77.3582V73.3806C272.097 69.8801 272.097 69.242 272.041 68.5233C271.991 67.755 271.854 67.3833 271.085 67.278C270.899 67.2532 270.501 67.2284 270.29 67.2284C270.21 67.2284 270.104 67.1231 270.104 67.0426C270.104 66.9124 270.21 66.8567 270.477 66.8567C271.538 66.8567 273.028 66.9124 273.158 66.9124C273.263 66.9124 274.753 66.8567 275.473 66.8567C275.74 66.8567 275.845 66.9124 275.845 67.0426C275.845 67.1231 275.74 67.2284 275.659 67.2284C275.498 67.2284 275.343 67.2284 275.076 67.278C274.436 67.4081 274.306 67.7303 274.25 68.5233C274.225 69.242 274.225 69.9297 274.225 73.4302V73.9073C274.225 74.0374 274.275 74.0374 274.356 74.0374H284.113C284.194 74.0374 284.243 74.0374 284.243 73.9073V73.4302C284.243 69.9297 284.218 69.2358 284.187 68.5233C284.138 67.755 284.026 67.3833 283.256 67.278C283.07 67.2532 282.673 67.2284 282.462 67.2284C282.356 67.2284 282.276 67.1231 282.276 67.0426C282.276 66.9124 282.381 66.8567 282.648 66.8567C283.685 66.8567 285.199 66.9124 285.305 66.9124C285.435 66.9124 286.925 66.8567 287.62 66.8567C287.887 66.8567 288.017 66.9124 288.017 67.0426C288.017 67.1231 287.912 67.2284 287.806 67.2284C287.645 67.2284 287.514 67.2284 287.223 67.278C286.614 67.4081 286.478 67.7303 286.428 68.5233C286.378 69.242 286.378 69.8739 286.378 73.3806V77.3582C286.378 79.5329 286.403 81.311 286.509 82.2403C286.59 82.9033 286.639 83.3246 287.359 83.4361C287.676 83.4856 288.21 83.5414 288.396 83.5414C288.557 83.5414 288.607 83.6467 288.607 83.7273C288.607 83.8326 288.476 83.9131 288.21 83.9131ZM316.662 84.2043C310.256 84.2043 307.519 79.4028 307.519 75.3446C307.519 71.7078 310.337 66.5345 316.792 66.5345C322.056 66.5345 326.04 69.7438 326.04 74.9977C326.04 80.2516 322.291 84.2043 316.656 84.2043H316.662ZM362.021 83.9131H360.563C359.235 83.9131 358.651 83.783 358.061 83.4609C357.05 82.928 356.199 81.8438 354.871 80.1462C353.89 78.9257 352.854 77.4635 352.345 76.8564C352.239 76.751 352.184 76.7263 352.028 76.7263L349.049 76.6705C348.944 76.6705 348.888 76.7263 348.888 76.8564V77.3892C348.888 79.5638 348.888 81.3172 348.993 82.2465C349.074 82.9095 349.204 83.3308 349.924 83.4423C350.241 83.4918 350.75 83.5476 350.961 83.5476C351.122 83.5476 351.147 83.6529 351.147 83.7335C351.147 83.8388 351.042 83.9193 350.775 83.9193C349.496 83.9193 348.013 83.8388 347.907 83.8388C347.882 83.8388 346.312 83.9193 345.592 83.9193C345.35 83.9193 345.219 83.8698 345.219 83.7335C345.219 83.6529 345.275 83.5476 345.406 83.5476C345.617 83.5476 345.908 83.4918 346.12 83.4423C346.573 83.3369 346.622 82.9095 346.734 82.2465C346.864 81.3172 346.864 79.5391 346.864 77.3644V73.3868C346.864 69.8863 346.864 69.2482 346.808 68.5295C346.759 67.7612 346.622 67.3895 345.853 67.2842C345.666 67.2594 345.269 67.2346 345.058 67.2346C344.977 67.2346 344.872 67.1293 344.872 67.0488C344.872 66.9186 344.977 66.8629 345.244 66.8629C346.306 66.8629 347.876 66.9186 348.006 66.9186C348.242 66.9186 350.21 66.8629 350.93 66.8629C352.419 66.8629 354.064 66.993 355.287 67.8418C355.87 68.2693 356.907 69.3535 356.907 70.921C356.907 72.5938 356.218 74.2108 354.033 76.0695C355.951 78.4548 357.571 80.4994 358.924 81.9058C360.172 83.1821 360.941 83.3927 361.531 83.4733C361.984 83.5538 362.22 83.5538 362.357 83.5538C362.493 83.5538 362.568 83.6591 362.568 83.7397C362.568 83.8698 362.437 83.9255 362.009 83.9255L362.021 83.9131ZM384.627 83.9131C383.323 83.9131 381.809 83.8326 381.703 83.8326C381.573 83.8326 380.108 83.9131 379.388 83.9131C379.146 83.9131 379.016 83.8636 379.016 83.7273C379.016 83.6467 379.072 83.5414 379.202 83.5414C379.413 83.5414 379.705 83.4856 379.916 83.4361C380.369 83.3308 380.45 82.9033 380.53 82.2403C380.636 81.311 380.661 79.5329 380.661 77.3582V73.3806C380.661 69.8801 380.661 69.242 380.605 68.5233C380.555 67.755 380.363 67.4081 379.86 67.3028C379.593 67.247 379.301 67.2222 379.14 67.2222C379.034 67.2222 378.954 67.1169 378.954 67.0364C378.954 66.9062 379.059 66.8505 379.326 66.8505C380.096 66.8505 381.561 66.9063 381.691 66.9063C381.797 66.9063 383.311 66.8505 384.031 66.8505C384.298 66.8505 384.403 66.9062 384.403 67.0364C384.403 67.1169 384.298 67.2222 384.217 67.2222C384.056 67.2222 383.901 67.2222 383.634 67.2718C382.994 67.4019 382.864 67.7241 382.808 68.5171C382.783 69.2358 382.783 69.8677 382.783 73.3744V77.352C382.783 79.5267 382.783 81.3048 382.889 82.2341C382.97 82.8971 383.05 83.3184 383.739 83.4299C384.087 83.4795 384.59 83.5352 384.801 83.5352C384.931 83.5352 384.987 83.6405 384.987 83.7211C384.987 83.8264 384.881 83.9069 384.614 83.9069L384.627 83.9131ZM418.212 69.5332C418.212 69.7191 418.107 69.8244 418.001 69.8244C417.896 69.8244 417.84 69.7438 417.815 69.4279L417.79 69.1862C417.709 68.4985 417.207 67.9905 414.972 67.9409L412.049 67.8914V77.3644C412.049 79.5391 412.049 81.3172 412.154 82.2465C412.235 82.9095 412.34 83.3308 413.06 83.4423C413.377 83.4918 413.911 83.5476 414.122 83.5476C414.283 83.5476 414.308 83.6529 414.308 83.7335C414.308 83.8388 414.203 83.9193 413.936 83.9193C412.657 83.9193 411.174 83.8388 411.037 83.8388C410.932 83.8388 409.312 83.9193 408.616 83.9193C408.349 83.9193 408.244 83.8698 408.244 83.7335C408.244 83.6529 408.3 83.5724 408.43 83.5724C408.641 83.5724 408.908 83.5228 409.119 83.4671C409.597 83.3617 409.734 82.9095 409.808 82.2465C409.914 81.3172 409.914 79.5391 409.914 77.3644V67.8914L406.537 67.9409C405.078 67.9657 404.52 68.1268 404.172 68.6596C403.905 69.0561 403.881 69.2172 403.8 69.3783C403.75 69.5642 403.669 69.5889 403.558 69.5889C403.508 69.5889 403.396 69.5332 403.396 69.4031C403.396 69.1614 403.874 67.1479 403.899 66.962C403.955 66.8319 404.061 66.5407 404.141 66.5407C404.303 66.5407 404.538 66.7266 405.178 66.8071C405.842 66.8877 406.748 66.9124 407.015 66.9124H415.841C416.611 66.9124 417.145 66.8567 417.517 66.8071C417.865 66.7576 418.076 66.7018 418.181 66.7018C418.287 66.7018 418.287 66.8319 418.287 66.9682C418.287 67.6559 418.206 69.2792 418.206 69.5394L418.212 69.5332ZM451.5 67.2284C451.233 67.2284 450.78 67.309 450.413 67.5196C449.96 67.786 449.749 68.0215 449.246 68.6348C448.477 69.5394 445.181 74.8428 444.703 75.7969C444.306 76.59 444.411 77.3086 444.411 78.0521V79.9913C444.411 80.3631 444.411 81.3172 444.492 82.2465C444.542 82.9095 444.703 83.3308 445.398 83.4423C445.715 83.4918 446.249 83.5476 446.46 83.5476C446.59 83.5476 446.646 83.6529 446.646 83.7335C446.646 83.8388 446.515 83.9193 446.273 83.9193C444.97 83.9193 443.455 83.8388 443.325 83.8388C443.22 83.8388 441.73 83.9193 441.041 83.9193C440.774 83.9193 440.669 83.8698 440.669 83.7335C440.669 83.6529 440.718 83.5476 440.855 83.5476C441.066 83.5476 441.333 83.4918 441.544 83.4423C442.022 83.3369 442.183 82.9095 442.233 82.2465C442.282 81.3172 442.282 80.3631 442.282 79.9913V78.0521C442.282 76.8316 442.121 76.3793 441.78 75.7412C441.593 75.4004 438.428 70.382 437.633 69.1862C437.075 68.3374 436.516 67.8356 436.094 67.5444C435.747 67.3337 435.3 67.2284 435.113 67.2284C434.983 67.2284 434.871 67.1231 434.871 67.0178C434.871 66.9124 434.952 66.8567 435.163 66.8567C435.616 66.8567 437.373 66.9124 437.478 66.9124C437.64 66.9124 438.595 66.8567 439.495 66.8567C439.762 66.8567 439.812 66.9124 439.812 67.0178C439.812 67.0983 439.651 67.1789 439.44 67.2532C439.253 67.3337 439.148 67.4391 439.148 67.6249C439.148 67.9409 439.309 68.2073 439.464 68.4985L443.716 75.5305C444.194 74.5764 447.117 69.7438 447.546 69.0066C447.837 68.5047 447.943 68.133 447.943 67.8418C447.943 67.5258 447.838 67.3399 447.571 67.2594C447.36 67.2098 447.223 67.0983 447.223 66.993C447.223 66.9124 447.353 66.8629 447.595 66.8629C448.21 66.8629 449.029 66.9186 449.215 66.9186C449.377 66.9186 451.053 66.8629 451.5 66.8629C451.661 66.8629 451.791 66.9186 451.791 66.993C451.791 67.0983 451.686 67.2346 451.5 67.2346V67.2284Z" fill="black"/>
</g>
<defs>
<clipPath id="clip0_321_27425">
<rect width="455" height="116" fill="white"/>
</clipPath>
</defs>
</svg>
