<svg width="18" height="17" viewBox="0 0 18 17" fill="currentColor" xmlns="http://www.w3.org/2000/svg">
<path d="M1.73535 4.52344C0.742188 4.52344 0.241211 3.93457 0.241211 2.9502V2.15039C0.241211 1.16602 0.794922 0.577148 1.73535 0.577148H16.3164C17.3096 0.577148 17.8105 1.16602 17.8105 2.15039V2.9502C17.8105 3.93457 17.3096 4.52344 16.3164 4.52344H1.73535ZM4.20508 16.7578C2.47363 16.7578 1.55078 15.8701 1.55078 14.1387V5.72754H16.501V14.1387C16.501 15.8613 15.5781 16.7578 13.8467 16.7578H4.20508ZM6.12988 8.90039H11.9307C12.2998 8.90039 12.5635 8.64551 12.5635 8.25879V7.98633C12.5635 7.59961 12.2998 7.35352 11.9307 7.35352H6.12988C5.76074 7.35352 5.50586 7.59961 5.50586 7.98633V8.25879C5.50586 8.64551 5.76074 8.90039 6.12988 8.90039Z" fill="currentColor"/>
</svg>
