<svg width="20" height="21" viewBox="0 0 20 21" fill="currentColor" xmlns="http://www.w3.org/2000/svg">
<path d="M10 20.9102C8.63932 20.9102 7.35677 20.6497 6.15234 20.1289C4.95443 19.6081 3.89648 18.8887 2.97852 17.9707C2.06055 17.0527 1.34115 15.9948 0.820312 14.7969C0.299479 13.5924 0.0390625 12.3099 0.0390625 10.9492C0.0390625 9.58854 0.299479 8.30924 0.820312 7.11133C1.34115 5.9069 2.05729 4.8457 2.96875 3.92773C3.88672 3.00977 4.94466 2.29036 6.14258 1.76953C7.34701 1.2487 8.62956 0.988281 9.99023 0.988281C11.3509 0.988281 12.6335 1.2487 13.8379 1.76953C15.0423 2.29036 16.1035 3.00977 17.0215 3.92773C17.9395 4.8457 18.6589 5.9069 19.1797 7.11133C19.7005 8.30924 19.9609 9.58854 19.9609 10.9492C19.9609 12.3099 19.7005 13.5924 19.1797 14.7969C18.6589 15.9948 17.9395 17.0527 17.0215 17.9707C16.1035 18.8887 15.0423 19.6081 13.8379 20.1289C12.64 20.6497 11.3607 20.9102 10 20.9102ZM10 19.25C11.1523 19.25 12.2298 19.0352 13.2324 18.6055C14.235 18.1758 15.1172 17.5833 15.8789 16.8281C16.6406 16.0664 17.2331 15.1842 17.6562 14.1816C18.0859 13.179 18.3008 12.1016 18.3008 10.9492C18.3008 9.79688 18.0859 8.7194 17.6562 7.7168C17.2266 6.71419 16.6309 5.83203 15.8691 5.07031C15.1139 4.30859 14.2318 3.71615 13.2227 3.29297C12.2201 2.86328 11.1426 2.64844 9.99023 2.64844C8.83789 2.64844 7.76042 2.86328 6.75781 3.29297C5.75521 3.71615 4.8763 4.30859 4.12109 5.07031C3.36589 5.83203 2.77344 6.71419 2.34375 7.7168C1.92057 8.7194 1.70898 9.79688 1.70898 10.9492C1.70898 12.1016 1.92057 13.179 2.34375 14.1816C2.77344 15.1842 3.36589 16.0664 4.12109 16.8281C4.88281 17.5833 5.76497 18.1758 6.76758 18.6055C7.77018 19.0352 8.84766 19.25 10 19.25ZM9.49219 14.8359C9.12109 14.8359 8.85742 14.7839 8.70117 14.6797C8.55143 14.569 8.47656 14.4095 8.47656 14.2012C8.47656 13.791 8.63932 13.3613 8.96484 12.9121C9.29036 12.4629 9.7526 12.082 10.3516 11.7695C10.9505 11.4505 11.6634 11.291 12.4902 11.291C13.3105 11.291 14.0169 11.4505 14.6094 11.7695C15.2083 12.082 15.6673 12.4629 15.9863 12.9121C16.3118 13.3613 16.4746 13.791 16.4746 14.2012C16.4746 14.4095 16.3997 14.569 16.25 14.6797C16.1003 14.7839 15.8366 14.8359 15.459 14.8359H9.49219ZM12.4902 10.4414C11.9759 10.4414 11.5299 10.2396 11.1523 9.83594C10.7747 9.42578 10.5859 8.92773 10.5859 8.3418C10.5859 7.76237 10.7747 7.27734 11.1523 6.88672C11.5299 6.48958 11.9759 6.29102 12.4902 6.29102C12.998 6.29102 13.4375 6.48633 13.8086 6.87695C14.1862 7.26107 14.375 7.74609 14.375 8.33203C14.375 8.92448 14.1862 9.42578 13.8086 9.83594C13.4375 10.2396 12.998 10.4414 12.4902 10.4414ZM4.35547 14.8359C4.05599 14.8359 3.84115 14.7773 3.71094 14.6602C3.58724 14.543 3.52539 14.377 3.52539 14.1621C3.52539 13.7259 3.66536 13.2865 3.94531 12.8438C4.23177 12.3945 4.63542 12.0202 5.15625 11.7207C5.67708 11.4212 6.29557 11.2715 7.01172 11.2715C7.44792 11.2715 7.83854 11.3301 8.18359 11.4473C8.52865 11.5645 8.83464 11.7142 9.10156 11.8965C8.76302 12.1569 8.47982 12.4727 8.25195 12.8438C8.02409 13.2083 7.8776 13.5729 7.8125 13.9375C7.75391 14.3021 7.80599 14.6016 7.96875 14.8359H4.35547ZM7.01172 10.5391C6.56901 10.5391 6.18164 10.3633 5.84961 10.0117C5.52409 9.66016 5.35807 9.22721 5.35156 8.71289C5.35156 8.21159 5.51758 7.79167 5.84961 7.45312C6.18164 7.10807 6.56901 6.93555 7.01172 6.93555C7.45443 6.93555 7.83854 7.10482 8.16406 7.44336C8.49609 7.77539 8.66211 8.19531 8.66211 8.70312C8.66211 9.22396 8.49609 9.66016 8.16406 10.0117C7.83854 10.3633 7.45443 10.5391 7.01172 10.5391Z" fill="currentColor"/>
</svg>
