<svg width="19" height="19" viewBox="0 0 19 19" fill="currentColor" xmlns="http://www.w3.org/2000/svg">
<path d="M3.57227 18.9531C2.55013 18.9531 1.7819 18.6992 1.26758 18.1914C0.759766 17.6901 0.505859 16.9349 0.505859 15.9258V4.00195C0.505859 2.99284 0.759766 2.23763 1.26758 1.73633C1.7819 1.22852 2.55013 0.974609 3.57227 0.974609H15.418C16.4401 0.974609 17.2051 1.22852 17.7129 1.73633C18.2272 2.23763 18.4844 2.99284 18.4844 4.00195V15.9258C18.4844 16.9349 18.2272 17.6901 17.7129 18.1914C17.2051 18.6992 16.4401 18.9531 15.418 18.9531H3.57227ZM3.5918 17.3809H15.3984C15.8802 17.3809 16.2513 17.2539 16.5117 17C16.7786 16.7396 16.9121 16.3555 16.9121 15.8477V4.08008C16.9121 3.57227 16.7786 3.19141 16.5117 2.9375C16.2513 2.67708 15.8802 2.54688 15.3984 2.54688H3.5918C3.10352 2.54688 2.72917 2.67708 2.46875 2.9375C2.20833 3.19141 2.07812 3.57227 2.07812 4.08008V15.8477C2.07812 16.3555 2.20833 16.7396 2.46875 17C2.72917 17.2539 3.10352 17.3809 3.5918 17.3809ZM7.80078 15.4082C7.59896 15.4082 7.42969 15.3431 7.29297 15.2129C7.15625 15.0827 7.08789 14.9199 7.08789 14.7246C7.08789 14.5293 7.15625 14.3665 7.29297 14.2363C7.42969 14.1061 7.59896 14.041 7.80078 14.041H9.01172V9.55859H7.9668C7.76497 9.55859 7.5957 9.49349 7.45898 9.36328C7.32227 9.23307 7.25391 9.07031 7.25391 8.875C7.25391 8.67969 7.32227 8.51693 7.45898 8.38672C7.5957 8.25651 7.76497 8.19141 7.9668 8.19141H9.80273C10.0501 8.19141 10.2389 8.27279 10.3691 8.43555C10.4993 8.5918 10.5645 8.80339 10.5645 9.07031V14.041H11.7754C11.9772 14.041 12.1465 14.1061 12.2832 14.2363C12.4199 14.3665 12.4883 14.5293 12.4883 14.7246C12.4883 14.9199 12.4199 15.0827 12.2832 15.2129C12.1465 15.3431 11.9772 15.4082 11.7754 15.4082H7.80078ZM9.42188 6.56055C9.07031 6.56055 8.77083 6.43685 8.52344 6.18945C8.27604 5.94206 8.15234 5.64258 8.15234 5.29102C8.15234 4.93294 8.27604 4.63021 8.52344 4.38281C8.77083 4.13542 9.07031 4.01172 9.42188 4.01172C9.77995 4.01172 10.0794 4.13542 10.3203 4.38281C10.5677 4.63021 10.6914 4.93294 10.6914 5.29102C10.6914 5.64258 10.5677 5.94206 10.3203 6.18945C10.0794 6.43685 9.77995 6.56055 9.42188 6.56055Z" fill="currentColor"/>
</svg>
