<svg width="13" height="19" viewBox="0 0 13 19" fill="currentColor" xmlns="http://www.w3.org/2000/svg">
<path d="M0.289062 6.8125C0.289062 5.95312 0.450521 5.14844 0.773438 4.39844C1.09635 3.64323 1.54167 2.97917 2.10938 2.40625C2.68229 1.83333 3.34375 1.38542 4.09375 1.0625C4.84375 0.734375 5.64583 0.570312 6.5 0.570312C7.35417 0.570312 8.15625 0.734375 8.90625 1.0625C9.65625 1.38542 10.3151 1.83333 10.8828 2.40625C11.4557 2.97917 11.9036 3.64323 12.2266 4.39844C12.5547 5.14844 12.7161 5.95312 12.7109 6.8125C12.7057 7.72396 12.5156 8.58073 12.1406 9.38281C11.7708 10.1797 11.2682 10.862 10.6328 11.4297V17.3516C10.6328 17.5859 10.5781 17.7552 10.4688 17.8594C10.3646 17.9635 10.2292 18.0156 10.0625 18.0156C9.93229 18.0156 9.8125 17.9818 9.70312 17.9141C9.59375 17.8464 9.48438 17.7578 9.375 17.6484L6.83594 15.1172C6.76823 15.0547 6.70833 15.0104 6.65625 14.9844C6.60417 14.9583 6.55469 14.9453 6.50781 14.9453C6.46094 14.9453 6.41146 14.9583 6.35938 14.9844C6.30729 15.0104 6.2474 15.0547 6.17969 15.1172L3.64062 17.6484C3.53646 17.7526 3.42969 17.8385 3.32031 17.9062C3.21094 17.9792 3.08854 18.0156 2.95312 18.0156C2.79167 18.0156 2.65625 17.9635 2.54688 17.8594C2.44271 17.7552 2.39062 17.5859 2.39062 17.3516L2.38281 11.4531C1.74219 10.8854 1.23177 10.2005 0.851562 9.39844C0.476562 8.59115 0.289062 7.72917 0.289062 6.8125ZM1.5625 6.8125C1.5625 7.50521 1.6875 8.15365 1.9375 8.75781C2.19271 9.35677 2.54427 9.88542 2.99219 10.3438C3.4401 10.7969 3.96354 11.1536 4.5625 11.4141C5.16667 11.6693 5.8151 11.7969 6.50781 11.7969C7.20052 11.8021 7.84635 11.6771 8.44531 11.4219C9.04948 11.1615 9.57552 10.8047 10.0234 10.3516C10.4766 9.89323 10.8281 9.36198 11.0781 8.75781C11.3333 8.15365 11.4583 7.50521 11.4531 6.8125C11.4531 6.11979 11.3255 5.47135 11.0703 4.86719C10.8203 4.26302 10.4688 3.73177 10.0156 3.27344C9.56771 2.8151 9.04427 2.45833 8.44531 2.20312C7.84635 1.94271 7.20052 1.8125 6.50781 1.8125C5.8151 1.8125 5.16667 1.94271 4.5625 2.20312C3.96354 2.45833 3.4401 2.8151 2.99219 3.27344C2.54427 3.73177 2.19271 4.26302 1.9375 4.86719C1.6875 5.47135 1.5625 6.11979 1.5625 6.8125Z" fill="currentColor"/>
</svg>
