<svg xmlns="http://www.w3.org/2000/svg" width="25" height="24" viewBox="0 0 25 24" fill="currentColor">
<g clip-path="url(#clip0_641_53239)">
<path d="M22.1191 19H16.1191V15H13.4391C12.2991 17.42 9.83914 19 7.11914 19C3.25914 19 0.119141 15.86 0.119141 12C0.119141 8.14 3.25914 5 7.11914 5C9.83914 5 12.2891 6.58 13.4391 9H24.1191V15H22.1191V19ZM18.1191 17H20.1191V13H22.1191V11H12.0591L11.8291 10.33C11.1291 8.34 9.22914 7 7.11914 7C4.35914 7 2.11914 9.24 2.11914 12C2.11914 14.76 4.35914 17 7.11914 17C9.22914 17 11.1291 15.66 11.8291 13.67L12.0591 13H18.1191V17ZM7.11914 15C5.46914 15 4.11914 13.65 4.11914 12C4.11914 10.35 5.46914 9 7.11914 9C8.76914 9 10.1191 10.35 10.1191 12C10.1191 13.65 8.76914 15 7.11914 15ZM7.11914 11C6.56914 11 6.11914 11.45 6.11914 12C6.11914 12.55 6.56914 13 7.11914 13C7.66914 13 8.11914 12.55 8.11914 12C8.11914 11.45 7.66914 11 7.11914 11Z" fill="currentColor"/>
</g>
<defs>
<clipPath id="clip0_641_53239">
<rect width="24" height="24" fill="white" transform="translate(0.119141)"/>
</clipPath>
</defs>
</svg>