<svg width="19" height="21" viewBox="0 0 19 21" fill="currentColor" xmlns="http://www.w3.org/2000/svg">
<path d="M18.1528 20.396L14.8266 0.433169C14.7842 0.180713 14.564 -0.0033878 14.3081 4.73547e-05H4.69196C4.43607 -0.00338868 4.21581 0.180528 4.1735 0.432989L0.847225 20.3958C0.821906 20.5457 0.8635 20.6994 0.961335 20.8159C1.05989 20.9327 1.20511 21 1.35792 21H17.6421C17.7949 21 17.9401 20.9327 18.0386 20.8159C18.1365 20.6994 18.1782 20.5459 18.1528 20.396ZM1.98583 19.9629L5.13849 1.03708L13.8778 1.03726L17.0225 19.963L1.98583 19.9629Z" fill="currentColor"/>
<path d="M9.50382 2.59288C9.21736 2.59288 8.98535 2.82508 8.98535 3.11134V4.66698C8.98535 4.95344 9.21737 5.18545 9.50382 5.18545C9.79027 5.18545 10.0223 4.95343 10.0223 4.66698V3.11134C10.0223 2.9739 9.96767 2.84207 9.87038 2.74477C9.77327 2.64748 9.64126 2.59288 9.50382 2.59288Z" fill="currentColor"/>
<path d="M9.50382 8.03728C9.21736 8.03728 8.98535 8.2693 8.98535 8.55575V12.4446C8.98535 12.7311 9.21737 12.9631 9.50382 12.9631C9.79027 12.9631 10.0223 12.7311 10.0223 12.4446V8.55575C10.0223 8.4183 9.96767 8.28629 9.87038 8.18918C9.77327 8.09188 9.64126 8.03728 9.50382 8.03728Z" fill="currentColor"/>
<path d="M9.50382 15.815C9.21736 15.815 8.98535 16.047 8.98535 16.3335V17.8891C8.98535 18.1754 9.21737 18.4076 9.50382 18.4076C9.79027 18.4076 10.0223 18.1754 10.0223 17.8891V16.3335C10.0223 16.196 9.96767 16.064 9.87038 15.9669C9.77327 15.8696 9.64126 15.815 9.50382 15.815Z" fill="currentColor"/>
</svg>
