<svg width="23" height="19" viewBox="0 0 23 19" fill="currentColor" xmlns="http://www.w3.org/2000/svg">
<path d="M22.9446 6.91997C22.8568 6.77268 22.6851 6.69797 22.5175 6.73391C19.8713 7.32218 17.8906 10.0881 16.9325 11.712C16.7296 7.62248 18.2454 5.60268 19.9752 3.29673C20.4263 2.69532 20.8934 2.07341 21.3472 1.39219L21.3474 1.39237C21.4368 1.25835 21.4361 1.08344 21.3458 0.950128C21.2555 0.816643 21.0934 0.75114 20.9358 0.784242C15.8027 1.86489 13.5067 6.69461 12.5405 9.84263C12.0823 5.57603 10.7262 3.08657 10.6571 2.96284C10.5667 2.8005 10.3757 2.72278 10.1975 2.77572C10.0194 2.82865 9.90207 2.99825 9.91499 3.18361C10.1319 5.67062 9.79461 8.1744 8.92766 10.5157C7.91042 4.61667 5.16385 1.80992 5.03904 1.68528V1.68511C4.90396 1.54985 4.69151 1.53037 4.53393 1.63855C4.37637 1.74671 4.31848 1.95208 4.3962 2.12666C5.44711 4.49171 5.41434 8.55641 5.29039 10.8746V10.8748C4.2673 8.87302 2.59304 7.27934 0.543422 6.35609C0.38763 6.29395 0.209707 6.33644 0.0990589 6.46232C-0.0117656 6.58819 -0.0315936 6.77001 0.0496677 6.91657C2.0778 10.5674 3.17222 15.263 3.17222 17.8277C3.17222 17.9329 3.214 18.0338 3.28836 18.1081C3.36271 18.1825 3.46363 18.2243 3.56879 18.2243H19.4313C19.5364 18.2243 19.6374 18.1825 19.7117 18.1081C19.7861 18.0338 19.8278 17.9329 19.8278 17.8277C19.8278 10.9438 22.8699 7.41828 22.9009 7.38339C23.0145 7.2545 23.0322 7.06702 22.9448 6.9192L22.9446 6.91997Z" fill="currentColor"/>
</svg>
