<svg width="21" height="22" viewBox="0 0 21 22" fill="currentColor" xmlns="http://www.w3.org/2000/svg">
<path d="M14.4458 0.554688C15.3117 0.554688 16.119 0.701172 16.8677 0.994141C17.6164 1.28711 18.2707 1.69401 18.8306 2.21484C19.3905 2.72917 19.8299 3.33138 20.1489 4.02148C20.4679 4.71159 20.6274 5.45703 20.6274 6.25781C20.6274 6.96745 20.5526 7.5957 20.4028 8.14258C20.2531 8.68294 20.0643 9.21354 19.8364 9.73438C19.6086 10.2552 19.3677 10.8281 19.1138 11.4531C18.8664 12.0716 18.632 12.8073 18.4106 13.6602C18.1958 14.513 18.0298 15.5514 17.9126 16.7754C17.8931 16.9447 17.8345 17.0814 17.7368 17.1855C17.6457 17.2832 17.5122 17.332 17.3364 17.332H11.5649C11.3826 17.332 11.2427 17.2832 11.145 17.1855C11.0539 17.0814 11.0018 16.9447 10.9888 16.7754C10.8716 15.5514 10.7023 14.513 10.481 13.6602C10.2661 12.8073 10.0317 12.0716 9.77783 11.4531C9.53044 10.8281 9.29281 10.2552 9.06494 9.73438C8.83708 9.21354 8.64827 8.68294 8.49854 8.14258C8.35531 7.5957 8.28369 6.96745 8.28369 6.25781C8.28369 5.45703 8.43994 4.71159 8.75244 4.02148C9.07145 3.33138 9.5109 2.72917 10.0708 2.21484C10.6372 1.69401 11.2915 1.28711 12.0337 0.994141C12.7824 0.701172 13.5864 0.554688 14.4458 0.554688ZM14.4458 1.99023C13.8078 1.99023 13.2023 2.09766 12.6294 2.3125C12.063 2.52083 11.5617 2.81706 11.1255 3.20117C10.6893 3.57878 10.3442 4.02799 10.0903 4.54883C9.84294 5.06966 9.71924 5.63932 9.71924 6.25781C9.71924 6.77865 9.78109 7.2474 9.90479 7.66406C10.0285 8.07422 10.188 8.50065 10.3833 8.94336C10.5786 9.37956 10.7902 9.89388 11.0181 10.4863C11.2524 11.0723 11.4803 11.8014 11.7017 12.6738C11.9295 13.5397 12.1281 14.6139 12.2974 15.8965H16.604C16.7733 14.6139 16.9686 13.5397 17.1899 12.6738C17.4178 11.8014 17.6457 11.0723 17.8735 10.4863C18.1079 9.89388 18.3228 9.37956 18.5181 8.94336C18.7199 8.50065 18.8826 8.07422 19.0063 7.66406C19.13 7.2474 19.1919 6.77865 19.1919 6.25781C19.1919 5.63932 19.0649 5.06966 18.811 4.54883C18.5636 4.02799 18.2186 3.57878 17.7759 3.20117C17.3397 2.81706 16.8351 2.52083 16.2622 2.3125C15.6958 2.09766 15.0903 1.99023 14.4458 1.99023ZM11.5454 19.3242C11.3826 19.3242 11.2492 19.2721 11.145 19.168C11.0409 19.0638 10.9888 18.9303 10.9888 18.7676C10.9888 18.6113 11.0409 18.4779 11.145 18.3672C11.2492 18.263 11.3826 18.2109 11.5454 18.2109H17.3657C17.522 18.2109 17.6554 18.263 17.7661 18.3672C17.8768 18.4779 17.9321 18.6113 17.9321 18.7676C17.9321 18.9303 17.8768 19.0638 17.7661 19.168C17.6554 19.2721 17.522 19.3242 17.3657 19.3242H11.5454ZM14.4556 22C13.7329 22 13.1047 21.834 12.5708 21.502C12.0435 21.1699 11.7635 20.737 11.731 20.2031H17.1802C17.1411 20.737 16.8547 21.1699 16.3208 21.502C15.7935 21.834 15.1717 22 14.4556 22ZM3.58643 16.541C3.40413 16.541 3.26742 16.4922 3.17627 16.3945C3.08512 16.2904 3.03304 16.1602 3.02002 16.0039C2.91585 14.9622 2.76937 14.0801 2.58057 13.3574C2.39827 12.6283 2.19971 11.9967 1.98486 11.4629C1.77002 10.929 1.56494 10.4375 1.36963 9.98828C1.17432 9.53906 1.01156 9.07682 0.881348 8.60156C0.75765 8.1263 0.695801 7.58268 0.695801 6.9707C0.695801 6.27409 0.83252 5.6263 1.10596 5.02734C1.37939 4.42188 1.76025 3.89453 2.24854 3.44531C2.74333 2.98958 3.31299 2.63477 3.95752 2.38086C4.60856 2.12695 5.30518 2 6.04736 2C6.52262 2 6.97835 2.05534 7.41455 2.16602C7.85726 2.27018 8.27067 2.42318 8.65479 2.625C9.04541 2.82031 9.39697 3.05794 9.70947 3.33789L9.07471 4.65625C8.84033 4.38932 8.56364 4.16146 8.24463 3.97266C7.93213 3.78385 7.58708 3.63737 7.20947 3.5332C6.83838 3.42904 6.45101 3.37695 6.04736 3.37695C5.32471 3.37695 4.66064 3.5332 4.05518 3.8457C3.45622 4.15169 2.97445 4.57487 2.60986 5.11523C2.25179 5.6556 2.07275 6.27409 2.07275 6.9707C2.07275 7.41992 2.12158 7.82031 2.21924 8.17188C2.3234 8.51693 2.46012 8.875 2.62939 9.24609C2.79867 9.61068 2.98096 10.0436 3.17627 10.5449C3.37158 11.0397 3.56364 11.6582 3.75244 12.4004C3.94775 13.1426 4.11702 14.0671 4.26025 15.1738H7.83447C7.95166 14.3275 8.08187 13.5983 8.2251 12.9863C8.36833 12.3678 8.51481 11.834 8.66455 11.3848C8.81429 10.929 8.95752 10.5319 9.09424 10.1934C9.23096 9.85482 9.35791 9.54232 9.4751 9.25586L10.3442 10.9551C10.1815 11.3522 10.0187 11.7884 9.85596 12.2637C9.6932 12.7324 9.54346 13.2728 9.40674 13.8848C9.27002 14.4902 9.1626 15.1966 9.08447 16.0039C9.07145 16.1602 9.01611 16.2904 8.91846 16.3945C8.82731 16.4922 8.69385 16.541 8.51807 16.541H3.58643ZM3.55713 18.3965C3.40088 18.3965 3.27067 18.3444 3.1665 18.2402C3.06234 18.1296 3.01025 17.9993 3.01025 17.8496C3.01025 17.6934 3.06234 17.5632 3.1665 17.459C3.27067 17.3483 3.40088 17.293 3.55713 17.293H8.54736C8.70361 17.293 8.83708 17.3451 8.94775 17.4492C9.05843 17.5534 9.11377 17.6868 9.11377 17.8496C9.11377 18.0059 9.05843 18.1361 8.94775 18.2402C8.83708 18.3444 8.70361 18.3965 8.54736 18.3965H3.55713ZM6.05713 20.8379C5.40609 20.8379 4.84294 20.6816 4.36768 20.3691C3.89893 20.0566 3.65804 19.6497 3.64502 19.1484H8.479C8.46598 19.6497 8.21859 20.0566 7.73682 20.3691C7.26156 20.6816 6.70166 20.8379 6.05713 20.8379Z" fill="currentColor"/>
</svg>
