<svg width="20" height="16" viewBox="0 0 20 16" fill="currentColor" xmlns="http://www.w3.org/2000/svg">
<path d="M5.70312 2.8418C5.48177 2.8418 5.29297 2.76693 5.13672 2.61719C4.98698 2.46745 4.91211 2.2819 4.91211 2.06055C4.91211 1.83919 4.98698 1.65365 5.13672 1.50391C5.29297 1.34766 5.48177 1.26953 5.70312 1.26953H19.043C19.2643 1.26953 19.4499 1.34766 19.5996 1.50391C19.7559 1.65365 19.834 1.83919 19.834 2.06055C19.834 2.2819 19.7559 2.46745 19.5996 2.61719C19.4499 2.76693 19.2643 2.8418 19.043 2.8418H5.70312ZM5.70312 8.75C5.48177 8.75 5.29297 8.67513 5.13672 8.52539C4.98698 8.36914 4.91211 8.18034 4.91211 7.95898C4.91211 7.73763 4.98698 7.55208 5.13672 7.40234C5.29297 7.2526 5.48177 7.17773 5.70312 7.17773H19.043C19.2643 7.17773 19.4499 7.2526 19.5996 7.40234C19.7559 7.55208 19.834 7.73763 19.834 7.95898C19.834 8.18034 19.7559 8.36914 19.5996 8.52539C19.4499 8.67513 19.2643 8.75 19.043 8.75H5.70312ZM5.70312 14.6484C5.48177 14.6484 5.29297 14.5736 5.13672 14.4238C4.98698 14.2741 4.91211 14.0885 4.91211 13.8672C4.91211 13.6458 4.98698 13.4603 5.13672 13.3105C5.29297 13.1543 5.48177 13.0762 5.70312 13.0762H19.043C19.2643 13.0762 19.4499 13.1543 19.5996 13.3105C19.7559 13.4603 19.834 13.6458 19.834 13.8672C19.834 14.0885 19.7559 14.2741 19.5996 14.4238C19.4499 14.5736 19.2643 14.6484 19.043 14.6484H5.70312ZM1.38672 3.28125C1.04818 3.28125 0.758464 3.16406 0.517578 2.92969C0.276693 2.6888 0.15625 2.39909 0.15625 2.06055C0.15625 1.71549 0.276693 1.42578 0.517578 1.19141C0.758464 0.950521 1.04818 0.830078 1.38672 0.830078C1.72526 0.830078 2.01497 0.950521 2.25586 1.19141C2.49674 1.42578 2.61719 1.71549 2.61719 2.06055C2.61719 2.39909 2.49674 2.6888 2.25586 2.92969C2.01497 3.16406 1.72526 3.28125 1.38672 3.28125ZM1.38672 9.18945C1.04818 9.18945 0.758464 9.06901 0.517578 8.82812C0.276693 8.58724 0.15625 8.29753 0.15625 7.95898C0.15625 7.62044 0.276693 7.33073 0.517578 7.08984C0.758464 6.84896 1.04818 6.72852 1.38672 6.72852C1.72526 6.72852 2.01497 6.84896 2.25586 7.08984C2.49674 7.33073 2.61719 7.62044 2.61719 7.95898C2.61719 8.29753 2.49674 8.58724 2.25586 8.82812C2.01497 9.06901 1.72526 9.18945 1.38672 9.18945ZM1.38672 15.0977C1.04818 15.0977 0.758464 14.9772 0.517578 14.7363C0.276693 14.4954 0.15625 14.2057 0.15625 13.8672C0.15625 13.5221 0.276693 13.2324 0.517578 12.998C0.758464 12.7572 1.04818 12.6367 1.38672 12.6367C1.72526 12.6367 2.01497 12.7572 2.25586 12.998C2.49674 13.2324 2.61719 13.5221 2.61719 13.8672C2.61719 14.2057 2.49674 14.4954 2.25586 14.7363C2.01497 14.9772 1.72526 15.0977 1.38672 15.0977Z" fill="currentColor"/>
</svg>
