<svg width="25" height="12" viewBox="0 0 25 12" fill="currentColor" xmlns="http://www.w3.org/2000/svg">
<path d="M24.6099 3.62109V8.95312C24.6099 9.81901 24.3885 10.4733 23.9458 10.916C23.5031 11.3587 22.8423 11.5801 21.9634 11.5801H3.36963C2.49723 11.5801 1.83643 11.3587 1.38721 10.916C0.944499 10.4733 0.723145 9.81901 0.723145 8.95312V3.62109C0.723145 2.75521 0.944499 2.10091 1.38721 1.6582C1.82992 1.21549 2.48747 0.994141 3.35986 0.994141H21.9536C22.8325 0.994141 23.4933 1.21549 23.936 1.6582C24.3853 2.10091 24.6099 2.75521 24.6099 3.62109ZM23.0278 3.9043C23.0278 3.46159 22.9139 3.12956 22.686 2.9082C22.4582 2.68034 22.1359 2.56641 21.7192 2.56641H3.61377C3.19059 2.56641 2.86507 2.68034 2.63721 2.9082C2.40934 3.12956 2.29541 3.46159 2.29541 3.9043V8.66992C2.29541 9.10612 2.40934 9.43815 2.63721 9.66602C2.86507 9.89388 3.18734 10.0078 3.604 10.0078H21.7095C22.1326 10.0078 22.4582 9.89388 22.686 9.66602C22.9139 9.43815 23.0278 9.10612 23.0278 8.66992V3.9043ZM4.45361 2.01953V7.15625C4.45361 7.26693 4.41781 7.36133 4.34619 7.43945C4.27458 7.51758 4.18018 7.55664 4.06299 7.55664C3.95231 7.55664 3.85791 7.52083 3.77979 7.44922C3.70166 7.37109 3.6626 7.27669 3.6626 7.16602V2.01953H4.45361ZM6.18213 2.01953V5.4375C6.18213 5.55469 6.14632 5.65234 6.07471 5.73047C6.00309 5.80208 5.90544 5.83789 5.78174 5.83789C5.67757 5.83789 5.58643 5.80208 5.5083 5.73047C5.43018 5.65885 5.39111 5.56445 5.39111 5.44727V2.01953H6.18213ZM7.90088 2.01953V5.4375C7.90088 5.55469 7.86182 5.65234 7.78369 5.73047C7.71208 5.80208 7.61768 5.83789 7.50049 5.83789C7.38981 5.83789 7.29541 5.80208 7.21729 5.73047C7.13916 5.65885 7.1001 5.56445 7.1001 5.44727V2.01953H7.90088ZM9.60986 2.01953V5.4375C9.60986 5.55469 9.57406 5.65234 9.50244 5.73047C9.43083 5.80208 9.33643 5.83789 9.21924 5.83789C9.10856 5.83789 9.01416 5.80208 8.93604 5.73047C8.85791 5.65885 8.81885 5.56445 8.81885 5.44727V2.01953H9.60986ZM11.3384 2.01953V5.4375C11.3384 5.55469 11.3026 5.65234 11.231 5.73047C11.1593 5.80208 11.0617 5.83789 10.938 5.83789C10.8338 5.83789 10.7427 5.80208 10.6646 5.73047C10.5864 5.65885 10.5474 5.56445 10.5474 5.44727V2.01953H11.3384ZM13.0669 2.01953V7.15625C13.0669 7.26693 13.0311 7.36133 12.9595 7.43945C12.8879 7.51758 12.7902 7.55664 12.6665 7.55664C12.5623 7.55664 12.4712 7.52083 12.3931 7.44922C12.3149 7.37109 12.2759 7.27669 12.2759 7.16602V2.01953H13.0669ZM14.7856 2.01953V5.4375C14.7856 5.55469 14.7466 5.65234 14.6685 5.73047C14.5968 5.80208 14.5024 5.83789 14.3853 5.83789C14.2746 5.83789 14.1802 5.80208 14.1021 5.73047C14.0304 5.65885 13.9946 5.56445 13.9946 5.44727V2.01953H14.7856ZM16.5044 2.01953V5.4375C16.5044 5.55469 16.4686 5.65234 16.397 5.73047C16.3254 5.80208 16.231 5.83789 16.1138 5.83789C16.0031 5.83789 15.9087 5.80208 15.8306 5.73047C15.7524 5.65885 15.7134 5.56445 15.7134 5.44727V2.01953H16.5044ZM18.2231 2.01953V5.4375C18.2231 5.55469 18.1873 5.65234 18.1157 5.73047C18.0441 5.80208 17.9465 5.83789 17.8228 5.83789C17.7186 5.83789 17.6274 5.80208 17.5493 5.73047C17.4712 5.65885 17.4321 5.56445 17.4321 5.44727V2.01953H18.2231ZM19.9517 2.01953V5.4375C19.9517 5.55469 19.9126 5.65234 19.8345 5.73047C19.7629 5.80208 19.6685 5.83789 19.5513 5.83789C19.4406 5.83789 19.3462 5.80208 19.2681 5.73047C19.1965 5.65885 19.1606 5.56445 19.1606 5.44727V2.01953H19.9517ZM21.6704 2.01953V7.15625C21.6704 7.26693 21.6346 7.36133 21.563 7.43945C21.4914 7.51758 21.397 7.55664 21.2798 7.55664C21.1691 7.55664 21.0747 7.52083 20.9966 7.44922C20.9185 7.37109 20.8794 7.27669 20.8794 7.16602V2.01953H21.6704Z" fill="currentColor"/>
</svg>
