<svg width="18" height="18" viewBox="0 0 18 18" fill="currentColor" xmlns="http://www.w3.org/2000/svg">
<path d="M3.43225 18C2.61454 18 1.99996 17.7969 1.5885 17.3906C1.18225 16.9896 0.979126 16.3854 0.979126 15.5781V7.55469C0.979126 6.7474 1.18225 6.14323 1.5885 5.74219C1.99996 5.33594 2.61454 5.13281 3.43225 5.13281H14.8932C15.7057 5.13281 16.3177 5.33594 16.7291 5.74219C17.1406 6.14844 17.3463 6.7526 17.3463 7.55469V15.5781C17.3463 16.3802 17.1406 16.9844 16.7291 17.3906C16.3177 17.7969 15.7057 18 14.8932 18H3.43225ZM3.44788 16.7422H14.8698C15.2552 16.7422 15.5546 16.638 15.7682 16.4297C15.9817 16.2214 16.0885 15.9141 16.0885 15.5078V7.625C16.0885 7.21875 15.9817 6.91146 15.7682 6.70312C15.5546 6.49479 15.2552 6.39062 14.8698 6.39062H3.44788C3.05725 6.39062 2.75777 6.49479 2.54944 6.70312C2.34111 6.91146 2.23694 7.21875 2.23694 7.625V15.5078C2.23694 15.9141 2.34111 16.2214 2.54944 16.4297C2.75777 16.638 3.05725 16.7422 3.44788 16.7422ZM2.62756 3.875C2.68486 3.52083 2.80725 3.25 2.99475 3.0625C3.18225 2.86979 3.47131 2.77344 3.86194 2.77344H14.4713C14.8619 2.77344 15.1484 2.86979 15.3307 3.0625C15.5182 3.25 15.6432 3.52083 15.7057 3.875H2.62756ZM4.23694 1.71094C4.25777 1.3776 4.36194 1.1276 4.54944 0.960938C4.74215 0.789062 5.01819 0.703125 5.37756 0.703125H12.9479C13.3073 0.703125 13.5807 0.789062 13.7682 0.960938C13.9609 1.1276 14.0703 1.3776 14.0963 1.71094H4.23694ZM4.29163 17.3672C4.39579 16.8672 4.59111 16.4089 4.87756 15.9922C5.16923 15.5755 5.53121 15.2135 5.9635 14.9062C6.39579 14.5938 6.88277 14.3542 7.42444 14.1875C7.97131 14.0156 8.55204 13.9297 9.16663 13.9297C9.78642 13.9297 10.3671 14.0156 10.9088 14.1875C11.4557 14.3542 11.9453 14.5938 12.3776 14.9062C12.8099 15.2135 13.1692 15.5755 13.4557 15.9922C13.7474 16.4089 13.9453 16.8672 14.0494 17.3672H4.29163ZM9.16663 12.75C8.71871 12.7448 8.30986 12.6276 7.94006 12.3984C7.57548 12.1641 7.28642 11.849 7.07288 11.4531C6.85933 11.0521 6.74996 10.599 6.74475 10.0938C6.74475 9.61979 6.85152 9.1849 7.06506 8.78906C7.28381 8.39323 7.57548 8.07812 7.94006 7.84375C8.30986 7.60938 8.71871 7.49219 9.16663 7.49219C9.61975 7.49219 10.0286 7.60938 10.3932 7.84375C10.763 8.07812 11.0546 8.39323 11.2682 8.78906C11.4869 9.1849 11.5963 9.61979 11.5963 10.0938C11.5963 10.599 11.4869 11.0521 11.2682 11.4531C11.0546 11.8542 10.763 12.1719 10.3932 12.4062C10.0286 12.6406 9.61975 12.7552 9.16663 12.75Z" fill="currentColor"/>
</svg>
