<svg width="17" height="3" viewBox="0 0 17 3" fill="currentColor" xmlns="http://www.w3.org/2000/svg">
<path d="M1.3125 2.62207C1.15625 2.62207 1.01302 2.58301 0.882812 2.50488C0.752604 2.42676 0.645182 2.32259 0.560547 2.19238C0.482422 2.05566 0.443359 1.90592 0.443359 1.74316C0.443359 1.58691 0.482422 1.44368 0.560547 1.31348C0.645182 1.17676 0.752604 1.06934 0.882812 0.991211C1.01302 0.913086 1.15625 0.874023 1.3125 0.874023H15.6875C15.8438 0.874023 15.987 0.913086 16.1172 0.991211C16.2539 1.06934 16.3613 1.17676 16.4395 1.31348C16.5176 1.44368 16.5566 1.58691 16.5566 1.74316C16.5566 1.90592 16.5176 2.05566 16.4395 2.19238C16.3613 2.32259 16.2539 2.42676 16.1172 2.50488C15.987 2.58301 15.8438 2.62207 15.6875 2.62207H1.3125Z" fill="currentColor"/>
</svg>
