<svg width="20" height="16" viewBox="0 0 20 16" fill="currentColor" xmlns="http://www.w3.org/2000/svg">
<path d="M1.91113 15.6797C1.74186 15.6797 1.59863 15.6439 1.48145 15.5723C1.37077 15.5072 1.28288 15.4193 1.21777 15.3086C1.15267 15.1979 1.1071 15.0775 1.08105 14.9473C1.0485 14.7975 1.02572 14.6087 1.0127 14.3809C0.999674 14.1465 0.993164 13.8861 0.993164 13.5996C0.993164 11.2363 1.50098 9.52083 2.5166 8.45312C3.53223 7.37891 5.19889 6.8418 7.5166 6.8418H14.3428L16.7354 6.97852L13.4443 3.9707L11.2764 1.76367C11.1982 1.68555 11.1396 1.5944 11.1006 1.49023C11.0615 1.37956 11.042 1.26562 11.042 1.14844C11.042 0.907552 11.1234 0.708984 11.2861 0.552734C11.4554 0.389974 11.6605 0.308594 11.9014 0.308594C12.1357 0.308594 12.3538 0.40625 12.5557 0.601562L19.0205 7.05664C19.2223 7.24544 19.3232 7.46354 19.3232 7.71094C19.3232 7.95833 19.2223 8.17969 19.0205 8.375L12.5361 14.8496C12.3473 15.0319 12.1357 15.123 11.9014 15.123C11.6605 15.123 11.4554 15.0449 11.2861 14.8887C11.1234 14.7259 11.042 14.5241 11.042 14.2832C11.042 14.166 11.0615 14.0521 11.1006 13.9414C11.1462 13.8307 11.2048 13.7363 11.2764 13.6582L13.4443 11.4512L16.7451 8.44336L14.3428 8.58984H7.60449C6.40658 8.58984 5.4528 8.76237 4.74316 9.10742C4.04004 9.45247 3.53223 9.99935 3.21973 10.748C2.91374 11.4967 2.76074 12.4766 2.76074 13.6875C2.76074 13.9154 2.764 14.1172 2.77051 14.293C2.78353 14.4688 2.79004 14.6413 2.79004 14.8105C2.79004 15.0645 2.7054 15.2728 2.53613 15.4355C2.37337 15.5983 2.16504 15.6797 1.91113 15.6797Z" fill="currentColor"/>
</svg>
