<svg viewBox="0 0 65 36" fill="none" xmlns="http://www.w3.org/2000/svg">
<g clip-path="url(#clip0_984_96307)">
<path d="M0.120483 36.0007C0.120483 36.0007 17.7239 33.055 28.957 33.4587V12.2462L23.1386 9.74268L16.9606 13.8171V30.7726L17.8912 30.4034V14.6401L22.2502 11.6617V31.1571C22.2502 31.1571 8.27901 31.9859 0.120483 36.0007Z" fill="#010101"/>
<path d="M64.6081 35.926C64.6081 35.926 44.205 32.9802 31.7932 33.459V2.17279L27.7053 4.84359V10.662L26.4535 9.99867V4.18021L32.7142 0V30.6517H33.7814V0.498011L35.5869 1.38251V15.6537L34.464 16.5016V30.7921C34.464 30.7921 39.8171 30.7498 40.8824 30.944V14.8076L36.7291 17.4784V29.7787H35.5504V16.9074L41.6823 12.8656L47.6488 15.2134V31.6477C47.6488 31.6477 58.1628 32.8725 64.6081 35.9298V35.926Z" fill="#0A5595"/>
<path d="M36.6271 1.62061V15.1265L38.6153 13.7728V2.39358L36.6271 1.62061Z" fill="#0A5595"/>
</g>
<defs>
<clipPath id="clip0_984_96307">
<rect width="65" height="36.001" fill="white"/>
</clipPath>
</defs>
</svg>
