<svg xmlns="http://www.w3.org/2000/svg" viewBox="0 0 212 54" fill="none">
<g clip-path="url(#clip0_4106_26625)">
<path d="M0.287109 53.9994C0.287109 53.9994 26.6915 49.5809 43.5408 50.1866V18.3686L34.8133 14.6134L25.5465 20.7249V46.1574L26.9425 45.6036V21.9593L33.4808 17.4918V46.7342C33.4808 46.7342 12.5246 47.9773 0.287109 53.9994Z" fill="#010101"/>
<path d="M97.0159 53.8869C97.0159 53.8869 66.4121 49.4684 47.7949 50.1865V3.25848L41.6632 7.26457V15.992L39.7856 14.997V6.26954L49.1764 -0.000610352V45.9757H50.7772V0.746385L53.4854 2.0731V23.4793L51.801 24.7512V46.1862C51.801 46.1862 59.8305 46.1228 61.4283 46.4141V22.2103L55.1986 26.2163V44.6663H53.4306V25.3597L62.6281 19.2973L71.5777 22.8188V47.4697C71.5777 47.4697 87.3482 49.3069 97.0159 53.8927V53.8869Z" fill="#0A5595"/>
<path d="M55.0454 2.43066V22.689L58.0276 20.6585V3.59009L55.0454 2.43066Z" fill="#0A5595"/>
<path d="M79.4257 23.6869C78.272 22.6745 77.9663 21.3565 77.9663 20.2144C77.9663 19.4126 78.2143 18.0253 79.3449 16.987C80.1929 16.2112 81.3119 15.7382 83.0655 15.7382C83.7952 15.7382 84.2307 15.7843 84.7729 15.8564C85.22 15.9141 85.5978 16.0208 85.9497 16.0554C86.0794 16.067 86.1256 16.1275 86.1256 16.1967C86.1256 16.2919 86.091 16.4332 86.0679 16.8457C86.0448 17.235 86.0564 17.8811 86.0333 18.1176C86.0217 18.2935 85.9987 18.3887 85.892 18.3887C85.7968 18.3887 85.7737 18.2935 85.7737 18.1291C85.7622 17.7628 85.6093 17.3533 85.3151 17.0447C84.9258 16.6322 84.0086 16.315 82.9242 16.315C81.9003 16.315 81.2283 16.5746 80.7091 17.0447C79.8497 17.8349 79.6247 18.954 79.6247 20.0932C79.6247 22.8966 81.7561 24.2868 83.3337 24.2868C84.3807 24.2868 85.0181 24.1685 85.4882 23.6263C85.6872 23.4014 85.84 23.061 85.8891 22.8505C85.9237 22.663 85.9468 22.614 86.0419 22.614C86.1256 22.614 86.1487 22.6976 86.1487 22.7899C86.1487 22.9312 86.0073 23.9551 85.8891 24.356C85.8314 24.555 85.7824 24.6156 85.5834 24.6963C85.1132 24.8838 84.2163 24.9674 83.4635 24.9674C81.8513 24.9674 80.4957 24.6127 79.4257 23.684V23.6869Z" fill="#0A5595"/>
<path d="M87.3916 20.3556C87.3916 18.3425 88.7212 15.741 92.2543 15.741C95.1875 15.741 97.0102 17.4484 97.0102 20.1451C97.0102 22.8418 95.1269 24.9731 92.136 24.9731C88.7558 24.9731 87.3916 22.4409 87.3916 20.3585V20.3556ZM95.3634 20.5806C95.3634 17.9416 93.8435 16.3063 91.914 16.3063C90.5613 16.3063 89.0183 17.059 89.0183 19.9922C89.0183 22.4409 90.3709 24.3848 92.6321 24.3848C93.457 24.3848 95.3634 23.9839 95.3634 20.5806Z" fill="#0A5595"/>
<path d="M98.9486 24.6646C98.7611 24.5809 98.7236 24.5232 98.7236 24.2637C98.7236 23.6147 98.7698 22.9081 98.7813 22.7206C98.7929 22.5447 98.8275 22.4149 98.9226 22.4149C99.0294 22.4149 99.0409 22.5216 99.0409 22.6139C99.0409 22.7668 99.087 23.0148 99.1476 23.2138C99.4072 24.0849 100.102 24.4021 100.832 24.4021C101.89 24.4021 102.41 23.684 102.41 23.061C102.41 22.4841 102.234 21.9419 101.256 21.1776L100.714 20.7537C99.4187 19.7413 98.9717 18.9164 98.9717 17.9618C98.9717 16.6668 100.056 15.7352 101.691 15.7352C102.456 15.7352 102.952 15.8535 103.258 15.9342C103.364 15.9573 103.422 15.9919 103.422 16.0756C103.422 16.2284 103.376 16.5687 103.376 17.4888C103.376 17.7484 103.341 17.8407 103.246 17.8407C103.162 17.8407 103.128 17.7714 103.128 17.6301C103.128 17.5234 103.07 17.16 102.822 16.8543C102.646 16.6322 102.303 16.2774 101.539 16.2774C100.668 16.2774 100.137 16.7822 100.137 17.4888C100.137 18.031 100.408 18.4434 101.386 19.1847L101.715 19.4327C103.139 20.5056 103.647 21.3161 103.647 22.4351C103.647 23.1187 103.387 23.9291 102.539 24.4829C101.951 24.8607 101.291 24.9674 100.668 24.9674C99.984 24.9674 99.4533 24.8838 98.9486 24.6617V24.6646Z" fill="#0A5595"/>
<path d="M108.016 16.563L106.263 16.6091C105.579 16.6322 105.297 16.6899 105.121 16.9495C105.002 17.1254 104.945 17.2667 104.922 17.3619C104.898 17.4571 104.864 17.5032 104.792 17.5032C104.711 17.5032 104.685 17.4455 104.685 17.3157C104.685 17.1283 104.91 16.0554 104.933 15.9602C104.968 15.8073 105.005 15.7352 105.074 15.7352C105.17 15.7352 105.285 15.8535 105.579 15.8766C105.919 15.9112 106.369 15.9342 106.756 15.9342H111.42C111.797 15.9342 112.054 15.8996 112.233 15.8766C112.409 15.8419 112.504 15.8189 112.55 15.8189C112.631 15.8189 112.645 15.891 112.645 16.0669C112.645 16.3149 112.611 17.1254 112.611 17.434C112.599 17.5522 112.576 17.6215 112.504 17.6215C112.409 17.6215 112.386 17.5638 112.374 17.385L112.363 17.2552C112.34 16.9495 112.022 16.6207 110.973 16.5947L109.49 16.5601V21.3882C109.49 22.4726 109.49 23.4013 109.548 23.9089C109.582 24.2377 109.654 24.4973 110.006 24.5434C110.171 24.5665 110.43 24.5896 110.606 24.5896C110.736 24.5896 110.794 24.6242 110.794 24.6848C110.794 24.7684 110.699 24.803 110.569 24.803C109.793 24.803 109.049 24.7684 108.72 24.7684C108.449 24.7684 107.708 24.803 107.238 24.803C107.085 24.803 107.001 24.7684 107.001 24.6848C107.001 24.6271 107.047 24.5896 107.189 24.5896C107.364 24.5896 107.506 24.5665 107.612 24.5434C107.849 24.4973 107.918 24.2377 107.953 23.8945C108.01 23.4013 108.01 22.4697 108.01 21.3853V16.5572L108.016 16.563Z" fill="#0A5595"/>
<path d="M117.702 24.6646C117.514 24.5809 117.477 24.5232 117.477 24.2637C117.477 23.6147 117.523 22.9081 117.534 22.7206C117.546 22.5447 117.58 22.4149 117.676 22.4149C117.782 22.4149 117.794 22.5216 117.794 22.6139C117.794 22.7668 117.84 23.0148 117.901 23.2138C118.16 24.0849 118.855 24.4021 119.585 24.4021C120.643 24.4021 121.163 23.684 121.163 23.061C121.163 22.4841 120.987 21.9419 120.009 21.1776L119.467 20.7537C118.172 19.7413 117.725 18.9164 117.725 17.9618C117.725 16.6668 118.809 15.7352 120.444 15.7352C121.209 15.7352 121.705 15.8535 122.01 15.9342C122.117 15.9573 122.175 15.9919 122.175 16.0756C122.175 16.2284 122.129 16.5687 122.129 17.4888C122.129 17.7484 122.094 17.8407 121.999 17.8407C121.915 17.8407 121.881 17.7714 121.881 17.6301C121.881 17.5234 121.823 17.16 121.575 16.8543C121.399 16.6322 121.056 16.2774 120.291 16.2774C119.42 16.2774 118.89 16.7822 118.89 17.4888C118.89 18.031 119.161 18.4434 120.139 19.1847L120.467 19.4327C121.892 20.5056 122.4 21.3161 122.4 22.4351C122.4 23.1187 122.14 23.9291 121.292 24.4829C120.704 24.8607 120.043 24.9674 119.42 24.9674C118.737 24.9674 118.206 24.8838 117.702 24.6617V24.6646Z" fill="#0A5595"/>
<path d="M125.206 19.3201C125.206 17.5291 125.206 17.2003 125.183 16.8253C125.16 16.4244 125.065 16.237 124.675 16.1533C124.58 16.1302 124.381 16.1187 124.217 16.1187C124.087 16.1187 124.018 16.0956 124.018 16.012C124.018 15.9284 124.101 15.9053 124.277 15.9053C124.594 15.9053 124.938 15.9168 125.232 15.9168C125.538 15.9284 125.809 15.9399 125.973 15.9399C126.351 15.9399 128.693 15.9399 128.918 15.9284C129.143 15.9053 129.33 15.8822 129.422 15.8591C129.48 15.8476 129.552 15.813 129.61 15.813C129.668 15.813 129.682 15.8591 129.682 15.9197C129.682 16.0005 129.624 16.1447 129.587 16.684C129.575 16.8023 129.552 17.3214 129.529 17.4598C129.518 17.5175 129.495 17.5896 129.411 17.5896C129.327 17.5896 129.304 17.5319 129.304 17.4252C129.304 17.3416 129.293 17.1426 129.232 17.0013C129.148 16.7878 129.033 16.6494 128.442 16.5773C128.243 16.5542 127.006 16.5311 126.769 16.5311C126.711 16.5311 126.685 16.5658 126.685 16.6494V19.6287C126.685 19.7124 126.697 19.7585 126.769 19.7585C127.029 19.7585 128.381 19.7585 128.652 19.7354C128.935 19.7124 129.111 19.6778 129.218 19.5595C129.301 19.4643 129.347 19.4066 129.405 19.4066C129.451 19.4066 129.489 19.4297 129.489 19.5018C129.489 19.5739 129.443 19.7614 129.394 20.3613C129.382 20.5978 129.347 21.0679 129.347 21.1516C129.347 21.2467 129.347 21.3765 129.241 21.3765C129.157 21.3765 129.134 21.3304 129.134 21.2698C129.123 21.1516 129.123 20.9987 129.088 20.8458C129.03 20.6122 128.863 20.4334 128.427 20.3873C128.202 20.3642 127.037 20.3526 126.755 20.3526C126.697 20.3526 126.683 20.3988 126.683 20.4709V21.3996C126.683 21.8005 126.671 22.8849 126.683 23.2253C126.706 24.0386 126.896 24.2145 128.096 24.2145C128.401 24.2145 128.898 24.2145 129.203 24.0732C129.509 23.9319 129.65 23.6838 129.734 23.2022C129.757 23.0724 129.78 23.0263 129.864 23.0263C129.959 23.0263 129.959 23.1214 129.959 23.2397C129.959 23.5108 129.864 24.3126 129.806 24.5462C129.722 24.8519 129.619 24.8519 129.172 24.8519C128.289 24.8519 127.64 24.8289 127.135 24.8173C126.631 24.7942 126.264 24.7827 125.912 24.7827C125.783 24.7827 125.523 24.7827 125.24 24.7942C124.969 24.7942 124.664 24.8173 124.427 24.8173C124.274 24.8173 124.191 24.7827 124.191 24.6991C124.191 24.6414 124.237 24.6039 124.378 24.6039C124.554 24.6039 124.695 24.5808 124.802 24.5577C125.039 24.5116 125.096 24.252 125.142 23.9088C125.2 23.4156 125.2 22.484 125.2 21.3996V19.3288L125.206 19.3201Z" fill="#0A5595"/>
<path d="M139.797 24.0184C139.797 24.3357 139.786 24.3616 139.644 24.4424C138.88 24.8433 137.726 24.9731 136.806 24.9731C133.922 24.9731 131.367 23.606 131.367 20.3584C131.367 18.4751 132.344 17.1541 133.414 16.5081C134.545 15.8245 135.595 15.7438 136.581 15.7438C137.395 15.7438 138.43 15.8851 138.666 15.9312C138.915 15.9774 139.327 16.0495 139.598 16.061C139.739 16.0726 139.762 16.1187 139.762 16.2024C139.762 16.3321 139.679 16.6609 139.679 18.1347C139.679 18.3222 139.644 18.3828 139.549 18.3828C139.465 18.3828 139.442 18.3251 139.431 18.2299C139.396 17.9588 139.338 17.581 139.03 17.2522C138.675 16.8744 137.735 16.3321 136.402 16.3321C135.753 16.3321 134.894 16.3783 134.072 17.0618C133.412 17.6156 132.988 18.4981 132.988 19.946C132.988 22.4783 134.6 24.3732 137.086 24.3732C137.392 24.3732 137.804 24.3732 138.087 24.2434C138.263 24.1597 138.312 24.0069 138.312 23.8079V22.7004C138.312 22.112 138.312 21.6649 138.3 21.3102C138.289 20.9093 138.182 20.7218 137.795 20.6382C137.7 20.6151 137.501 20.6036 137.337 20.6036C137.23 20.6036 137.161 20.5805 137.161 20.5084C137.161 20.4132 137.245 20.3901 137.409 20.3901C138.02 20.3901 138.762 20.4248 139.116 20.4248C139.471 20.4248 140.106 20.3901 140.495 20.3901C140.648 20.3901 140.732 20.4132 140.732 20.5084C140.732 20.5805 140.659 20.6036 140.579 20.6036C140.484 20.6036 140.403 20.6151 140.261 20.6382C139.944 20.6959 139.826 20.8978 139.814 21.3102C139.803 21.6621 139.803 22.1351 139.803 22.7234V24.0184H139.797Z" fill="#0A5595"/>
<path d="M143.088 19.3202C143.088 17.5292 143.088 17.2004 143.065 16.8254C143.042 16.4245 142.946 16.2371 142.56 16.1534C142.465 16.1304 142.266 16.1188 142.101 16.1188C141.972 16.1188 141.902 16.0957 141.902 16.0121C141.902 15.9285 141.986 15.9054 142.162 15.9054C142.785 15.9054 143.529 15.94 143.774 15.94C144.175 15.94 145.069 15.9054 145.433 15.9054C146.174 15.9054 146.964 15.9746 147.599 16.4101C147.927 16.6351 148.4 17.235 148.4 18.0224C148.4 18.8934 148.037 19.6952 146.846 20.6585C147.893 21.9765 148.706 23.0264 149.401 23.7561C150.062 24.4396 150.543 24.5204 150.719 24.5579C150.849 24.5809 150.956 24.5925 151.048 24.5925C151.14 24.5925 151.189 24.6271 151.189 24.6876C151.189 24.7828 151.106 24.8059 150.964 24.8059H149.845C149.185 24.8059 148.894 24.7482 148.585 24.5809C148.08 24.3098 147.63 23.7561 146.973 22.8504C146.503 22.2015 145.96 21.4026 145.807 21.2267C145.75 21.1546 145.678 21.143 145.594 21.143L144.57 21.1199C144.513 21.1199 144.478 21.143 144.478 21.2151V21.3795C144.478 22.4755 144.478 23.4042 144.536 23.9003C144.57 24.2435 144.642 24.5002 144.994 24.5492C145.17 24.5723 145.43 24.5953 145.571 24.5953C145.666 24.5953 145.712 24.63 145.712 24.6905C145.712 24.7742 145.629 24.8088 145.476 24.8088C144.792 24.8088 143.921 24.7742 143.745 24.7742C143.52 24.7742 142.779 24.8088 142.309 24.8088C142.156 24.8088 142.075 24.7742 142.075 24.6905C142.075 24.6328 142.122 24.5953 142.263 24.5953C142.439 24.5953 142.58 24.5723 142.687 24.5492C142.923 24.5031 142.981 24.2435 143.03 23.9003C143.088 23.4071 143.088 22.4755 143.088 21.3911V19.3202ZM144.478 20.2518C144.478 20.3816 144.501 20.4277 144.585 20.4652C144.833 20.5489 145.185 20.5835 145.479 20.5835C145.949 20.5835 146.102 20.5373 146.315 20.3845C146.67 20.1249 147.01 19.5827 147.01 18.6194C147.01 16.9466 145.903 16.4649 145.21 16.4649C144.916 16.4649 144.703 16.4765 144.585 16.5111C144.504 16.5341 144.478 16.5832 144.478 16.6755V20.2547V20.2518Z" fill="#0A5595"/>
<path d="M151.982 19.3201C151.982 17.5291 151.982 17.2003 151.959 16.8253C151.936 16.4244 151.841 16.237 151.454 16.1533C151.359 16.1302 151.16 16.1187 150.996 16.1187C150.866 16.1187 150.797 16.0956 150.797 16.012C150.797 15.9284 150.881 15.9053 151.056 15.9053C151.374 15.9053 151.717 15.9168 152.008 15.9168C152.314 15.9284 152.585 15.9399 152.749 15.9399C153.127 15.9399 155.469 15.9399 155.694 15.9284C155.916 15.9053 156.107 15.8822 156.199 15.8591C156.257 15.8476 156.329 15.813 156.386 15.813C156.444 15.813 156.456 15.8591 156.456 15.9197C156.456 16.0005 156.398 16.1447 156.363 16.684C156.352 16.8023 156.329 17.3214 156.306 17.4598C156.294 17.5175 156.271 17.5896 156.187 17.5896C156.104 17.5896 156.081 17.5319 156.081 17.4252C156.081 17.3416 156.069 17.1426 156.009 17.0013C155.925 16.7878 155.81 16.6494 155.218 16.5773C155.019 16.5542 153.782 16.5311 153.545 16.5311C153.488 16.5311 153.462 16.5658 153.462 16.6494V19.6287C153.462 19.7124 153.473 19.7585 153.545 19.7585C153.805 19.7585 155.158 19.7585 155.429 19.7354C155.711 19.7124 155.887 19.6778 155.994 19.5595C156.078 19.4643 156.124 19.4066 156.182 19.4066C156.228 19.4066 156.265 19.4297 156.265 19.5018C156.265 19.5739 156.219 19.7614 156.17 20.3613C156.159 20.5978 156.124 21.0679 156.124 21.1516C156.124 21.2467 156.124 21.3765 156.017 21.3765C155.934 21.3765 155.91 21.3304 155.91 21.2698C155.899 21.1516 155.899 20.9987 155.864 20.8458C155.807 20.6122 155.642 20.4334 155.204 20.3873C154.979 20.3642 153.814 20.3526 153.531 20.3526C153.473 20.3526 153.459 20.3988 153.459 20.4709V21.3996C153.459 21.8005 153.447 22.8849 153.459 23.2253C153.482 24.0386 153.672 24.2145 154.872 24.2145C155.178 24.2145 155.674 24.2145 155.98 24.0732C156.285 23.9319 156.427 23.6838 156.51 23.2022C156.533 23.0724 156.557 23.0263 156.64 23.0263C156.735 23.0263 156.735 23.1214 156.735 23.2397C156.735 23.5108 156.64 24.3126 156.582 24.5462C156.499 24.8519 156.395 24.8519 155.948 24.8519C155.065 24.8519 154.417 24.8289 153.912 24.8173C153.407 24.7942 153.041 24.7827 152.689 24.7827C152.559 24.7827 152.3 24.7827 152.017 24.7942C151.746 24.7942 151.44 24.8173 151.204 24.8173C151.051 24.8173 150.97 24.7827 150.97 24.6991C150.97 24.6414 151.016 24.6039 151.157 24.6039C151.333 24.6039 151.475 24.5808 151.581 24.5577C151.818 24.5116 151.876 24.252 151.925 23.9088C151.982 23.4156 151.982 22.484 151.982 21.3996V19.3288V19.3201Z" fill="#0A5595"/>
<path d="M166.573 24.0184C166.573 24.3357 166.562 24.3616 166.421 24.4424C165.656 24.8433 164.503 24.9731 163.583 24.9731C160.698 24.9731 158.143 23.606 158.143 20.3584C158.143 18.4751 159.121 17.1541 160.191 16.5081C161.321 15.8245 162.371 15.7438 163.358 15.7438C164.171 15.7438 165.206 15.8851 165.443 15.9312C165.691 15.9774 166.103 16.0495 166.374 16.061C166.516 16.0726 166.539 16.1187 166.539 16.2024C166.539 16.3321 166.455 16.6609 166.455 18.1347C166.455 18.3222 166.421 18.3828 166.325 18.3828C166.242 18.3828 166.219 18.3251 166.207 18.2299C166.173 17.9588 166.115 17.581 165.806 17.2522C165.452 16.8744 164.511 16.3321 163.179 16.3321C162.53 16.3321 161.67 16.3783 160.848 17.0618C160.188 17.6156 159.764 18.4981 159.764 19.946C159.764 22.4783 161.376 24.3732 163.862 24.3732C164.168 24.3732 164.58 24.3732 164.863 24.2434C165.039 24.1597 165.088 24.0069 165.088 23.8079V22.7004C165.088 22.112 165.088 21.6649 165.077 21.3102C165.065 20.9093 164.958 20.7218 164.572 20.6382C164.477 20.6151 164.278 20.6036 164.113 20.6036C164.007 20.6036 163.937 20.5805 163.937 20.5084C163.937 20.4132 164.021 20.3901 164.185 20.3901C164.797 20.3901 165.538 20.4248 165.893 20.4248C166.248 20.4248 166.882 20.3901 167.271 20.3901C167.424 20.3901 167.508 20.4132 167.508 20.5084C167.508 20.5805 167.436 20.6036 167.355 20.6036C167.26 20.6036 167.179 20.6151 167.038 20.6382C166.721 20.6959 166.602 20.8978 166.591 21.3102C166.579 21.6621 166.579 22.1351 166.579 22.7234V24.0184H166.573Z" fill="#0A5595"/>
<path d="M170.334 21.7341C170.277 21.7341 170.251 21.7572 170.228 21.8293L169.593 23.5136C169.475 23.8078 169.417 24.0905 169.417 24.2318C169.417 24.4423 169.524 24.5952 169.887 24.5952H170.063C170.205 24.5952 170.239 24.6183 170.239 24.6904C170.239 24.7856 170.167 24.8086 170.04 24.8086C169.662 24.8086 169.158 24.774 168.791 24.774C168.662 24.774 168.016 24.8086 167.401 24.8086C167.248 24.8086 167.176 24.7856 167.176 24.6904C167.176 24.6183 167.222 24.5952 167.318 24.5952C167.424 24.5952 167.589 24.5837 167.681 24.5721C168.223 24.5 168.445 24.102 168.682 23.5136L171.638 16.1187C171.779 15.7783 171.851 15.6486 171.967 15.6486C172.074 15.6486 172.143 15.7553 172.261 16.0264C172.544 16.6753 174.427 21.4774 175.18 23.2685C175.627 24.3299 175.97 24.4943 176.215 24.5519C176.391 24.5866 176.57 24.5981 176.708 24.5981C176.804 24.5981 176.861 24.6096 176.861 24.6933C176.861 24.7884 176.755 24.8115 176.319 24.8115C175.884 24.8115 175.036 24.8115 174.092 24.7884C173.879 24.7769 173.738 24.7769 173.738 24.6933C173.738 24.6212 173.784 24.5981 173.902 24.5866C173.986 24.5635 174.067 24.4568 174.009 24.3154L173.066 21.8178C173.043 21.7601 173.008 21.7341 172.947 21.7341H170.323H170.334ZM172.737 21.1458C172.795 21.1458 172.809 21.1111 172.795 21.0737L171.733 18.1664C171.722 18.1203 171.71 18.0597 171.676 18.0597C171.641 18.0597 171.618 18.1174 171.603 18.1664L170.522 21.0621C170.51 21.1083 170.522 21.1458 170.568 21.1458H172.734H172.737Z" fill="#0A5595"/>
<path d="M178.912 16.563L177.158 16.6091C176.475 16.6322 176.192 16.6899 176.016 16.9495C175.898 17.1254 175.84 17.2667 175.817 17.3619C175.794 17.4571 175.759 17.5032 175.687 17.5032C175.604 17.5032 175.581 17.4455 175.581 17.3157C175.581 17.1283 175.803 16.0554 175.829 15.9602C175.863 15.8073 175.901 15.7352 175.97 15.7352C176.065 15.7352 176.183 15.8535 176.478 15.8766C176.818 15.9112 177.268 15.9342 177.654 15.9342H182.318C182.696 15.9342 182.952 15.8996 183.131 15.8766C183.307 15.8419 183.402 15.8189 183.449 15.8189C183.532 15.8189 183.544 15.891 183.544 16.0669C183.544 16.3149 183.509 17.1254 183.509 17.434C183.498 17.5522 183.474 17.6215 183.402 17.6215C183.31 17.6215 183.284 17.5638 183.273 17.385L183.261 17.2552C183.238 16.9495 182.918 16.6207 181.871 16.5947L180.388 16.5601V21.3882C180.388 22.4726 180.388 23.4013 180.446 23.9089C180.481 24.2377 180.553 24.4973 180.905 24.5434C181.069 24.5665 181.329 24.5896 181.505 24.5896C181.634 24.5896 181.692 24.6242 181.692 24.6848C181.692 24.7684 181.597 24.803 181.467 24.803C180.691 24.803 179.947 24.7684 179.618 24.7684C179.347 24.7684 178.606 24.803 178.136 24.803C177.983 24.803 177.902 24.7684 177.902 24.6848C177.902 24.6271 177.948 24.5896 178.09 24.5896C178.266 24.5896 178.407 24.5665 178.514 24.5434C178.75 24.4973 178.819 24.2377 178.854 23.8945C178.912 23.4013 178.912 22.4697 178.912 21.3853V16.5572V16.563Z" fill="#0A5595"/>
<path d="M185.71 19.3202C185.71 17.5292 185.71 17.2004 185.687 16.8254C185.664 16.4245 185.545 16.2255 185.286 16.165C185.156 16.1304 185.003 16.1188 184.862 16.1188C184.744 16.1188 184.674 16.0957 184.674 16.0006C184.674 15.9285 184.769 15.9054 184.957 15.9054C185.404 15.9054 186.148 15.94 186.488 15.94C186.783 15.94 187.478 15.9054 187.925 15.9054C188.078 15.9054 188.173 15.9285 188.173 16.0006C188.173 16.0957 188.101 16.1188 187.985 16.1188C187.87 16.1188 187.775 16.1304 187.633 16.1534C187.316 16.2111 187.221 16.413 187.198 16.8254C187.175 17.2033 187.175 17.5321 187.175 19.3202V21.3911C187.175 22.5332 187.175 23.4648 187.221 23.9695C187.256 24.2867 187.339 24.5002 187.691 24.5463C187.856 24.5694 188.115 24.5925 188.291 24.5925C188.421 24.5925 188.479 24.6271 188.479 24.6876C188.479 24.7713 188.383 24.8059 188.254 24.8059C187.478 24.8059 186.734 24.7713 186.416 24.7713C186.145 24.7713 185.404 24.8059 184.931 24.8059C184.778 24.8059 184.697 24.7713 184.697 24.6876C184.697 24.63 184.744 24.5925 184.885 24.5925C185.061 24.5925 185.202 24.5694 185.309 24.5463C185.545 24.5002 185.615 24.2983 185.652 23.958C185.71 23.4648 185.71 22.5332 185.71 21.3911V19.3202Z" fill="#0A5595"/>
<path d="M189.632 20.3556C189.632 18.3425 190.961 15.741 194.495 15.741C197.428 15.741 199.25 17.4484 199.25 20.1451C199.25 22.8418 197.367 24.9731 194.376 24.9731C190.996 24.9731 189.632 22.4409 189.632 20.3585V20.3556ZM197.604 20.5806C197.604 17.9416 196.084 16.3063 194.154 16.3063C192.802 16.3063 191.259 17.059 191.259 19.9922C191.259 22.4409 192.611 24.3848 194.872 24.3848C195.697 24.3848 197.604 23.9839 197.604 20.5806Z" fill="#0A5595"/>
<path d="M202.377 23.2049C202.4 24.1249 202.553 24.4306 202.789 24.5114C202.988 24.5835 203.213 24.595 203.401 24.595C203.531 24.595 203.6 24.6181 203.6 24.6902C203.6 24.7854 203.493 24.8084 203.329 24.8084C202.564 24.8084 202.091 24.7738 201.869 24.7738C201.763 24.7738 201.209 24.8084 200.597 24.8084C200.445 24.8084 200.338 24.7969 200.338 24.6902C200.338 24.6181 200.41 24.595 200.525 24.595C200.678 24.595 200.892 24.5835 201.056 24.5373C201.362 24.4422 201.411 24.1018 201.422 23.0779L201.529 16.107C201.529 15.8705 201.564 15.7061 201.682 15.7061C201.812 15.7061 201.918 15.8589 202.117 16.0723C202.259 16.2252 204.047 18.146 205.769 19.8535C206.571 20.6524 208.16 22.3483 208.359 22.5386H208.416L208.298 17.252C208.287 16.5338 208.18 16.3088 207.897 16.1935C207.721 16.1214 207.439 16.1214 207.274 16.1214C207.133 16.1214 207.087 16.0868 207.087 16.0147C207.087 15.9195 207.217 15.9079 207.393 15.9079C208.004 15.9079 208.569 15.9426 208.817 15.9426C208.947 15.9426 209.394 15.9079 209.971 15.9079C210.124 15.9079 210.242 15.9195 210.242 16.0147C210.242 16.0868 210.17 16.1214 210.029 16.1214C209.91 16.1214 209.818 16.1214 209.677 16.156C209.348 16.2512 209.253 16.4963 209.241 17.1568L209.111 24.5864C209.111 24.8459 209.065 24.9526 208.959 24.9526C208.829 24.9526 208.688 24.8229 208.558 24.6931C207.816 23.9865 206.308 22.4434 205.085 21.2321C203.802 19.9602 202.495 18.4893 202.282 18.2643H202.247L202.377 23.2106V23.2049Z" fill="#0A5595"/>
<path d="M163.265 31.4885C162.945 31.4885 162.599 31.526 162.486 31.5491C162.437 31.5722 162.4 31.6097 162.4 31.6731V35.0447C162.4 35.1053 162.423 35.1427 162.475 35.1802C162.636 35.2668 163.193 35.3418 163.675 35.3418C163.934 35.3418 164.231 35.3302 164.488 35.1572C164.857 34.9091 165.143 34.3554 165.143 33.5507C165.143 32.2413 164.425 31.4885 163.265 31.4885Z" fill="#010101"/>
<path d="M147.425 31.364C145.611 31.364 144.302 32.5004 144.302 34.7846C144.302 37.2304 145.773 38.7619 147.734 38.7619C148.709 38.7619 150.673 38.2427 150.673 35.2057C150.673 32.685 149.141 31.364 147.425 31.364Z" fill="#010101"/>
<path d="M82.0557 32.7487C81.9951 32.5872 81.9317 32.5872 81.8711 32.7487L80.8588 35.6271C80.8472 35.6761 80.8588 35.7021 80.8963 35.7021H83.094C83.143 35.7021 83.143 35.679 83.1315 35.6271L82.0557 32.7487Z" fill="#010101"/>
<path d="M76.498 28.082V42.0384H211.713V28.082H76.498ZM86.2551 39.062C86.0936 39.062 85.2918 39.062 84.5391 39.0389C84.3285 39.0274 84.1555 39.0274 84.1555 38.9639C84.1555 38.9149 84.1814 38.9149 84.2305 38.889C84.291 38.863 84.4035 38.7765 84.3285 38.6034L83.3537 36.1952C83.3306 36.1461 83.3162 36.1346 83.2556 36.1346H80.7493C80.7003 36.1346 80.6628 36.1577 80.6368 36.2211L80.0196 37.8997C79.9215 38.1593 79.8581 38.4188 79.8581 38.6034C79.8581 38.814 80.0427 38.889 80.2273 38.889H80.3253C80.4118 38.889 80.4378 38.9264 80.4378 38.9755C80.4378 39.036 80.3772 39.062 80.2763 39.062C80.0167 39.062 79.4226 39.0245 79.3014 39.0245C79.189 39.0245 78.6467 39.062 78.2026 39.062C78.067 39.062 77.992 39.0389 77.992 38.9755C77.992 38.9264 78.0411 38.889 78.0901 38.889C78.1651 38.889 78.3237 38.8774 78.4102 38.863C78.9034 38.8024 79.114 38.4304 79.3245 37.8997L81.8799 31.3296C82.0154 30.9835 82.0645 30.9229 82.1394 30.9229C82.2519 30.9229 82.2894 31.07 82.399 31.3065C82.598 31.7507 84.3401 36.0856 85.0063 37.6805C85.4014 38.6178 85.6985 38.7534 85.9321 38.8284C86.0936 38.8774 86.2523 38.889 86.3647 38.889C86.4253 38.889 86.5003 38.912 86.5003 38.9755C86.5003 39.0389 86.3763 39.062 86.2523 39.062H86.2551ZM101.948 31.295C101.873 31.295 101.812 31.295 101.677 31.318C101.38 31.3786 101.319 31.5517 101.293 31.8978C101.267 32.2323 101.282 32.5265 101.282 34.1589V35.2838C101.282 36.4201 101.134 37.692 100.269 38.4333C99.479 39.111 98.6397 39.2004 97.9965 39.2004C97.6389 39.2004 96.5025 39.1745 95.7354 38.4592C95.2047 37.966 94.7836 37.2363 94.7836 35.7048V34.1618C94.7836 32.5323 94.7836 32.2352 94.7605 31.9006C94.7345 31.569 94.674 31.37 94.3163 31.3209C94.2298 31.3094 94.0452 31.2979 93.9472 31.2979C93.9097 31.2979 93.8607 31.2488 93.8607 31.2113C93.8607 31.1508 93.9097 31.1248 94.0337 31.1248C94.5269 31.1248 95.1816 31.1508 95.2796 31.1508C95.3777 31.1508 96.0584 31.1248 96.3785 31.1248C96.5025 31.1248 96.5631 31.1508 96.5631 31.2113C96.5631 31.2488 96.5141 31.2979 96.465 31.2979C96.3901 31.2979 96.3295 31.2979 96.1939 31.3209C95.9084 31.37 95.8478 31.5546 95.8248 31.9006C95.7988 32.2352 95.7988 32.5294 95.7988 34.1618V35.6327C95.7988 37.1527 96.1334 37.7814 96.6006 38.2025C97.1313 38.6842 97.6014 38.7707 98.2186 38.7707C98.8848 38.7707 99.528 38.4736 99.8972 38.0295C100.405 37.4238 100.514 36.5586 100.514 35.4857V34.1647C100.514 32.5352 100.503 32.2381 100.491 31.9035C100.48 31.5719 100.416 31.3728 100.059 31.3238C99.9722 31.3123 99.7876 31.3007 99.6895 31.3007C99.6405 31.3007 99.603 31.2517 99.603 31.2142C99.603 31.1537 99.652 31.1277 99.7761 31.1277C100.258 31.1277 100.886 31.1537 100.95 31.1537C101.025 31.1537 101.544 31.1277 101.864 31.1277C101.988 31.1277 102.037 31.1537 102.037 31.2142C102.037 31.2517 102 31.3007 101.951 31.3007L101.948 31.295ZM117.023 32.3679C117.023 32.4544 116.974 32.5034 116.925 32.5034C116.876 32.5034 116.85 32.4659 116.839 32.3189L116.827 32.2064C116.79 31.8862 116.556 31.6497 115.518 31.6267L114.159 31.6036V36.0135C114.159 37.0258 114.159 37.8535 114.208 38.2862C114.246 38.5948 114.295 38.7909 114.629 38.8428C114.777 38.8659 115.025 38.8918 115.123 38.8918C115.198 38.8918 115.209 38.9409 115.209 38.9784C115.209 39.0274 115.16 39.0649 115.036 39.0649C114.442 39.0649 113.753 39.0274 113.689 39.0274C113.64 39.0274 112.887 39.0649 112.564 39.0649C112.44 39.0649 112.391 39.0418 112.391 38.9784C112.391 38.9409 112.417 38.9034 112.478 38.9034C112.576 38.9034 112.7 38.8803 112.798 38.8543C113.02 38.8053 113.084 38.5948 113.118 38.2862C113.167 37.8535 113.167 37.0258 113.167 36.0135V31.6036L111.598 31.6267C110.92 31.6382 110.661 31.7132 110.499 31.9612C110.375 32.1458 110.364 32.2208 110.326 32.2958C110.303 32.3823 110.266 32.3938 110.214 32.3938C110.191 32.3938 110.139 32.3679 110.139 32.3073C110.139 32.1948 110.361 31.2575 110.372 31.171C110.398 31.1104 110.447 30.9748 110.485 30.9748C110.56 30.9748 110.669 31.0614 110.967 31.0989C111.275 31.1363 111.696 31.1479 111.82 31.1479H115.922C116.279 31.1479 116.527 31.1219 116.7 31.0989C116.862 31.0758 116.96 31.0498 117.009 31.0498C117.058 31.0498 117.058 31.1104 117.058 31.1738C117.058 31.494 117.02 32.2496 117.02 32.3708L117.023 32.3679ZM134.21 39.062C133.616 39.062 132.927 39.0245 132.863 39.0245C132.814 39.0245 132.11 39.062 131.79 39.062C131.666 39.062 131.617 39.0389 131.617 38.9755C131.617 38.938 131.64 38.889 131.704 38.889C131.802 38.889 131.926 38.863 132.024 38.8399C132.246 38.7909 132.283 38.5803 132.321 38.2717C132.37 37.8391 132.37 37.0489 132.37 36.0365V34.9867C132.37 34.9377 132.344 34.9261 132.309 34.9261H127.775C127.738 34.9261 127.715 34.9377 127.715 34.9867V36.0365C127.715 37.0489 127.715 37.8507 127.764 38.2833C127.801 38.5919 127.839 38.788 128.159 38.8399C128.321 38.863 128.554 38.889 128.652 38.889C128.713 38.889 128.739 38.938 128.739 38.9755C128.739 39.0245 128.69 39.062 128.566 39.062C127.96 39.062 127.268 39.0245 127.219 39.0245C127.158 39.0245 126.466 39.062 126.131 39.062C126.019 39.062 125.958 39.0389 125.958 38.9755C125.958 38.938 125.984 38.889 126.045 38.889C126.143 38.889 126.279 38.863 126.377 38.8399C126.587 38.7909 126.61 38.5919 126.662 38.2833C126.723 37.8507 126.723 37.0229 126.723 36.0106V34.1589C126.723 32.5294 126.723 32.2323 126.697 31.8978C126.674 31.5401 126.61 31.3671 126.253 31.318C126.166 31.3065 125.981 31.295 125.883 31.295C125.846 31.295 125.797 31.2459 125.797 31.2085C125.797 31.1479 125.846 31.1219 125.97 31.1219C126.463 31.1219 127.155 31.1479 127.216 31.1479C127.265 31.1479 127.957 31.1219 128.292 31.1219C128.416 31.1219 128.465 31.1479 128.465 31.2085C128.465 31.2459 128.416 31.295 128.378 31.295C128.303 31.295 128.231 31.295 128.107 31.318C127.81 31.3786 127.749 31.5286 127.723 31.8978C127.712 32.2323 127.712 32.5525 127.712 34.182V34.4041C127.712 34.4647 127.735 34.4647 127.773 34.4647H132.306C132.344 34.4647 132.367 34.4647 132.367 34.4041V34.182C132.367 32.5525 132.355 32.2294 132.341 31.8978C132.318 31.5401 132.266 31.3671 131.908 31.318C131.822 31.3065 131.637 31.295 131.539 31.295C131.49 31.295 131.453 31.2459 131.453 31.2085C131.453 31.1479 131.502 31.1219 131.626 31.1219C132.107 31.1219 132.811 31.1479 132.86 31.1479C132.921 31.1479 133.613 31.1219 133.936 31.1219C134.06 31.1219 134.121 31.1479 134.121 31.2085C134.121 31.2459 134.072 31.295 134.022 31.295C133.947 31.295 133.887 31.295 133.751 31.318C133.469 31.3786 133.405 31.5286 133.382 31.8978C133.359 32.2323 133.359 32.5265 133.359 34.1589V36.0106C133.359 37.0229 133.371 37.8507 133.42 38.2833C133.457 38.5919 133.48 38.788 133.815 38.8399C133.962 38.863 134.21 38.889 134.296 38.889C134.371 38.889 134.395 38.938 134.395 38.9755C134.395 39.0245 134.334 39.062 134.21 39.062ZM147.431 39.1976C144.454 39.1976 143.183 36.9623 143.183 35.0732C143.183 33.3802 144.492 30.972 147.491 30.972C149.937 30.972 151.789 32.4659 151.789 34.9117C151.789 37.3575 150.047 39.1976 147.428 39.1976H147.431ZM168.508 39.062H167.831C167.213 39.062 166.942 39.0014 166.668 38.8515C166.198 38.6034 165.803 38.0987 165.186 37.3084C164.73 36.7403 164.248 36.0596 164.012 35.777C163.963 35.7279 163.937 35.7164 163.865 35.7164L162.48 35.6904C162.431 35.6904 162.405 35.7164 162.405 35.777V36.025C162.405 37.0373 162.405 37.8535 162.454 38.2862C162.492 38.5948 162.553 38.7909 162.887 38.8428C163.034 38.8659 163.271 38.8918 163.369 38.8918C163.444 38.8918 163.455 38.9409 163.455 38.9784C163.455 39.0274 163.406 39.0649 163.282 39.0649C162.688 39.0649 161.999 39.0274 161.95 39.0274C161.938 39.0274 161.209 39.0649 160.874 39.0649C160.761 39.0649 160.701 39.0418 160.701 38.9784C160.701 38.9409 160.727 38.8918 160.787 38.8918C160.885 38.8918 161.021 38.8659 161.119 38.8428C161.33 38.7938 161.353 38.5948 161.405 38.2862C161.465 37.8535 161.465 37.0258 161.465 36.0135V34.1618C161.465 32.5323 161.465 32.2352 161.439 31.9006C161.416 31.543 161.353 31.37 160.995 31.3209C160.909 31.3094 160.724 31.2979 160.626 31.2979C160.588 31.2979 160.539 31.2488 160.539 31.2113C160.539 31.1508 160.588 31.1248 160.712 31.1248C161.206 31.1248 161.935 31.1508 161.996 31.1508C162.105 31.1508 163.02 31.1248 163.354 31.1248C164.047 31.1248 164.811 31.1854 165.379 31.5805C165.65 31.7795 166.132 32.2842 166.132 33.0139C166.132 33.7927 165.812 34.5454 164.796 35.4107C165.688 36.5211 166.44 37.4728 167.069 38.1275C167.649 38.7217 168.006 38.8197 168.28 38.8572C168.491 38.8947 168.601 38.8947 168.664 38.8947C168.727 38.8947 168.762 38.9438 168.762 38.9812C168.762 39.0418 168.702 39.0678 168.503 39.0678L168.508 39.062ZM179.012 39.062C178.407 39.062 177.703 39.0245 177.654 39.0245C177.593 39.0245 176.913 39.062 176.578 39.062C176.466 39.062 176.405 39.0389 176.405 38.9755C176.405 38.938 176.431 38.889 176.492 38.889C176.59 38.889 176.725 38.863 176.823 38.8399C177.034 38.7909 177.071 38.5919 177.109 38.2833C177.158 37.8507 177.169 37.0229 177.169 36.0106V34.1589C177.169 32.5294 177.169 32.2323 177.143 31.8978C177.12 31.5401 177.031 31.3786 176.797 31.3296C176.673 31.3036 176.538 31.2921 176.463 31.2921C176.414 31.2921 176.376 31.2431 176.376 31.2056C176.376 31.145 176.425 31.119 176.549 31.119C176.907 31.119 177.588 31.145 177.648 31.145C177.697 31.145 178.401 31.119 178.736 31.119C178.86 31.119 178.909 31.145 178.909 31.2056C178.909 31.2431 178.86 31.2921 178.822 31.2921C178.747 31.2921 178.675 31.2921 178.551 31.3152C178.254 31.3757 178.193 31.5257 178.167 31.8949C178.156 32.2294 178.156 32.5236 178.156 34.1561V36.0077C178.156 37.02 178.156 37.8478 178.205 38.2804C178.242 38.589 178.28 38.7851 178.6 38.837C178.761 38.8601 178.995 38.8861 179.093 38.8861C179.154 38.8861 179.18 38.9351 179.18 38.9726C179.18 39.0216 179.131 39.0591 179.007 39.0591L179.012 39.062ZM194.619 32.3679C194.619 32.4544 194.57 32.5034 194.52 32.5034C194.471 32.5034 194.445 32.4659 194.434 32.3189L194.422 32.2064C194.385 31.8862 194.151 31.6497 193.113 31.6267L191.755 31.6036V36.0135C191.755 37.0258 191.755 37.8535 191.804 38.2862C191.841 38.5948 191.89 38.7909 192.225 38.8428C192.372 38.8659 192.62 38.8918 192.718 38.8918C192.793 38.8918 192.804 38.9409 192.804 38.9784C192.804 39.0274 192.755 39.0649 192.631 39.0649C192.037 39.0649 191.348 39.0274 191.284 39.0274C191.235 39.0274 190.483 39.0649 190.16 39.0649C190.036 39.0649 189.987 39.0418 189.987 38.9784C189.987 38.9409 190.013 38.9034 190.073 38.9034C190.171 38.9034 190.295 38.8803 190.393 38.8543C190.615 38.8053 190.679 38.5948 190.713 38.2862C190.762 37.8535 190.762 37.0258 190.762 36.0135V31.6036L189.193 31.6267C188.516 31.6382 188.256 31.7132 188.095 31.9612C187.971 32.1458 187.959 32.2208 187.922 32.2958C187.898 32.3823 187.861 32.3938 187.809 32.3938C187.786 32.3938 187.734 32.3679 187.734 32.3073C187.734 32.1948 187.956 31.2575 187.968 31.171C187.994 31.1104 188.043 30.9748 188.08 30.9748C188.155 30.9748 188.265 31.0614 188.562 31.0989C188.87 31.1363 189.292 31.1479 189.416 31.1479H193.517C193.874 31.1479 194.122 31.1219 194.296 31.0989C194.457 31.0758 194.555 31.0498 194.604 31.0498C194.653 31.0498 194.653 31.1104 194.653 31.1738C194.653 31.494 194.616 32.2496 194.616 32.3708L194.619 32.3679ZM210.086 31.295C209.962 31.295 209.752 31.3325 209.582 31.4305C209.371 31.5546 209.273 31.6641 209.039 31.9497C208.682 32.3708 207.15 34.8396 206.928 35.2838C206.744 35.6529 206.793 35.9875 206.793 36.3336V37.2363C206.793 37.4094 206.793 37.8535 206.83 38.2862C206.853 38.5948 206.928 38.7909 207.251 38.8428C207.398 38.8659 207.646 38.8918 207.744 38.8918C207.805 38.8918 207.831 38.9409 207.831 38.9784C207.831 39.0274 207.77 39.0649 207.658 39.0649C207.052 39.0649 206.348 39.0274 206.288 39.0274C206.239 39.0274 205.547 39.0649 205.226 39.0649C205.102 39.0649 205.053 39.0418 205.053 38.9784C205.053 38.9409 205.076 38.8918 205.14 38.8918C205.238 38.8918 205.362 38.8659 205.46 38.8428C205.682 38.7938 205.757 38.5948 205.78 38.2862C205.803 37.8535 205.803 37.4094 205.803 37.2363V36.3336C205.803 35.7654 205.728 35.5549 205.57 35.2578C205.483 35.0992 204.012 32.763 203.643 32.2064C203.383 31.8112 203.124 31.5776 202.928 31.4421C202.766 31.344 202.559 31.295 202.472 31.295C202.412 31.295 202.36 31.2459 202.36 31.1969C202.36 31.1479 202.397 31.1219 202.495 31.1219C202.706 31.1219 203.522 31.1479 203.571 31.1479C203.646 31.1479 204.09 31.1219 204.508 31.1219C204.632 31.1219 204.655 31.1479 204.655 31.1969C204.655 31.2344 204.58 31.2719 204.482 31.3065C204.396 31.344 204.347 31.393 204.347 31.4796C204.347 31.6267 204.422 31.7507 204.494 31.8862L206.47 35.1597C206.692 34.7156 208.05 32.4659 208.249 32.1227C208.385 31.8891 208.434 31.7161 208.434 31.5805C208.434 31.4334 208.385 31.3469 208.261 31.3094C208.163 31.2863 208.099 31.2344 208.099 31.1854C208.099 31.1479 208.16 31.1248 208.272 31.1248C208.558 31.1248 208.938 31.1508 209.025 31.1508C209.1 31.1508 209.879 31.1248 210.086 31.1248C210.161 31.1248 210.222 31.1508 210.222 31.1854C210.222 31.2344 210.173 31.2979 210.086 31.2979V31.295Z" fill="#010101"/>
</g>
<defs>
<clipPath id="clip0_4106_26625">
<rect width="211.426" height="54" fill="white" transform="translate(0.287109)"/>
</clipPath>
</defs>
</svg>