<svg width="21" height="19" viewBox="0 0 21 19" fill="currentColor" xmlns="http://www.w3.org/2000/svg">
<path d="M3.83008 18.9531C2.80794 18.9531 2.03971 18.6992 1.52539 18.1914C1.01758 17.6901 0.763672 16.9349 0.763672 15.9258V4.00195C0.763672 2.99284 1.01758 2.23763 1.52539 1.73633C2.03971 1.22852 2.80794 0.974609 3.83008 0.974609H17.1699C18.1921 0.974609 18.957 1.22852 19.4648 1.73633C19.9727 2.23763 20.2266 2.99284 20.2266 4.00195V15.9258C20.2266 16.9349 19.9727 17.6901 19.4648 18.1914C18.957 18.6992 18.1921 18.9531 17.1699 18.9531H3.83008ZM3.68359 17.3809H17.2969C17.7331 17.3809 18.0684 17.2637 18.3027 17.0293C18.5371 16.8014 18.6543 16.4629 18.6543 16.0137V6.80469C18.6543 6.35547 18.5371 6.01693 18.3027 5.78906C18.0684 5.55469 17.7331 5.4375 17.2969 5.4375H3.68359C3.25391 5.4375 2.92188 5.55469 2.6875 5.78906C2.45312 6.01693 2.33594 6.35547 2.33594 6.80469V16.0137C2.33594 16.4629 2.45312 16.8014 2.6875 17.0293C2.92188 17.2637 3.25391 17.3809 3.68359 17.3809ZM5.38281 9.07031C5.20703 9.07031 5.06055 9.01172 4.94336 8.89453C4.82617 8.77734 4.76758 8.63086 4.76758 8.45508C4.76758 8.29232 4.82617 8.1556 4.94336 8.04492C5.06055 7.92773 5.20703 7.86914 5.38281 7.86914H15.6367C15.8125 7.86914 15.9557 7.92773 16.0664 8.04492C16.1836 8.1556 16.2422 8.29232 16.2422 8.45508C16.2422 8.63086 16.1836 8.77734 16.0664 8.89453C15.9557 9.01172 15.8125 9.07031 15.6367 9.07031H5.38281ZM5.38281 12.0098C5.20703 12.0098 5.06055 11.9544 4.94336 11.8438C4.82617 11.7266 4.76758 11.5866 4.76758 11.4238C4.76758 11.2546 4.82617 11.1113 4.94336 10.9941C5.06055 10.8704 5.20703 10.8086 5.38281 10.8086H15.6367C15.8125 10.8086 15.9557 10.8704 16.0664 10.9941C16.1836 11.1113 16.2422 11.2546 16.2422 11.4238C16.2422 11.5866 16.1836 11.7266 16.0664 11.8438C15.9557 11.9544 15.8125 12.0098 15.6367 12.0098H5.38281ZM5.38281 14.959C5.20703 14.959 5.06055 14.9036 4.94336 14.793C4.82617 14.6758 4.76758 14.5326 4.76758 14.3633C4.76758 14.194 4.82617 14.0508 4.94336 13.9336C5.06055 13.8164 5.20703 13.7578 5.38281 13.7578H11.8965C12.0723 13.7578 12.2155 13.8164 12.3262 13.9336C12.4434 14.0508 12.502 14.194 12.502 14.3633C12.502 14.5326 12.4434 14.6758 12.3262 14.793C12.2155 14.9036 12.0723 14.959 11.8965 14.959H5.38281Z" fill="currentColor"/>
</svg>
