<svg width="19" height="20" viewBox="0 0 19 20" fill="currentColor" xmlns="http://www.w3.org/2000/svg">
<path d="M3.16602 18.9424C2.80469 18.7275 2.62891 18.2588 2.98047 17.7607L14.4551 0.84668C14.7969 0.358398 15.2754 0.319336 15.6172 0.504883C15.9785 0.719727 16.1836 1.21777 15.8418 1.70605L4.36719 18.6689C4.05469 19.1182 3.52734 19.1475 3.16602 18.9424ZM3.86914 9.50879C1.75977 9.50879 0.490234 7.79004 0.490234 5.02637C0.490234 2.28223 1.76953 0.573242 3.86914 0.573242C5.95898 0.573242 7.23828 2.27246 7.23828 5.02637C7.23828 7.78027 5.96875 9.50879 3.86914 9.50879ZM3.86914 8.1416C5.00195 8.1416 5.66602 6.99902 5.66602 5.02637C5.66602 3.07324 4.99219 1.93066 3.86914 1.93066C2.74609 1.93066 2.0625 3.08301 2.0625 5.02637C2.0625 6.99902 2.73633 8.1416 3.86914 8.1416ZM14.9629 18.9033C12.8535 18.9033 11.584 17.1846 11.584 14.4307C11.584 11.6768 12.8633 9.96777 14.9629 9.96777C17.0527 9.96777 18.332 11.667 18.332 14.4307C18.332 17.1748 17.0625 18.9033 14.9629 18.9033ZM14.9629 17.5459C16.0957 17.5459 16.7598 16.3936 16.7598 14.4307C16.7598 12.4678 16.0859 11.335 14.9629 11.335C13.8398 11.335 13.1562 12.4775 13.1562 14.4307C13.1562 16.3936 13.8301 17.5459 14.9629 17.5459Z" fill="currentColor"/>
</svg>
