<svg width="9" height="17" viewBox="0 0 9 17" fill="currentColor" xmlns="http://www.w3.org/2000/svg">
<path d="M0.904297 1.5918C0.895182 1.42318 0.945312 1.27734 1.05469 1.1543C1.16862 1.03125 1.3099 0.962891 1.47852 0.949219C1.64714 0.935547 1.79297 0.987956 1.91602 1.10645C2.03906 1.22038 2.10514 1.36165 2.11426 1.53027L2.24414 3.89551L2.95508 4.40137C3.11914 4.51986 3.27409 4.60189 3.41992 4.64746C3.56576 4.69303 3.74121 4.71582 3.94629 4.71582H5.36816C5.90592 4.71582 6.3776 4.82064 6.7832 5.03027C7.19336 5.23991 7.51237 5.53385 7.74023 5.91211C7.97266 6.28581 8.08887 6.72559 8.08887 7.23145V10.1709C8.08887 10.3395 8.02962 10.4831 7.91113 10.6016C7.79264 10.7201 7.64909 10.7793 7.48047 10.7793C7.31185 10.7793 7.16829 10.7201 7.0498 10.6016C6.93132 10.4831 6.87207 10.3395 6.87207 10.1709V7.53906C6.87207 7.39323 6.79915 7.32031 6.65332 7.32031C6.50293 7.32031 6.42773 7.39323 6.42773 7.53906V15.4619C6.42773 15.6488 6.36393 15.806 6.23633 15.9336C6.10872 16.0612 5.9515 16.125 5.76465 16.125C5.5778 16.125 5.41829 16.0612 5.28613 15.9336C5.15853 15.806 5.09473 15.6488 5.09473 15.4619V10.6631C5.09473 10.5993 5.07194 10.5446 5.02637 10.499C4.98079 10.4535 4.92839 10.4307 4.86914 10.4307C4.80534 10.4307 4.75065 10.4535 4.70508 10.499C4.65951 10.5446 4.63672 10.5993 4.63672 10.6631V15.4619C4.63672 15.6488 4.57064 15.806 4.43848 15.9336C4.31087 16.0612 4.15592 16.125 3.97363 16.125C3.78678 16.125 3.62728 16.0612 3.49512 15.9336C3.36751 15.806 3.30371 15.6488 3.30371 15.4619V6.54102C3.30371 6.38151 3.27865 6.26758 3.22852 6.19922C3.17839 6.1263 3.10775 6.05794 3.0166 5.99414L1.5332 4.90723C1.37826 4.79329 1.25749 4.66797 1.1709 4.53125C1.08887 4.38997 1.04329 4.20996 1.03418 3.99121L0.904297 1.5918ZM4.86914 3.9502C4.59115 3.9502 4.34049 3.88411 4.11719 3.75195C3.89388 3.61523 3.71387 3.43522 3.57715 3.21191C3.44499 2.98405 3.37891 2.7334 3.37891 2.45996C3.37891 2.18197 3.44499 1.93132 3.57715 1.70801C3.71387 1.4847 3.89388 1.30697 4.11719 1.1748C4.34049 1.03809 4.59115 0.969727 4.86914 0.969727C5.14258 0.969727 5.39095 1.03809 5.61426 1.1748C5.84212 1.30697 6.02214 1.4847 6.1543 1.70801C6.29102 1.93132 6.35938 2.18197 6.35938 2.45996C6.35938 2.7334 6.29102 2.98405 6.1543 3.21191C6.02214 3.43522 5.84212 3.61523 5.61426 3.75195C5.39095 3.88411 5.14258 3.9502 4.86914 3.9502Z" fill="currentColor"/>
</svg>
