<svg width="16" height="16" viewBox="0 0 16 16" fill="currentColor" xmlns="http://www.w3.org/2000/svg">
<path d="M4.89319 11.3984C4.14319 10.6484 3.46871 9.85938 2.86975 9.03125C2.27079 8.20312 1.79683 7.3776 1.44788 6.55469C1.09892 5.72656 0.924438 4.9375 0.924438 4.1875C0.924438 3.6875 1.01038 3.21875 1.18225 2.78125C1.35933 2.33854 1.63798 1.9349 2.01819 1.57031C2.48694 1.11719 2.98954 0.890625 3.526 0.890625C3.73433 0.890625 3.93225 0.934896 4.11975 1.02344C4.30725 1.10677 4.46871 1.24219 4.60413 1.42969L6.28381 3.79688C6.41402 3.97917 6.51038 4.14844 6.57288 4.30469C6.64058 4.46094 6.67444 4.60938 6.67444 4.75C6.67444 4.92708 6.62496 5.09896 6.526 5.26562C6.42704 5.43229 6.29163 5.60417 6.11975 5.78125L5.56506 6.35156C5.48694 6.42969 5.44788 6.52604 5.44788 6.64062C5.44788 6.69792 5.45569 6.75521 5.47131 6.8125C5.49215 6.86458 5.51298 6.91146 5.53381 6.95312C5.65881 7.19271 5.88277 7.5026 6.20569 7.88281C6.52861 8.26302 6.88017 8.64583 7.26038 9.03125C7.64579 9.41667 8.02861 9.77083 8.40881 10.0938C8.78902 10.4115 9.10152 10.6354 9.34631 10.7656C9.38277 10.7812 9.42704 10.7995 9.47913 10.8203C9.53642 10.8411 9.59631 10.8516 9.65881 10.8516C9.77861 10.8516 9.87756 10.8099 9.95569 10.7266L10.5104 10.1797C10.6875 10.0026 10.8593 9.86719 11.026 9.77344C11.1927 9.67448 11.3645 9.625 11.5416 9.625C11.6823 9.625 11.8307 9.65625 11.9869 9.71875C12.1432 9.78125 12.3125 9.875 12.4948 10L14.8932 11.7031C15.0807 11.8333 15.2135 11.9896 15.2916 12.1719C15.3698 12.349 15.4088 12.5365 15.4088 12.7344C15.4088 13 15.3489 13.263 15.2291 13.5234C15.1093 13.7891 14.9453 14.0365 14.7369 14.2656C14.3828 14.6562 13.9869 14.9427 13.5494 15.125C13.1119 15.3073 12.6406 15.3984 12.1354 15.3984C11.3906 15.3984 10.6015 15.2214 9.76819 14.8672C8.93486 14.513 8.10152 14.0339 7.26819 13.4297C6.43486 12.8255 5.64319 12.1484 4.89319 11.3984Z" fill="currentColor"/>
</svg>
