<svg width="90" height="74" viewBox="0 0 90 74" fill="currentColor" xmlns="http://www.w3.org/2000/svg">
<path d="M30.885 71.8975C27.8147 71.8975 25.4827 71.124 23.889 69.5772C22.2952 68.0303 21.4983 65.7335 21.4983 62.6866L33.3459 52.3859C34.0256 51.8234 34.6936 51.4015 35.3498 51.1203C36.0295 50.8156 36.7092 50.6633 37.3889 50.6633C38.1389 50.6633 38.8655 50.8039 39.5686 51.0851C40.2951 51.3664 40.9983 51.8234 41.6779 52.4562L47.3029 57.5538L61.506 44.968C62.256 44.3118 63.0177 43.843 63.7911 43.5618C64.5646 43.2571 65.3849 43.1047 66.2521 43.1047C67.1192 43.1047 67.963 43.2688 68.7833 43.5969C69.6036 43.9016 70.3536 44.3703 71.0333 45.0032L87.3106 60.4015V62.6515C87.3106 65.7217 86.5137 68.0303 84.9199 69.5772C83.3262 71.124 81.0059 71.8975 77.959 71.8975H30.885ZM44.7717 45.7766C42.7326 45.7766 40.9865 45.0383 39.5334 43.5618C38.0803 42.0852 37.3537 40.3157 37.3537 38.2532C37.3537 36.2376 38.0803 34.4915 39.5334 33.015C40.9865 31.5384 42.7326 30.8001 44.7717 30.8001C46.1545 30.8001 47.4084 31.14 48.5334 31.8197C49.6584 32.4994 50.549 33.4134 51.2052 34.5618C51.8849 35.6868 52.2248 36.9173 52.2248 38.2532C52.2248 40.3157 51.4982 42.0852 50.0451 43.5618C48.592 45.0383 46.8342 45.7766 44.7717 45.7766ZM6.24059 53.8625L0.474994 21.2026C-0.157815 17.6401 0.275777 14.8042 1.77577 12.6948C3.27576 10.5855 5.83044 9.20266 9.4398 8.54642L56.3732 0.284763C59.9825 -0.348044 62.8419 0.0738276 64.9513 1.55038C67.0841 3.02693 68.4669 5.54644 69.0997 9.10891L71.1739 20.6049H65.4435L63.6153 10.3745C63.2872 8.56985 62.5724 7.30424 61.4708 6.57768C60.3693 5.82769 58.963 5.59331 57.2521 5.87456L10.5296 14.1011C8.79527 14.4057 7.54137 15.1089 6.76794 16.2104C5.9945 17.2885 5.77185 18.7299 6.09997 20.5346L11.7601 52.5968C12.0882 54.3781 12.7913 55.6437 13.8695 56.3937C14.971 57.1437 16.389 57.3663 18.1234 57.0617L23.3616 56.1828V61.9132L19.0023 62.6515C15.3695 63.2843 12.4984 62.8741 10.389 61.421C8.27965 59.9444 6.89684 57.4249 6.24059 53.8625ZM30.7795 73.7607C27.0764 73.7607 24.3108 72.8467 22.4827 71.0186C20.6546 69.2139 19.7405 66.4952 19.7405 62.8624V29.7103C19.7405 26.0775 20.6546 23.3588 22.4827 21.5541C24.3108 19.726 27.0764 18.812 30.7795 18.812H78.8028C82.459 18.812 85.2012 19.726 87.0293 21.5541C88.8809 23.3822 89.8066 26.101 89.8066 29.7103V62.8624C89.8066 66.4952 88.8809 69.2139 87.0293 71.0186C85.2012 72.8467 82.459 73.7607 78.8028 73.7607H30.7795ZM30.8499 68.1006H78.6973C80.4317 68.1006 81.7676 67.6319 82.7051 66.6944C83.666 65.7803 84.1465 64.4092 84.1465 62.5811V30.0267C84.1465 28.1986 83.666 26.8158 82.7051 25.8783C81.7676 24.9408 80.4317 24.4721 78.6973 24.4721H30.8499C29.0921 24.4721 27.7444 24.9408 26.8069 25.8783C25.8694 26.8158 25.4007 28.1986 25.4007 30.0267V62.5811C25.4007 64.4092 25.8694 65.7803 26.8069 66.6944C27.7444 67.6319 29.0921 68.1006 30.8499 68.1006Z" fill="currentColor"/>
</svg>
