<svg width="25" height="19" viewBox="0 0 25 19" fill="currentColor" xmlns="http://www.w3.org/2000/svg">
<path d="M23.0078 15.3984C23.0078 16.3359 22.7865 17.0456 22.3438 17.5273C21.901 18.0156 21.237 18.2598 20.3516 18.2598H3.98438C3.25521 18.2598 2.70833 18.0352 2.34375 17.5859C1.97917 17.1432 1.7806 16.4792 1.74805 15.5938L5.46875 12.2344C5.67057 12.0456 5.87565 11.9089 6.08398 11.8242C6.29232 11.7331 6.50716 11.6875 6.72852 11.6875C6.95638 11.6875 7.18099 11.7363 7.40234 11.834C7.63021 11.9251 7.84505 12.0618 8.04688 12.2441L9.85352 13.875L14.2676 9.92969C14.4954 9.73438 14.7298 9.58789 14.9707 9.49023C15.2116 9.39258 15.4655 9.34375 15.7324 9.34375C15.9993 9.34375 16.2565 9.39583 16.5039 9.5C16.7578 9.59766 16.9922 9.7474 17.207 9.94922L23.0078 15.3984ZM8.26172 10.0469C7.83854 10.0469 7.45117 9.94596 7.09961 9.74414C6.75456 9.53581 6.47786 9.25586 6.26953 8.9043C6.0612 8.55273 5.95703 8.16536 5.95703 7.74219C5.95703 7.32552 6.0612 6.94141 6.26953 6.58984C6.47786 6.23828 6.75456 5.95833 7.09961 5.75C7.45117 5.54167 7.83854 5.4375 8.26172 5.4375C8.6849 5.4375 9.06901 5.54167 9.41406 5.75C9.75911 5.95833 10.0358 6.23828 10.2441 6.58984C10.4525 6.94141 10.5566 7.32552 10.5566 7.74219C10.5566 8.16536 10.4525 8.55273 10.2441 8.9043C10.0358 9.25586 9.75911 9.53581 9.41406 9.74414C9.06901 9.94596 8.6849 10.0469 8.26172 10.0469ZM4.05273 18.9434C3.0306 18.9434 2.26237 18.6895 1.74805 18.1816C1.24023 17.6803 0.986328 16.9284 0.986328 15.9258V3.99219C0.986328 2.98307 1.24023 2.22786 1.74805 1.72656C2.26237 1.21875 3.0306 0.964844 4.05273 0.964844H20.9473C21.9759 0.964844 22.7441 1.21875 23.252 1.72656C23.7598 2.23438 24.0137 2.98958 24.0137 3.99219V15.9258C24.0137 16.9284 23.7598 17.6803 23.252 18.1816C22.7441 18.6895 21.9759 18.9434 20.9473 18.9434H4.05273ZM4.07227 17.3711H20.9277C21.4095 17.3711 21.7806 17.2441 22.041 16.9902C22.3079 16.7298 22.4414 16.3457 22.4414 15.8379V4.08008C22.4414 3.57227 22.3079 3.18815 22.041 2.92773C21.7806 2.66732 21.4095 2.53711 20.9277 2.53711H4.07227C3.58398 2.53711 3.20964 2.66732 2.94922 2.92773C2.6888 3.18815 2.55859 3.57227 2.55859 4.08008V15.8379C2.55859 16.3457 2.6888 16.7298 2.94922 16.9902C3.20964 17.2441 3.58398 17.3711 4.07227 17.3711Z" fill="currentColor"/>
</svg>
