<svg width="14" height="16" viewBox="0 0 14 16" fill="currentColor" xmlns="http://www.w3.org/2000/svg">
<path d="M4.42969 3.13574C4.42969 2.66178 4.54362 2.23112 4.77148 1.84375C5.00391 1.45182 5.3138 1.13965 5.70117 0.907227C6.08854 0.674805 6.51921 0.558594 6.99316 0.558594C7.47168 0.558594 7.90462 0.674805 8.29199 0.907227C8.67936 1.13965 8.98698 1.45182 9.21484 1.84375C9.44727 2.23112 9.56348 2.66178 9.56348 3.13574C9.56348 3.53678 9.47917 3.9082 9.31055 4.25C9.14193 4.5918 8.91178 4.88346 8.62012 5.125C8.32845 5.36654 7.99805 5.53288 7.62891 5.62402V9.95117C7.62891 10.457 7.6084 10.9036 7.56738 11.291C7.52637 11.6784 7.47396 12.0042 7.41016 12.2686C7.35091 12.5329 7.28255 12.7334 7.20508 12.8701C7.13216 13.0023 7.06152 13.0684 6.99316 13.0684C6.9248 13.0684 6.85417 13.0023 6.78125 12.8701C6.70833 12.7334 6.63997 12.5329 6.57617 12.2686C6.51237 12.0042 6.45996 11.6784 6.41895 11.291C6.37793 10.9036 6.35742 10.457 6.35742 9.95117V5.62402C5.98828 5.53288 5.65788 5.36654 5.36621 5.125C5.07454 4.88346 4.8444 4.5918 4.67578 4.25C4.51172 3.9082 4.42969 3.53678 4.42969 3.13574ZM6.26172 3.27246C6.50326 3.27246 6.71061 3.18587 6.88379 3.0127C7.05697 2.83496 7.14355 2.6276 7.14355 2.39062C7.14355 2.15365 7.05697 1.94857 6.88379 1.77539C6.71061 1.60221 6.50326 1.51562 6.26172 1.51562C6.0293 1.51562 5.82422 1.60221 5.64648 1.77539C5.47331 1.94857 5.38672 2.15365 5.38672 2.39062C5.38672 2.6276 5.47331 2.83496 5.64648 3.0127C5.82422 3.18587 6.0293 3.27246 6.26172 3.27246ZM7 15.5703C5.97005 15.5703 5.05176 15.4883 4.24512 15.3242C3.44303 15.1647 2.764 14.946 2.20801 14.668C1.65202 14.3945 1.22819 14.0824 0.936523 13.7314C0.649414 13.3851 0.505859 13.0228 0.505859 12.6445C0.505859 12.2845 0.608398 11.9541 0.813477 11.6533C1.01855 11.348 1.29199 11.0768 1.63379 10.8398C1.97559 10.6029 2.35384 10.4023 2.76855 10.2383C3.18783 10.0697 3.61165 9.94206 4.04004 9.85547C4.47298 9.76432 4.8763 9.71875 5.25 9.71875V10.7168C4.92188 10.7214 4.56413 10.7692 4.17676 10.8604C3.78939 10.9469 3.42253 11.0677 3.07617 11.2227C2.72982 11.3776 2.44499 11.5622 2.22168 11.7764C2.00293 11.9906 1.89355 12.2253 1.89355 12.4805C1.89355 12.7767 2.01888 13.0479 2.26953 13.2939C2.52474 13.54 2.88021 13.752 3.33594 13.9297C3.79622 14.1074 4.33626 14.2441 4.95605 14.3398C5.5804 14.4401 6.26172 14.4902 7 14.4902C7.73372 14.4902 8.41048 14.4401 9.03027 14.3398C9.65462 14.2441 10.1947 14.1051 10.6504 13.9229C11.1107 13.7451 11.4684 13.5332 11.7236 13.2871C11.9788 13.0456 12.1064 12.7767 12.1064 12.4805C12.1064 12.2253 11.9948 11.9906 11.7715 11.7764C11.5482 11.5622 11.2633 11.3776 10.917 11.2227C10.5706 11.0677 10.2038 10.9469 9.81641 10.8604C9.43359 10.7692 9.07585 10.7214 8.74316 10.7168V9.71875C9.12142 9.71875 9.52474 9.76432 9.95312 9.85547C10.3861 9.94206 10.8099 10.0697 11.2246 10.2383C11.6439 10.4023 12.0244 10.6029 12.3662 10.8398C12.708 11.0768 12.9792 11.348 13.1797 11.6533C13.3848 11.9541 13.4873 12.2845 13.4873 12.6445C13.4873 13.0228 13.3438 13.3851 13.0566 13.7314C12.7695 14.0824 12.348 14.3945 11.792 14.668C11.236 14.946 10.5547 15.1647 9.74805 15.3242C8.94596 15.4883 8.02995 15.5703 7 15.5703Z" fill="currentColor"/>
</svg>
