<svg width="17" height="17" viewBox="0 0 17 17" fill="currentColor" xmlns="http://www.w3.org/2000/svg">
<path d="M0.443359 8.7334C0.443359 8.49251 0.527995 8.28743 0.697266 8.11816C0.873047 7.94238 1.07812 7.85449 1.3125 7.85449H7.63086V1.5459C7.63086 1.31152 7.71549 1.1097 7.88477 0.94043C8.05404 0.764648 8.25911 0.676758 8.5 0.676758C8.74089 0.676758 8.94596 0.764648 9.11523 0.94043C9.29102 1.1097 9.37891 1.31152 9.37891 1.5459V7.85449H15.6875C15.9219 7.85449 16.1237 7.94238 16.293 8.11816C16.4688 8.28743 16.5566 8.49251 16.5566 8.7334C16.5566 8.97428 16.4688 9.17936 16.293 9.34863C16.1237 9.5179 15.9219 9.60254 15.6875 9.60254H9.37891V15.9209C9.37891 16.1553 9.29102 16.3571 9.11523 16.5264C8.94596 16.7021 8.74089 16.79 8.5 16.79C8.25911 16.79 8.05404 16.7021 7.88477 16.5264C7.71549 16.3571 7.63086 16.1553 7.63086 15.9209V9.60254H1.3125C1.07812 9.60254 0.873047 9.5179 0.697266 9.34863C0.527995 9.17936 0.443359 8.97428 0.443359 8.7334Z" fill="currentColor"/>
</svg>
