<svg width="21" height="21" viewBox="0 0 21 21" fill="currentColor" xmlns="http://www.w3.org/2000/svg">
<path d="M10.5 20.9102C9.13932 20.9102 7.85677 20.6497 6.65234 20.1289C5.45443 19.6081 4.39648 18.8887 3.47852 17.9707C2.56055 17.0527 1.84115 15.9948 1.32031 14.7969C0.799479 13.5924 0.539062 12.3099 0.539062 10.9492C0.539062 9.58854 0.799479 8.30924 1.32031 7.11133C1.84115 5.9069 2.55729 4.8457 3.46875 3.92773C4.38672 3.00977 5.44466 2.29036 6.64258 1.76953C7.84701 1.2487 9.12956 0.988281 10.4902 0.988281C11.8509 0.988281 13.1335 1.2487 14.3379 1.76953C15.5423 2.29036 16.6035 3.00977 17.5215 3.92773C18.4395 4.8457 19.1589 5.9069 19.6797 7.11133C20.2005 8.30924 20.4609 9.58854 20.4609 10.9492C20.4609 12.3099 20.2005 13.5924 19.6797 14.7969C19.1589 15.9948 18.4395 17.0527 17.5215 17.9707C16.6035 18.8887 15.5423 19.6081 14.3379 20.1289C13.14 20.6497 11.8607 20.9102 10.5 20.9102ZM5.73438 10.959C5.73438 11.2064 5.81576 11.4082 5.97852 11.5645C6.14128 11.7142 6.34961 11.7891 6.60352 11.7891H9.66016V14.8555C9.66016 15.1094 9.73503 15.3177 9.88477 15.4805C10.041 15.6367 10.2428 15.7148 10.4902 15.7148C10.7441 15.7148 10.9492 15.6367 11.1055 15.4805C11.2682 15.3177 11.3496 15.1094 11.3496 14.8555V11.7891H14.416C14.6634 11.7891 14.8685 11.7142 15.0312 11.5645C15.194 11.4082 15.2754 11.2064 15.2754 10.959C15.2754 10.7051 15.194 10.5 15.0312 10.3438C14.875 10.181 14.6699 10.0996 14.416 10.0996H11.3496V7.04297C11.3496 6.78906 11.2682 6.58073 11.1055 6.41797C10.9492 6.25521 10.7441 6.17383 10.4902 6.17383C10.2428 6.17383 10.041 6.25521 9.88477 6.41797C9.73503 6.58073 9.66016 6.78906 9.66016 7.04297V10.0996H6.60352C6.34961 10.0996 6.14128 10.181 5.97852 10.3438C5.81576 10.5 5.73438 10.7051 5.73438 10.959Z" fill="currentColor"/>
</svg>
