<svg width="25" height="19" viewBox="0 0 25 19" fill="currentColor" xmlns="http://www.w3.org/2000/svg">
<path d="M5.86914 6.03125C5.66732 6.03125 5.49154 5.95638 5.3418 5.80664C5.19857 5.6569 5.12695 5.48112 5.12695 5.2793C5.12695 5.07096 5.19857 4.89518 5.3418 4.75195C5.48503 4.60221 5.66081 4.52734 5.86914 4.52734H7.05078C7.2526 4.52734 7.42839 4.60221 7.57812 4.75195C7.72786 4.89518 7.80273 5.07096 7.80273 5.2793C7.80273 5.48763 7.72786 5.66667 7.57812 5.81641C7.42839 5.95964 7.2526 6.03125 7.05078 6.03125H5.86914ZM5.86914 9.2832C5.66081 9.2832 5.48503 9.21159 5.3418 9.06836C5.19857 8.92513 5.12695 8.74935 5.12695 8.54102C5.12695 8.33268 5.19857 8.1569 5.3418 8.01367C5.48503 7.87044 5.66081 7.79883 5.86914 7.79883H7.05078C7.25911 7.79883 7.4349 7.87044 7.57812 8.01367C7.72786 8.1569 7.80273 8.33268 7.80273 8.54102C7.80273 8.74935 7.72786 8.92513 7.57812 9.06836C7.42839 9.21159 7.2526 9.2832 7.05078 9.2832H5.86914ZM9.78516 5.89453C9.61589 5.89453 9.47266 5.83594 9.35547 5.71875C9.23828 5.60156 9.17969 5.45508 9.17969 5.2793C9.17969 5.11003 9.23828 4.9668 9.35547 4.84961C9.47266 4.73242 9.61589 4.67383 9.78516 4.67383H19.2578C19.4271 4.67383 19.5703 4.73242 19.6875 4.84961C19.8047 4.9668 19.8633 5.11003 19.8633 5.2793C19.8633 5.45508 19.8047 5.60156 19.6875 5.71875C19.5703 5.83594 19.4271 5.89453 19.2578 5.89453H9.78516ZM9.78516 9.15625C9.61589 9.15625 9.47266 9.09766 9.35547 8.98047C9.23828 8.85677 9.17969 8.71029 9.17969 8.54102C9.17969 8.36523 9.23828 8.21875 9.35547 8.10156C9.47917 7.98438 9.6224 7.92578 9.78516 7.92578H19.2578C19.4271 7.92578 19.5703 7.98763 19.6875 8.11133C19.8047 8.22852 19.8633 8.37174 19.8633 8.54102C19.8633 8.7168 19.8047 8.86328 19.6875 8.98047C19.5703 9.09766 19.4271 9.15625 19.2578 9.15625H9.78516ZM4.05273 18.4434C3.0306 18.4434 2.26237 18.1895 1.74805 17.6816C1.24023 17.1803 0.986328 16.4284 0.986328 15.4258V3.49219C0.986328 2.48307 1.24023 1.72786 1.74805 1.22656C2.26237 0.71875 3.0306 0.464844 4.05273 0.464844H20.9473C21.9759 0.464844 22.7441 0.71875 23.252 1.22656C23.7598 1.73438 24.0137 2.48958 24.0137 3.49219V15.4258C24.0137 16.4284 23.7598 17.1803 23.252 17.6816C22.7441 18.1895 21.9759 18.4434 20.9473 18.4434H4.05273ZM4.07227 16.8711H20.9277C21.4095 16.8711 21.7806 16.7441 22.041 16.4902C22.3079 16.2298 22.4414 15.8457 22.4414 15.3379V3.58008C22.4414 3.07227 22.3079 2.68815 22.041 2.42773C21.7806 2.16732 21.4095 2.03711 20.9277 2.03711H4.07227C3.58398 2.03711 3.20964 2.16732 2.94922 2.42773C2.6888 2.68815 2.55859 3.07227 2.55859 3.58008V15.3379C2.55859 15.8457 2.6888 16.2298 2.94922 16.4902C3.20964 16.7441 3.58398 16.8711 4.07227 16.8711Z" fill="currentColor"/>
</svg>
