<svg width="24" height="19" viewBox="0 0 24 19" fill="currentColor" xmlns="http://www.w3.org/2000/svg">
<path d="M3.21924 18.2715C2.1971 18.2715 1.42887 18.0176 0.914551 17.5098C0.406738 17.0085 0.152832 16.2565 0.152832 15.2539V3.32031C0.152832 2.3112 0.406738 1.55599 0.914551 1.05469C1.42887 0.546875 2.1971 0.292969 3.21924 0.292969H20.1138C21.1424 0.292969 21.9106 0.546875 22.4185 1.05469C22.9263 1.5625 23.1802 2.31771 23.1802 3.32031V15.2539C23.1802 16.2565 22.9263 17.0085 22.4185 17.5098C21.9106 18.0176 21.1424 18.2715 20.1138 18.2715H3.21924ZM3.23877 16.6992H20.0942C20.576 16.6992 20.9471 16.5723 21.2075 16.3184C21.4744 16.0579 21.6079 15.6738 21.6079 15.166V3.4082C21.6079 2.90039 21.4744 2.51628 21.2075 2.25586C20.9471 1.99544 20.576 1.86523 20.0942 1.86523H3.23877C2.75049 1.86523 2.37614 1.99544 2.11572 2.25586C1.85531 2.51628 1.7251 2.90039 1.7251 3.4082V15.166C1.7251 15.6738 1.85531 16.0579 2.11572 16.3184C2.37614 16.5723 2.75049 16.6992 3.23877 16.6992ZM5.90479 13.2715C5.70296 13.2715 5.54346 13.2064 5.42627 13.0762C5.30908 12.9395 5.25049 12.7604 5.25049 12.5391V6.64062H5.17236L4.05908 7.37305C3.95492 7.44466 3.87354 7.49023 3.81494 7.50977C3.75635 7.5293 3.6945 7.53906 3.62939 7.53906C3.5057 7.53906 3.39827 7.49023 3.30713 7.39258C3.21598 7.29492 3.17041 7.18099 3.17041 7.05078C3.17041 6.86198 3.25505 6.70898 3.42432 6.5918L4.98682 5.53711C5.16911 5.41341 5.3221 5.32878 5.4458 5.2832C5.5695 5.23112 5.71273 5.20508 5.87549 5.20508C6.09684 5.20508 6.26937 5.27018 6.39307 5.40039C6.51676 5.52409 6.57861 5.70638 6.57861 5.94727V12.5391C6.57861 12.7669 6.52002 12.946 6.40283 13.0762C6.28564 13.2064 6.11963 13.2715 5.90479 13.2715ZM8.68799 13.1543C8.49919 13.1543 8.34945 13.1022 8.23877 12.998C8.12809 12.8939 8.07275 12.7572 8.07275 12.5879C8.07275 12.4056 8.14762 12.2363 8.29736 12.0801L11.0317 9.14062C11.2791 8.8737 11.507 8.60677 11.7153 8.33984C11.9302 8.06641 12.0376 7.77995 12.0376 7.48047C12.0376 7.12891 11.9139 6.8457 11.6665 6.63086C11.4191 6.41602 11.0968 6.30859 10.6997 6.30859C10.2896 6.30859 9.96403 6.42253 9.72314 6.65039C9.48877 6.87174 9.3195 7.11589 9.21533 7.38281C9.13721 7.50651 9.05257 7.61068 8.96143 7.69531C8.87028 7.77344 8.74984 7.8125 8.6001 7.8125C8.42432 7.8125 8.28434 7.76367 8.18018 7.66602C8.08252 7.56185 8.03369 7.42513 8.03369 7.25586C8.03369 7.19727 8.03695 7.14193 8.04346 7.08984C8.04997 7.03776 8.06299 6.97917 8.08252 6.91406C8.21924 6.41927 8.52848 6.00911 9.01025 5.68359C9.49202 5.35807 10.0356 5.19531 10.6411 5.19531C11.4354 5.19531 12.0701 5.39714 12.5454 5.80078C13.0272 6.19792 13.2681 6.72526 13.2681 7.38281C13.2681 7.85156 13.1444 8.27148 12.897 8.64258C12.6561 9.01367 12.3468 9.4043 11.9692 9.81445L9.94775 11.9824V12.0215H13.0728C13.2355 12.0215 13.369 12.0736 13.4731 12.1777C13.5838 12.2819 13.6392 12.4154 13.6392 12.5781C13.6392 12.7474 13.5838 12.8874 13.4731 12.998C13.369 13.1022 13.2355 13.1543 13.0728 13.1543H8.68799ZM17.145 13.2812C16.6893 13.2812 16.2661 13.2096 15.8755 13.0664C15.4849 12.9232 15.1593 12.7279 14.8989 12.4805C14.6385 12.2266 14.4725 11.9336 14.4009 11.6016C14.3813 11.4844 14.3716 11.3867 14.3716 11.3086C14.3716 11.1328 14.4237 10.9928 14.5278 10.8887C14.632 10.778 14.7752 10.7227 14.9575 10.7227C15.2375 10.7227 15.436 10.8659 15.5532 11.1523C15.6639 11.4844 15.8592 11.7415 16.1392 11.9238C16.4191 12.0996 16.7609 12.1875 17.1646 12.1875C17.6593 12.1875 18.0565 12.0703 18.356 11.8359C18.6619 11.6016 18.8149 11.2988 18.8149 10.9277C18.8149 10.5436 18.6652 10.2344 18.3657 10C18.0728 9.76562 17.6886 9.64844 17.2134 9.64844H16.6177C16.4679 9.64844 16.341 9.59961 16.2368 9.50195C16.1392 9.39779 16.0903 9.26758 16.0903 9.11133C16.0903 8.95508 16.1392 8.82812 16.2368 8.73047C16.341 8.63281 16.4679 8.58398 16.6177 8.58398H17.1548C17.5584 8.58398 17.8905 8.47005 18.1509 8.24219C18.4178 8.01432 18.5513 7.72786 18.5513 7.38281C18.5513 7.04427 18.4276 6.77734 18.1802 6.58203C17.9393 6.38672 17.6105 6.28906 17.1938 6.28906C16.8162 6.28906 16.494 6.38021 16.2271 6.5625C15.9666 6.73828 15.7909 6.98893 15.6997 7.31445C15.6021 7.60742 15.4067 7.75391 15.1138 7.75391C14.938 7.75391 14.7948 7.70182 14.6841 7.59766C14.5799 7.49349 14.5278 7.36003 14.5278 7.19727C14.5278 7.12565 14.5311 7.06706 14.5376 7.02148C14.5441 6.97591 14.5506 6.92057 14.5571 6.85547C14.6743 6.34766 14.9738 5.94401 15.4556 5.64453C15.9373 5.33854 16.5233 5.18555 17.2134 5.18555C17.9686 5.18555 18.5903 5.38086 19.0786 5.77148C19.5669 6.1556 19.811 6.64388 19.811 7.23633C19.811 7.68555 19.6646 8.08268 19.3716 8.42773C19.0851 8.77279 18.7303 8.98112 18.3071 9.05273V9.07227C18.8215 9.12435 19.2446 9.32943 19.5767 9.6875C19.9152 10.0456 20.0845 10.4753 20.0845 10.9766C20.0845 11.6667 19.8143 12.2233 19.2739 12.6465C18.7336 13.0697 18.0239 13.2812 17.145 13.2812Z" fill="currentColor"/>
</svg>
