<svg xmlns="http://www.w3.org/2000/svg" width="19" height="19" viewBox="0 0 19 19" fill="currentColor">
    <path d="M8.63086 14.1648H10.1309V12.6648H8.63086V14.1648ZM9.38086 2.16479C5.24086 2.16479 1.88086 5.5248 1.88086 9.66479C1.88086 13.8048 5.24086 17.1648 9.38086 17.1648C13.5209 17.1648 16.8809 13.8048 16.8809 9.66479C16.8809 5.5248 13.5209 2.16479 9.38086 2.16479ZM9.38086 15.6648C6.07336 15.6648 3.38086 12.9723 3.38086 9.66479C3.38086 6.3573 6.07336 3.66479 9.38086 3.66479C12.6884 3.66479 15.3809 6.3573 15.3809 9.66479C15.3809 12.9723 12.6884 15.6648 9.38086 15.6648ZM9.38086 5.16479C7.72336 5.16479 6.38086 6.50729 6.38086 8.16479H7.88086C7.88086 7.3398 8.55586 6.66479 9.38086 6.66479C10.2059 6.66479 10.8809 7.3398 10.8809 8.16479C10.8809 9.66479 8.63086 9.47729 8.63086 11.9148H10.1309C10.1309 10.2273 12.3809 10.0398 12.3809 8.16479C12.3809 6.50729 11.0384 5.16479 9.38086 5.16479Z" fill="currentColor"/>
</svg>