<svg width="21" height="21" viewBox="0 0 21 21" fill="currentColor" xmlns="http://www.w3.org/2000/svg">
<path d="M17.611 3.43106C13.7241 -0.47702 7.36552 -0.47702 3.45744 3.43106L2.61252 4.27597V2.75499C2.61252 2.1635 2.12669 1.67767 1.5352 1.67767C0.943706 1.67767 0.457874 2.1635 0.457874 2.75499V6.8532C0.457874 7.44469 0.943706 7.93052 1.5352 7.93052L5.65453 7.93067C6.24602 7.93067 6.73185 7.44484 6.73185 6.85334C6.73185 6.26185 6.24602 5.77602 5.65453 5.77602H4.13354L4.97846 4.9311C8.04166 1.8679 13.0481 1.8679 16.1112 4.95203C19.1744 8.01523 19.1744 13.0006 16.1112 16.0636C13.0482 19.1267 8.04155 19.1267 4.97846 16.0636C3.75322 14.8384 2.99269 13.2963 2.73927 11.5852C2.65484 10.9937 2.10549 10.5923 1.53509 10.6769C0.943593 10.7613 0.542222 11.2895 0.626797 11.8811C0.922536 14.0569 1.91541 16.0216 3.45748 17.5637C5.40095 19.5071 7.97817 20.5 10.5343 20.5C13.0904 20.5 15.6676 19.5282 17.6111 17.5637C21.5191 13.6763 21.5191 7.3389 17.6111 3.43082L17.611 3.43106Z" fill="currentColor"/>
<path d="M10.5976 4.95212C10.0061 4.95212 9.52028 5.43795 9.52028 6.02944V10.5079C9.52028 10.9937 9.83709 11.4162 10.3019 11.543L13.5973 12.4726C13.7029 12.4936 13.7874 12.5149 13.893 12.5149C14.3578 12.5149 14.7803 12.198 14.9282 11.7333C15.0972 11.1629 14.7592 10.5714 14.1887 10.4236L11.6748 9.72647L11.675 6.00828C11.6538 5.41679 11.168 4.95205 10.5976 4.95205L10.5976 4.95212Z" fill="currentColor"/>
</svg>
