<svg viewBox="0 0 18 22" fill="currentColor" xmlns="http://www.w3.org/2000/svg">
<path d="M0.367188 12.6523C0.367188 11.4609 0.588542 10.3444 1.03125 9.30273C1.48047 8.25456 2.09896 7.33659 2.88672 6.54883C3.67448 5.76107 4.58919 5.14583 5.63086 4.70312C6.67904 4.25391 7.80208 4.0293 9 4.0293C9.29948 4.0293 9.58919 4.04557 9.86914 4.07812C10.1556 4.10417 10.4258 4.14323 10.6797 4.19531L8.08203 1.62695C8.01042 1.54883 7.95508 1.46094 7.91602 1.36328C7.88346 1.26562 7.86719 1.16797 7.86719 1.07031C7.86719 0.842448 7.9388 0.653646 8.08203 0.503906C8.23177 0.347656 8.41732 0.269531 8.63867 0.269531C8.87305 0.269531 9.06185 0.347656 9.20508 0.503906L13.2285 4.58594C13.3913 4.75521 13.4727 4.95052 13.4727 5.17188C13.4727 5.28255 13.4531 5.38672 13.4141 5.48438C13.375 5.58203 13.3132 5.67318 13.2285 5.75781L9.20508 9.80078C9.06836 9.95052 8.87956 10.0254 8.63867 10.0254C8.42383 10.0254 8.24154 9.95052 8.0918 9.80078C7.94206 9.65104 7.86719 9.46549 7.86719 9.24414C7.86719 9.13997 7.88672 9.04232 7.92578 8.95117C7.96484 8.85352 8.02018 8.76562 8.0918 8.6875L11.0117 5.79688C10.7253 5.73177 10.4095 5.68294 10.0645 5.65039C9.72591 5.61784 9.37109 5.60156 9 5.60156C8.01693 5.60156 7.09896 5.78385 6.24609 6.14844C5.39323 6.51302 4.64453 7.01758 4 7.66211C3.35547 8.30664 2.85091 9.05534 2.48633 9.9082C2.12174 10.7611 1.93945 11.6758 1.93945 12.6523C1.93945 13.6354 2.12174 14.5566 2.48633 15.416C2.85091 16.2689 3.35547 17.0208 4 17.6719C4.64453 18.3164 5.39323 18.8177 6.24609 19.1758C7.09896 19.5404 8.01693 19.7227 9 19.7227C9.97656 19.7227 10.8913 19.5404 11.7441 19.1758C12.597 18.8177 13.3457 18.3164 13.9902 17.6719C14.6348 17.0208 15.1393 16.2689 15.5039 15.416C15.8685 14.5566 16.0508 13.6354 16.0508 12.6523C16.0508 12.418 16.1191 12.2259 16.2559 12.0762C16.3926 11.9199 16.5781 11.8418 16.8125 11.8418C17.0534 11.8418 17.2487 11.9199 17.3984 12.0762C17.5482 12.2259 17.623 12.418 17.623 12.6523C17.623 13.8568 17.4017 14.9831 16.959 16.0312C16.5163 17.0729 15.8978 17.9909 15.1035 18.7852C14.3158 19.5729 13.3978 20.1882 12.3496 20.6309C11.3079 21.0736 10.1914 21.2949 9 21.2949C7.80208 21.2949 6.67904 21.0736 5.63086 20.6309C4.58919 20.1882 3.67448 19.5729 2.88672 18.7852C2.09896 17.9909 1.48047 17.0729 1.03125 16.0312C0.588542 14.9831 0.367188 13.8568 0.367188 12.6523Z" fill="currentColor"/>
</svg>
