<svg width="16" height="13" viewBox="0 0 16 13" fill="currentColor" xmlns="http://www.w3.org/2000/svg">
<path d="M12.9531 12.6362L7.01953 12.6294C6.75065 12.6294 6.49544 12.5998 6.25391 12.5405C6.01693 12.4858 5.78906 12.397 5.57031 12.2739C5.35612 12.1509 5.1556 11.9914 4.96875 11.7954L0.935547 7.63232C0.71224 7.3999 0.548177 7.17887 0.443359 6.96924C0.338542 6.75505 0.286133 6.54313 0.286133 6.3335C0.286133 6.18766 0.308919 6.04639 0.354492 5.90967C0.400065 5.76839 0.470703 5.62484 0.566406 5.479C0.662109 5.33317 0.785156 5.18506 0.935547 5.03467L4.96191 0.851074C5.14876 0.655111 5.34928 0.497884 5.56348 0.379395C5.78223 0.260905 6.01009 0.176595 6.24707 0.126465C6.48861 0.0763346 6.74382 0.0512695 7.0127 0.0512695H12.9531C13.6686 0.0512695 14.2041 0.229004 14.5596 0.584473C14.9196 0.935384 15.0996 1.46403 15.0996 2.17041V10.5171C15.0996 11.2235 14.9196 11.7521 14.5596 12.103C14.2041 12.4585 13.6686 12.6362 12.9531 12.6362ZM6.64355 9.21143C6.80762 9.21143 6.94661 9.15674 7.06055 9.04736L8.94727 7.14697L10.8408 9.04736C10.9456 9.15674 11.0801 9.21143 11.2441 9.21143C11.4036 9.21143 11.5381 9.15674 11.6475 9.04736C11.7568 8.93343 11.8115 8.79899 11.8115 8.64404C11.8115 8.47542 11.7568 8.34098 11.6475 8.24072L9.74707 6.34717L11.6543 4.44678C11.7637 4.33285 11.8184 4.1984 11.8184 4.04346C11.8184 3.88851 11.7637 3.75635 11.6543 3.64697C11.5449 3.5376 11.4128 3.48291 11.2578 3.48291C11.1074 3.48291 10.9775 3.5376 10.8682 3.64697L8.94727 5.5542L7.04004 3.65381C6.92611 3.54899 6.79395 3.49658 6.64355 3.49658C6.48861 3.49658 6.35645 3.55127 6.24707 3.66064C6.1377 3.76546 6.08301 3.89762 6.08301 4.05713C6.08301 4.20752 6.1377 4.33968 6.24707 4.45361L8.14746 6.34717L6.24707 8.24756C6.1377 8.35693 6.08301 8.4891 6.08301 8.64404C6.08301 8.79899 6.1377 8.93343 6.24707 9.04736C6.35645 9.15674 6.48861 9.21143 6.64355 9.21143Z" fill="currentColor"/>
</svg>
