<svg width="20" height="21" viewBox="0 0 20 21" fill="currentColor" xmlns="http://www.w3.org/2000/svg">
<path d="M10 20.6101C8.63932 20.6101 7.35677 20.3497 6.15234 19.8289C4.95443 19.308 3.89648 18.5886 2.97852 17.6707C2.06055 16.7527 1.34115 15.6947 0.820312 14.4968C0.299479 13.2924 0.0390625 12.0098 0.0390625 10.6492C0.0390625 9.28849 0.299479 8.0092 0.820312 6.81128C1.34115 5.60685 2.05729 4.54565 2.96875 3.62769C3.88672 2.70972 4.94466 1.99032 6.14258 1.46948C7.34701 0.948649 8.62956 0.688232 9.99023 0.688232C11.3509 0.688232 12.6335 0.948649 13.8379 1.46948C15.0423 1.99032 16.1035 2.70972 17.0215 3.62769C17.9395 4.54565 18.6589 5.60685 19.1797 6.81128C19.7005 8.0092 19.9609 9.28849 19.9609 10.6492C19.9609 12.0098 19.7005 13.2924 19.1797 14.4968C18.6589 15.6947 17.9395 16.7527 17.0215 17.6707C16.1035 18.5886 15.0423 19.308 13.8379 19.8289C12.64 20.3497 11.3607 20.6101 10 20.6101ZM9.16016 17.407C9.57031 17.407 9.77539 17.1856 9.77539 16.7429V12.3484C9.77539 12.127 9.86979 12.0164 10.0586 12.0164C10.2474 12.0164 10.3418 12.127 10.3418 12.3484V16.7429C10.3418 16.9513 10.3971 17.114 10.5078 17.2312C10.625 17.3484 10.7845 17.407 10.9863 17.407C11.3965 17.407 11.6016 17.1856 11.6016 16.7429V9.40894C11.6016 9.19409 11.696 9.08667 11.8848 9.08667C11.9694 9.08667 12.0378 9.11597 12.0898 9.17456C12.1419 9.23315 12.168 9.31128 12.168 9.40894V12.407C12.168 12.8106 12.36 13.0125 12.7441 13.0125C13.1152 13.0125 13.3008 12.8106 13.3008 12.407V9.57495C13.3008 8.67 13.0404 8.06453 12.5195 7.75854C12.0052 7.44604 11.2044 7.28979 10.1172 7.28979H9.28711C9.06576 7.28979 8.88672 7.26701 8.75 7.22144C8.61328 7.16935 8.46354 7.08472 8.30078 6.96753L7.38281 6.33276L7.23633 4.26245C7.22982 4.07365 7.17122 3.92716 7.06055 3.823C6.95638 3.71883 6.81641 3.67651 6.64062 3.69604C6.47135 3.70256 6.33789 3.7644 6.24023 3.88159C6.14909 3.99227 6.11003 4.14526 6.12305 4.34058L6.25977 6.38159C6.2793 6.74618 6.44206 7.03914 6.74805 7.2605L8.22266 8.35425C8.42448 8.49748 8.52539 8.68953 8.52539 8.93042V16.7429C8.52539 16.9513 8.58073 17.114 8.69141 17.2312C8.80208 17.3484 8.95833 17.407 9.16016 17.407ZM10.1172 6.65503C10.4688 6.65503 10.7715 6.52808 11.0254 6.27417C11.2793 6.02026 11.4062 5.72404 11.4062 5.3855C11.4062 5.02743 11.2793 4.72469 11.0254 4.47729C10.778 4.22339 10.4753 4.09644 10.1172 4.09644C9.75911 4.09644 9.45638 4.22339 9.20898 4.47729C8.96159 4.72469 8.83789 5.02743 8.83789 5.3855C8.83789 5.73055 8.96484 6.03003 9.21875 6.28394C9.47266 6.53133 9.77214 6.65503 10.1172 6.65503Z" fill="currentColor"/>
</svg>
