<svg width="20" height="21" viewBox="0 0 20 21" fill="currentColor" xmlns="http://www.w3.org/2000/svg">
<path d="M10 20.6199C8.63932 20.6199 7.35677 20.3595 6.15234 19.8386C4.95443 19.3178 3.89648 18.5984 2.97852 17.6804C2.06055 16.7625 1.34115 15.7045 0.820312 14.5066C0.299479 13.3022 0.0390625 12.0196 0.0390625 10.6589C0.0390625 9.29826 0.299479 8.01896 0.820312 6.82104C1.34115 5.61662 2.05729 4.55542 2.96875 3.63745C3.88672 2.71948 4.94466 2.00008 6.14258 1.47925C7.34701 0.958415 8.62956 0.697998 9.99023 0.697998C11.3509 0.697998 12.6335 0.958415 13.8379 1.47925C15.0423 2.00008 16.1035 2.71948 17.0215 3.63745C17.9395 4.55542 18.6589 5.61662 19.1797 6.82104C19.7005 8.01896 19.9609 9.29826 19.9609 10.6589C19.9609 12.0196 19.7005 13.3022 19.1797 14.5066C18.6589 15.7045 17.9395 16.7625 17.0215 17.6804C16.1035 18.5984 15.0423 19.3178 13.8379 19.8386C12.64 20.3595 11.3607 20.6199 10 20.6199ZM5.80078 14.7312H11.123C11.6243 14.7312 12.015 14.5912 12.2949 14.3113C12.5749 14.0313 12.7148 13.644 12.7148 13.1492V8.18823C12.7148 7.68693 12.5846 7.29956 12.3242 7.02612C12.0638 6.75269 11.6797 6.61597 11.1719 6.61597H5.80078C5.31901 6.61597 4.93164 6.75269 4.63867 7.02612C4.3457 7.29956 4.19922 7.68693 4.19922 8.18823V13.1492C4.19922 13.644 4.33919 14.0313 4.61914 14.3113C4.9056 14.5912 5.29948 14.7312 5.80078 14.7312ZM13.291 12.0457L15.2539 13.7156C15.3451 13.7872 15.4362 13.8458 15.5273 13.8914C15.625 13.9369 15.7194 13.9597 15.8105 13.9597C15.9993 13.9597 16.1523 13.8979 16.2695 13.7742C16.3932 13.644 16.4551 13.4714 16.4551 13.2566V8.07104C16.4551 7.86271 16.3932 7.6967 16.2695 7.573C16.1523 7.44279 15.9993 7.37769 15.8105 7.37769C15.7194 7.37769 15.625 7.40047 15.5273 7.44604C15.4297 7.49162 15.3385 7.54696 15.2539 7.61206L13.291 9.29175V12.0457Z" fill="currentColor"/>
</svg>
