<svg width="20" height="21" viewBox="0 0 20 21" fill="currentColor" xmlns="http://www.w3.org/2000/svg">
<path d="M10 20.9102C8.63932 20.9102 7.35677 20.6497 6.15234 20.1289C4.95443 19.6081 3.89648 18.8887 2.97852 17.9707C2.06055 17.0527 1.34115 15.9948 0.820312 14.7969C0.299479 13.5924 0.0390625 12.3099 0.0390625 10.9492C0.0390625 9.58854 0.299479 8.30924 0.820312 7.11133C1.34115 5.9069 2.05729 4.8457 2.96875 3.92773C3.88672 3.00977 4.94466 2.29036 6.14258 1.76953C7.34701 1.2487 8.62956 0.988281 9.99023 0.988281C11.3509 0.988281 12.6335 1.2487 13.8379 1.76953C15.0423 2.29036 16.1035 3.00977 17.0215 3.92773C17.9395 4.8457 18.6589 5.9069 19.1797 7.11133C19.7005 8.30924 19.9609 9.58854 19.9609 10.9492C19.9609 12.3099 19.7005 13.5924 19.1797 14.7969C18.6589 15.9948 17.9395 17.0527 17.0215 17.9707C16.1035 18.8887 15.0423 19.6081 13.8379 20.1289C12.64 20.6497 11.3607 20.9102 10 20.9102ZM10 19.25C11.1523 19.25 12.2298 19.0352 13.2324 18.6055C14.235 18.1758 15.1172 17.5833 15.8789 16.8281C16.6406 16.0664 17.2331 15.1842 17.6562 14.1816C18.0859 13.179 18.3008 12.1016 18.3008 10.9492C18.3008 9.79688 18.0859 8.7194 17.6562 7.7168C17.2266 6.71419 16.6309 5.83203 15.8691 5.07031C15.1139 4.30859 14.2318 3.71615 13.2227 3.29297C12.2201 2.86328 11.1426 2.64844 9.99023 2.64844C8.83789 2.64844 7.76042 2.86328 6.75781 3.29297C5.75521 3.71615 4.8763 4.30859 4.12109 5.07031C3.36589 5.83203 2.77344 6.71419 2.34375 7.7168C1.92057 8.7194 1.70898 9.79688 1.70898 10.9492C1.70898 12.1016 1.92057 13.179 2.34375 14.1816C2.77344 15.1842 3.36589 16.0664 4.12109 16.8281C4.88281 17.5833 5.76497 18.1758 6.76758 18.6055C7.77018 19.0352 8.84766 19.25 10 19.25ZM5.52734 15.8906C5.33203 15.8906 5.18555 15.8353 5.08789 15.7246C4.99674 15.6074 4.95117 15.4577 4.95117 15.2754C4.95117 15.0085 5.05208 14.6634 5.25391 14.2402C5.46224 13.8105 5.77148 13.3841 6.18164 12.9609C6.59831 12.5312 7.1224 12.1699 7.75391 11.877C8.38542 11.584 9.13086 11.4375 9.99023 11.4375C10.8496 11.4375 11.5951 11.584 12.2266 11.877C12.8581 12.1699 13.3789 12.5312 13.7891 12.9609C14.2057 13.3841 14.515 13.8105 14.7168 14.2402C14.9251 14.6634 15.0293 15.0085 15.0293 15.2754C15.0293 15.4577 14.9805 15.6074 14.8828 15.7246C14.7917 15.8353 14.6484 15.8906 14.4531 15.8906H5.52734ZM9.99023 10.6367C9.52799 10.6367 9.10482 10.5163 8.7207 10.2754C8.3431 10.0345 8.04036 9.70898 7.8125 9.29883C7.59115 8.88867 7.48047 8.42318 7.48047 7.90234C7.48047 7.41406 7.59115 6.9681 7.8125 6.56445C8.04036 6.1543 8.3431 5.82878 8.7207 5.58789C9.10482 5.34049 9.52799 5.2168 9.99023 5.2168C10.4525 5.2168 10.8724 5.34049 11.25 5.58789C11.6341 5.82878 11.9368 6.1543 12.1582 6.56445C12.3861 6.9681 12.5 7.41406 12.5 7.90234C12.5 8.42318 12.3861 8.89193 12.1582 9.30859C11.9368 9.71875 11.6341 10.0443 11.25 10.2852C10.8724 10.526 10.4525 10.6432 9.99023 10.6367Z" fill="currentColor"/>
</svg>
