<svg viewBox="0 0 18 18" fill="currentColor" xmlns="http://www.w3.org/2000/svg">
<path d="M0.413086 7.50195C0.413086 6.53516 0.594727 5.62988 0.958008 4.78613C1.32129 3.93652 1.8252 3.18945 2.46973 2.54492C3.11426 1.90039 3.8584 1.39648 4.70215 1.0332C5.55176 0.669922 6.45996 0.488281 7.42676 0.488281C8.39355 0.488281 9.29883 0.669922 10.1426 1.0332C10.9922 1.39648 11.7393 1.90039 12.3838 2.54492C13.0283 3.18945 13.5322 3.93652 13.8955 4.78613C14.2588 5.62988 14.4404 6.53516 14.4404 7.50195C14.4404 8.30469 14.3115 9.06641 14.0537 9.78711C13.8018 10.5078 13.4502 11.1611 12.999 11.7471L17.2969 16.0713C17.3906 16.165 17.4609 16.2734 17.5078 16.3965C17.5605 16.5195 17.5869 16.6514 17.5869 16.792C17.5869 16.9854 17.543 17.1611 17.4551 17.3193C17.373 17.4775 17.2559 17.6006 17.1035 17.6885C16.9512 17.7822 16.7754 17.8291 16.5762 17.8291C16.4355 17.8291 16.3008 17.8027 16.1719 17.75C16.0488 17.7031 15.9346 17.6299 15.8291 17.5303L11.5049 13.1973C10.9307 13.6074 10.2979 13.9297 9.60645 14.1641C8.91504 14.3984 8.18848 14.5156 7.42676 14.5156C6.45996 14.5156 5.55176 14.334 4.70215 13.9707C3.8584 13.6074 3.11426 13.1035 2.46973 12.459C1.8252 11.8145 1.32129 11.0703 0.958008 10.2266C0.594727 9.37695 0.413086 8.46875 0.413086 7.50195ZM1.91602 7.50195C1.91602 8.26367 2.05664 8.97852 2.33789 9.64648C2.625 10.3086 3.02051 10.8916 3.52441 11.3955C4.03418 11.8994 4.62012 12.2949 5.28223 12.582C5.9502 12.8691 6.66504 13.0127 7.42676 13.0127C8.18848 13.0127 8.90039 12.8691 9.5625 12.582C10.2305 12.2949 10.8164 11.8994 11.3203 11.3955C11.8242 10.8916 12.2197 10.3086 12.5068 9.64648C12.7939 8.97852 12.9375 8.26367 12.9375 7.50195C12.9375 6.74023 12.7939 6.02832 12.5068 5.36621C12.2197 4.69824 11.8242 4.1123 11.3203 3.6084C10.8164 3.09863 10.2305 2.70312 9.5625 2.42188C8.90039 2.13477 8.18848 1.99121 7.42676 1.99121C6.66504 1.99121 5.9502 2.13477 5.28223 2.42188C4.62012 2.70312 4.03418 3.09863 3.52441 3.6084C3.02051 4.1123 2.625 4.69824 2.33789 5.36621C2.05664 6.02832 1.91602 6.74023 1.91602 7.50195Z" fill="currentColor"/>
</svg>
