<svg width="15" height="18" viewBox="0 0 15 18" fill="currentColor" xmlns="http://www.w3.org/2000/svg">
<path d="M0.208008 10.3945V3.6709C0.208008 2.74805 0.612305 2.44922 1.35059 2.1416C2.3877 1.71973 5.74512 0.445312 6.78223 0.146484C7.01074 0.0849609 7.26562 0.0146484 7.51172 0.0146484C7.75781 0.0146484 8.0127 0.0673828 8.25 0.146484C9.28711 0.506836 12.6357 1.71094 13.6729 2.1416C14.4199 2.45801 14.8154 2.74805 14.8154 3.6709V10.3945C14.8154 13.6025 13.1016 14.7891 8.10059 17.5928C7.88086 17.7158 7.65234 17.7686 7.51172 17.7686C7.37109 17.7686 7.15137 17.7158 6.92285 17.5928C1.93066 14.7803 0.208008 13.6025 0.208008 10.3945ZM7.69629 16.1426C7.80176 16.1162 7.9248 16.0547 8.05664 15.9668C12.1172 13.4971 13.418 12.7852 13.418 10.0693V3.94336C13.418 3.64453 13.3652 3.52148 13.1279 3.43359C11.7656 2.96777 9.19043 2.03613 7.86328 1.50879C7.79297 1.48242 7.74023 1.46484 7.69629 1.45605V16.1426Z" fill="currentColor"/>
</svg>
