<svg width="23" height="20" viewBox="0 0 23 20" fill="currentColor" xmlns="http://www.w3.org/2000/svg">
<path d="M5.17188 8.52344C4.41016 8.52344 3.71029 8.33464 3.07227 7.95703C2.43424 7.57292 1.92318 7.0651 1.53906 6.43359C1.15495 5.79557 0.962891 5.09245 0.962891 4.32422C0.962891 3.55599 1.15169 2.85286 1.5293 2.21484C1.91341 1.57682 2.42448 1.06576 3.0625 0.681641C3.70052 0.297526 4.40365 0.105469 5.17188 0.105469C5.9401 0.105469 6.63997 0.297526 7.27148 0.681641C7.90951 1.06576 8.42057 1.57682 8.80469 2.21484C9.1888 2.85286 9.38086 3.55599 9.38086 4.32422C9.38086 5.09245 9.1888 5.79557 8.80469 6.43359C8.42057 7.0651 7.90951 7.57292 7.27148 7.95703C6.63997 8.33464 5.9401 8.52344 5.17188 8.52344ZM4.67383 6.58008C4.88867 6.58008 5.05469 6.48893 5.17188 6.30664L7.21289 3.10352C7.29753 2.9668 7.33984 2.83333 7.33984 2.70312C7.33984 2.57943 7.28776 2.47201 7.18359 2.38086C7.08594 2.28971 6.96875 2.24414 6.83203 2.24414C6.65625 2.24414 6.50977 2.33529 6.39258 2.51758L4.6543 5.31055L3.89258 4.34375C3.82747 4.25911 3.75911 4.19727 3.6875 4.1582C3.6224 4.11914 3.54102 4.09961 3.44336 4.09961C3.31315 4.09961 3.19922 4.14844 3.10156 4.24609C3.01042 4.34375 2.96484 4.46419 2.96484 4.60742C2.96484 4.75716 3.00716 4.88411 3.0918 4.98828L4.18555 6.30664C4.25716 6.39128 4.32878 6.45964 4.40039 6.51172C4.47852 6.55729 4.56966 6.58008 4.67383 6.58008ZM12.3008 5.06641C12.0924 5.06641 11.9167 4.99479 11.7734 4.85156C11.6302 4.70833 11.5586 4.53255 11.5586 4.32422C11.5586 4.1224 11.6302 3.94987 11.7734 3.80664C11.9167 3.66341 12.0924 3.5918 12.3008 3.5918H22.1055C22.3138 3.5918 22.4896 3.66341 22.6328 3.80664C22.7826 3.94987 22.8574 4.1224 22.8574 4.32422C22.8574 4.53255 22.7826 4.70833 22.6328 4.85156C22.4896 4.99479 22.3138 5.06641 22.1055 5.06641H12.3008ZM12.3008 16.3555C12.0924 16.3555 11.9167 16.2839 11.7734 16.1406C11.6302 15.9974 11.5586 15.8249 11.5586 15.623C11.5586 15.4147 11.6302 15.2389 11.7734 15.0957C11.9167 14.9525 12.0924 14.8809 12.3008 14.8809H22.1055C22.3138 14.8809 22.4896 14.9525 22.6328 15.0957C22.7826 15.2389 22.8574 15.4147 22.8574 15.623C22.8574 15.8249 22.7826 15.9974 22.6328 16.1406C22.4896 16.2839 22.3138 16.3555 22.1055 16.3555H12.3008ZM5.17188 19.832C4.41016 19.832 3.71029 19.64 3.07227 19.2559C2.43424 18.8783 1.92318 18.3704 1.53906 17.7324C1.15495 17.0944 0.962891 16.3945 0.962891 15.6328C0.962891 14.8646 1.15169 14.1615 1.5293 13.5234C1.91341 12.8789 2.42448 12.3646 3.0625 11.9805C3.70052 11.5964 4.40365 11.4043 5.17188 11.4043C5.9401 11.4043 6.63997 11.5964 7.27148 11.9805C7.90951 12.3646 8.42057 12.8789 8.80469 13.5234C9.1888 14.1615 9.38086 14.8646 9.38086 15.6328C9.38086 16.3945 9.1888 17.0944 8.80469 17.7324C8.42057 18.3704 7.90951 18.8783 7.27148 19.2559C6.63997 19.64 5.9401 19.832 5.17188 19.832ZM4.67383 17.8887C4.88867 17.8887 5.05469 17.7943 5.17188 17.6055L7.21289 14.4023C7.29753 14.2656 7.33984 14.1354 7.33984 14.0117C7.33984 13.8815 7.28776 13.7708 7.18359 13.6797C7.08594 13.5885 6.96875 13.543 6.83203 13.543C6.65625 13.543 6.50977 13.6374 6.39258 13.8262L4.6543 16.6191L3.89258 15.6523C3.82747 15.5677 3.75911 15.5059 3.6875 15.4668C3.6224 15.4277 3.54102 15.4082 3.44336 15.4082C3.31315 15.4082 3.19922 15.457 3.10156 15.5547C3.01042 15.6523 2.96484 15.7695 2.96484 15.9062C2.96484 16.0625 3.00716 16.1895 3.0918 16.2871L4.18555 17.6152C4.25716 17.6934 4.32878 17.7585 4.40039 17.8105C4.47852 17.8626 4.56966 17.8887 4.67383 17.8887Z" fill="currentColor"/>
</svg>
