<svg width="23" height="21" viewBox="0 0 23 21" fill="currentColor" xmlns="http://www.w3.org/2000/svg">
<path d="M22.1052 14.1931H19.8076V9.73241C19.8076 4.34483 16.1798 0 11.6814 0H1.59621C0.725552 0 0 0.84 0 1.91172V15.989C0 17.0317 0.701367 17.9007 1.59621 17.9007H5.94953C6.33649 19.6676 7.69085 21 9.28707 21C10.8833 21 12.2376 19.6676 12.6246 17.9007H18.2355C19.0336 17.9007 19.6866 17.2055 19.8076 16.2786H22.1293C22.613 16.2786 23 15.8152 23 15.2359C22.9758 14.6566 22.5889 14.1931 22.1052 14.1931ZM10.327 3.04138C10.327 2.78069 10.4963 2.57793 10.714 2.57793H11.7056C14.4385 2.57793 16.7361 4.77931 17.4374 7.79172C17.51 8.08138 17.3165 8.37104 17.0747 8.37104H10.714C10.4963 8.37104 10.327 8.16828 10.327 7.90759V3.04138ZM2.15247 7.93655V3.04138C2.15247 2.78069 2.32177 2.57793 2.53943 2.57793H7.78759C8.00526 2.57793 8.17455 2.78069 8.17455 3.04138V7.93655C8.17455 8.19724 8.00526 8.4 7.78759 8.4H2.53943C2.34595 8.4 2.15247 8.19724 2.15247 7.93655ZM9.28707 19.0303C8.27129 19.0303 7.449 18.0455 7.449 16.829C7.449 15.6124 8.27129 14.6276 9.28707 14.6276C10.3028 14.6276 11.1251 15.6124 11.1251 16.829C11.1251 18.0455 10.3028 19.0303 9.28707 19.0303Z" fill="currentColor"/>
</svg>
