<svg width="20" height="17" viewBox="0 0 20 17" fill="currentColor" xmlns="http://www.w3.org/2000/svg">
<path d="M2.2627 7.94238C0.917969 7.94238 0.241211 7.2832 0.241211 5.92969V2.57227C0.241211 1.22754 0.917969 0.577148 2.2627 0.577148H17.2129C18.5576 0.577148 19.2344 1.22754 19.2344 2.57227V5.92969C19.2344 7.2832 18.5576 7.94238 17.2129 7.94238H2.2627ZM2.2627 16.7578C0.917969 16.7578 0.241211 16.1074 0.241211 14.7539V11.3877C0.241211 10.0518 0.917969 9.39258 2.2627 9.39258H17.2129C18.5576 9.39258 19.2344 10.0518 19.2344 11.3877V14.7539C19.2344 16.1074 18.5576 16.7578 17.2129 16.7578H2.2627Z" fill="currentColor"/>
</svg>
