<svg width="24" height="19" viewBox="0 0 24 19" fill="currentColor" xmlns="http://www.w3.org/2000/svg">
<path d="M3.55273 18.9531C2.5306 18.9531 1.76237 18.6992 1.24805 18.1914C0.740234 17.6901 0.486328 16.9349 0.486328 15.9258V4.00195C0.486328 2.99284 0.740234 2.23763 1.24805 1.73633C1.76237 1.22852 2.5306 0.974609 3.55273 0.974609H20.4473C21.4759 0.974609 22.2441 1.22852 22.752 1.73633C23.2598 2.23763 23.5137 2.99284 23.5137 4.00195V15.9258C23.5137 16.9349 23.2598 17.6901 22.752 18.1914C22.2441 18.6992 21.4759 18.9531 20.4473 18.9531H3.55273ZM3.57227 17.3809H20.4277C20.9095 17.3809 21.2806 17.2539 21.541 17C21.8079 16.7396 21.9414 16.3555 21.9414 15.8477V4.08008C21.9414 3.57227 21.8079 3.19141 21.541 2.9375C21.2806 2.67708 20.9095 2.54688 20.4277 2.54688H3.57227C3.08398 2.54688 2.70964 2.67708 2.44922 2.9375C2.1888 3.19141 2.05859 3.57227 2.05859 4.08008V15.8477C2.05859 16.3555 2.1888 16.7396 2.44922 17C2.70964 17.2539 3.08398 17.3809 3.57227 17.3809ZM7.92773 17.6836V2.25391H9.46094V17.6836H7.92773ZM6.05273 6.16992H3.95312C3.8099 6.16992 3.68294 6.11458 3.57227 6.00391C3.46159 5.88672 3.40625 5.75977 3.40625 5.62305C3.40625 5.47331 3.46159 5.34635 3.57227 5.24219C3.68294 5.13151 3.8099 5.07617 3.95312 5.07617H6.05273C6.19596 5.07617 6.32292 5.13151 6.43359 5.24219C6.55078 5.34635 6.60938 5.47331 6.60938 5.62305C6.60938 5.75977 6.55078 5.88672 6.43359 6.00391C6.32292 6.11458 6.19596 6.16992 6.05273 6.16992ZM6.05273 8.69922H3.95312C3.8099 8.69922 3.68294 8.64388 3.57227 8.5332C3.46159 8.42253 3.40625 8.29232 3.40625 8.14258C3.40625 7.99935 3.46159 7.87565 3.57227 7.77148C3.68294 7.66081 3.8099 7.60547 3.95312 7.60547H6.05273C6.19596 7.60547 6.32292 7.66081 6.43359 7.77148C6.55078 7.87565 6.60938 7.99935 6.60938 8.14258C6.60938 8.29232 6.55078 8.42253 6.43359 8.5332C6.32292 8.64388 6.19596 8.69922 6.05273 8.69922ZM6.05273 11.2188H3.95312C3.8099 11.2188 3.68294 11.1667 3.57227 11.0625C3.46159 10.9518 3.40625 10.8249 3.40625 10.6816C3.40625 10.5319 3.46159 10.4049 3.57227 10.3008C3.68294 10.1901 3.8099 10.1348 3.95312 10.1348H6.05273C6.19596 10.1348 6.32292 10.1901 6.43359 10.3008C6.55078 10.4049 6.60938 10.5319 6.60938 10.6816C6.60938 10.8249 6.55078 10.9518 6.43359 11.0625C6.32292 11.1667 6.19596 11.2188 6.05273 11.2188Z" fill="currentColor"/>
</svg>
