<svg width="23" height="21" viewBox="0 0 23 21" fill="currentColor" xmlns="http://www.w3.org/2000/svg">
<path d="M9.47384 4.25986V0.808076C9.47384 0.588599 9.55989 0.39905 9.73201 0.23943C9.91161 0.07981 10.1249 0 10.3718 0C10.6188 0 10.8321 0.07981 11.0117 0.23943C11.1912 0.39905 11.281 0.588599 11.281 0.808076V4.25986H9.47384ZM2.37968 12.7197C1.61639 12.7197 1.02895 12.5401 0.617371 12.181C0.20579 11.8219 0 11.3064 0 10.6347V5.07791C0 4.41283 0.20579 3.90071 0.617371 3.54157C1.02895 3.18242 1.61639 3.00285 2.37968 3.00285H17.0394C17.5408 3.00285 17.9337 3.06936 18.2181 3.20238C18.5099 3.32874 18.798 3.51829 19.0824 3.77102L22.0682 6.29501C22.6968 6.83373 23.0074 7.35915 22.9999 7.87126C22.9924 8.38337 22.6856 8.89549 22.0794 9.4076L19.0824 11.9515C18.798 12.1976 18.5099 12.3872 18.2181 12.5202C17.9337 12.6466 17.5371 12.7097 17.0282 12.7097L2.37968 12.7197ZM9.47384 12.1511H11.281V20.9501H9.47384V12.1511ZM5.15224 20.2019C5.15224 19.9824 5.24204 19.7929 5.42164 19.6333C5.60124 19.4736 5.81451 19.3938 6.06146 19.3938H14.7046C14.9516 19.3938 15.1649 19.4736 15.3445 19.6333C15.5241 19.7929 15.6139 19.9824 15.6139 20.2019C15.6139 20.4214 15.5241 20.6076 15.3445 20.7606C15.1649 20.9202 14.9516 21 14.7046 21H6.06146C5.81451 21 5.60124 20.9202 5.42164 20.7606C5.24204 20.6076 5.15224 20.4214 5.15224 20.2019Z" fill="currentColor"/>
</svg>
