<svg width="21" height="21" viewBox="0 0 21 21" fill="currentColor" xmlns="http://www.w3.org/2000/svg">
<path d="M15.5281 8.12995C15.5281 7.01619 12.9889 7.01619 12.9889 8.12995L13.2358 10.2159L11.6658 10.216L11.499 9.46408C11.4838 9.4076 11.4327 9.36853 11.3743 9.36853H9.62591C9.56748 9.36853 9.51637 9.40776 9.50124 9.46408L9.33441 10.216H7.76457L8.01148 8.13011C8.01148 7.01636 5.47226 7.01636 5.47226 8.13011L5.71917 10.216H-2.28882e-05V13.3767C-2.28882e-05 13.8698 0.19594 14.3428 0.544729 14.6916C0.893526 15.0404 1.36652 15.2364 1.85982 15.2364H19.1403C19.6335 15.2364 20.1065 15.0404 20.4553 14.6916C20.8041 14.3428 21 13.8698 21 13.3767V10.216H15.2812L15.5281 8.12995Z" fill="currentColor"/>
<path d="M11.2094 8.43495V3.39618C11.2094 2.2108 10.5914 1.11117 9.57881 0.494959C8.56609 -0.121251 7.30551 -0.164877 6.25279 0.379725C5.19987 0.924311 4.50716 1.97852 4.42516 3.16099C4.41409 3.31821 4.34459 3.46568 4.23034 3.57408L4.19518 3.60744V3.6076C4.14684 3.65367 4.11933 3.71779 4.11933 3.78469V3.91604C4.11933 3.97658 4.14342 4.03453 4.18623 4.07733C4.22887 4.12014 4.28698 4.14407 4.34736 4.14407H5.90483C5.96537 4.14407 6.02332 4.12014 6.06612 4.07733C6.10893 4.03453 6.13286 3.97658 6.13286 3.91604V3.78469C6.13286 3.71779 6.10551 3.65367 6.05701 3.6076C5.90223 3.46193 5.83094 3.24839 5.86739 3.03894C5.98735 2.38577 6.42715 1.83631 7.03831 1.57622C7.64932 1.31597 8.35015 1.37977 8.9042 1.74598C9.45824 2.11236 9.79158 2.73215 9.79158 3.3962L9.79141 8.43497L11.2094 8.43495Z" fill="currentColor"/>
<path d="M2.1239 16.1696H18.8765V21H2.1239V16.1696Z" fill="currentColor"/>
</svg>
