<svg width="23" height="21" viewBox="0 0 23 21" fill="currentColor" xmlns="http://www.w3.org/2000/svg">
<path d="M12.1888 15V19.5H14.9431C15.3234 19.5 15.6316 19.8357 15.6316 20.25C15.6316 20.6643 15.3234 21 14.9431 21H8.05747C7.67714 21 7.36891 20.6643 7.36891 20.25C7.36891 19.8357 7.67714 19.5 8.05747 19.5H10.8117V15H1.1729C0.308964 15 -0.222364 14.1571 0.0905523 13.2807L4.53727 0.82545C4.70874 0.345112 5.17595 0 5.64744 0H17.3526C17.826 0 18.2913 0.345409 18.4628 0.82545L22.9095 13.2807C23.2228 14.1584 22.6888 15 21.8271 15H12.1888ZM12.9827 1.5H10.0179L9.67358 3.75H13.3271L12.9827 1.5ZM14.3788 1.5L14.7231 3.75H18.0296L17.2264 1.5H14.3788ZM8.62174 1.5H5.77417L4.97089 3.75H8.27746L8.62174 1.5ZM13.5563 5.25H9.44388L8.98475 8.25H14.0154L13.5563 5.25ZM8.04783 5.25H4.4353L3.36414 8.25H7.5888L8.04783 5.25ZM14.9524 5.25L15.4114 8.25H19.636L18.5649 5.25H14.9524ZM14.8186 13.5L14.2447 9.75H8.75516L8.18131 13.5H14.8186ZM16.2146 13.5H21.5104L20.1716 9.75H15.6408L16.2146 13.5ZM6.7855 13.5L7.35921 9.75H2.82848L1.48968 13.5H6.7855Z" fill="currentColor"/>
</svg>
