<svg width="19" height="16" viewBox="0 0 19 16" fill="currentColor" xmlns="http://www.w3.org/2000/svg">
<path d="M14.3359 14.4844H13.2188V7.09375C13.2188 6.80729 13.138 6.58333 12.9766 6.42188C12.8203 6.25521 12.599 6.17188 12.3125 6.17188H0.960938V5.05469H12.3906C13.026 5.05469 13.5078 5.21875 13.8359 5.54688C14.1693 5.86979 14.3359 6.34375 14.3359 6.96875V14.4844ZM10.0938 5.42188V14.4844H8.97656V5.42188H10.0938ZM2.74219 15.0547C1.92448 15.0547 1.3099 14.8516 0.898438 14.4453C0.492188 14.0443 0.289062 13.4427 0.289062 12.6406V3.09375C0.289062 2.28646 0.492188 1.68229 0.898438 1.28125C1.3099 0.875 1.92448 0.671875 2.74219 0.671875H16.2578C17.0807 0.671875 17.6953 0.875 18.1016 1.28125C18.5078 1.6875 18.7109 2.29167 18.7109 3.09375V12.6406C18.7109 13.4427 18.5078 14.0443 18.1016 14.4453C17.6953 14.8516 17.0807 15.0547 16.2578 15.0547H2.74219ZM2.75781 13.7969H16.2422C16.6276 13.7969 16.9245 13.6953 17.1328 13.4922C17.3464 13.2839 17.4531 12.9766 17.4531 12.5703V3.16406C17.4531 2.75781 17.3464 2.45052 17.1328 2.24219C16.9245 2.03385 16.6276 1.92969 16.2422 1.92969H2.75781C2.36719 1.92969 2.06771 2.03385 1.85938 2.24219C1.65104 2.45052 1.54688 2.75781 1.54688 3.16406V12.5703C1.54688 12.9766 1.65104 13.2839 1.85938 13.4922C2.06771 13.6953 2.36719 13.7969 2.75781 13.7969Z" fill="currentColor"/>
</svg>
