<svg width="24" height="19" viewBox="0 0 24 19" fill="currentColor" xmlns="http://www.w3.org/2000/svg">
<path d="M17.7114 17.5586H16.3149V8.32031C16.3149 7.96224 16.214 7.68229 16.0122 7.48047C15.8169 7.27214 15.5402 7.16797 15.1821 7.16797H0.992676V5.77148H15.2798C16.0741 5.77148 16.6763 5.97656 17.0864 6.38672C17.5031 6.79036 17.7114 7.38281 17.7114 8.16406V17.5586ZM12.4087 6.23047V17.5586H11.0122V6.23047H12.4087ZM3.21924 18.2715C2.1971 18.2715 1.42887 18.0176 0.914551 17.5098C0.406738 17.0085 0.152832 16.2565 0.152832 15.2539V3.32031C0.152832 2.3112 0.406738 1.55599 0.914551 1.05469C1.42887 0.546875 2.1971 0.292969 3.21924 0.292969H20.1138C21.1424 0.292969 21.9106 0.546875 22.4185 1.05469C22.9263 1.5625 23.1802 2.31771 23.1802 3.32031V15.2539C23.1802 16.2565 22.9263 17.0085 22.4185 17.5098C21.9106 18.0176 21.1424 18.2715 20.1138 18.2715H3.21924ZM3.23877 16.6992H20.0942C20.576 16.6992 20.9471 16.5723 21.2075 16.3184C21.4744 16.0579 21.6079 15.6738 21.6079 15.166V3.4082C21.6079 2.90039 21.4744 2.51628 21.2075 2.25586C20.9471 1.99544 20.576 1.86523 20.0942 1.86523H3.23877C2.75049 1.86523 2.37614 1.99544 2.11572 2.25586C1.85531 2.51628 1.7251 2.90039 1.7251 3.4082V15.166C1.7251 15.6738 1.85531 16.0579 2.11572 16.3184C2.37614 16.5723 2.75049 16.6992 3.23877 16.6992Z" fill="currentColor"/>
</svg>
