<svg width="25" height="19" viewBox="0 0 25 19" fill="currentColor" xmlns="http://www.w3.org/2000/svg">
<path d="M1.43555 8.00586V6.43359H23.6719V8.00586H1.43555ZM1.43555 13.4844V11.9121H23.6719V13.4844H1.43555ZM11.7188 18.5039V1.41406H13.291V18.5039H11.7188ZM4.05273 18.9434C3.0306 18.9434 2.26237 18.6895 1.74805 18.1816C1.24023 17.6803 0.986328 16.9284 0.986328 15.9258V3.99219C0.986328 2.98307 1.24023 2.22786 1.74805 1.72656C2.26237 1.21875 3.0306 0.964844 4.05273 0.964844H20.9473C21.9759 0.964844 22.7441 1.21875 23.252 1.72656C23.7598 2.23438 24.0137 2.98958 24.0137 3.99219V15.9258C24.0137 16.9284 23.7598 17.6803 23.252 18.1816C22.7441 18.6895 21.9759 18.9434 20.9473 18.9434H4.05273ZM4.07227 17.3711H20.9277C21.4095 17.3711 21.7806 17.2441 22.041 16.9902C22.3079 16.7298 22.4414 16.3457 22.4414 15.8379V4.08008C22.4414 3.57227 22.3079 3.18815 22.041 2.92773C21.7806 2.66732 21.4095 2.53711 20.9277 2.53711H4.07227C3.58398 2.53711 3.20964 2.66732 2.94922 2.92773C2.6888 3.18815 2.55859 3.57227 2.55859 4.08008V15.8379C2.55859 16.3457 2.6888 16.7298 2.94922 16.9902C3.20964 17.2441 3.58398 17.3711 4.07227 17.3711Z" fill="currentColor"/>
</svg>
