<svg width="21" height="21" viewBox="0 0 21 21" fill="currentColor" xmlns="http://www.w3.org/2000/svg">
<path d="M10.4102 20.9199C9.04948 20.9199 7.76693 20.6595 6.5625 20.1387C5.36458 19.6178 4.30664 18.8984 3.38867 17.9805C2.4707 17.0625 1.7513 16.0046 1.23047 14.8066C0.709635 13.6022 0.449219 12.3197 0.449219 10.959C0.449219 9.59831 0.709635 8.31901 1.23047 7.12109C1.7513 5.91667 2.46745 4.85547 3.37891 3.9375C4.29688 3.01953 5.35482 2.30013 6.55273 1.7793C7.75716 1.25846 9.03971 0.998047 10.4004 0.998047C11.7611 0.998047 13.0436 1.25846 14.248 1.7793C15.4525 2.30013 16.5137 3.01953 17.4316 3.9375C18.3496 4.85547 19.069 5.91667 19.5898 7.12109C20.1107 8.31901 20.3711 9.59831 20.3711 10.959C20.3711 12.3197 20.1107 13.6022 19.5898 14.8066C19.069 16.0046 18.3496 17.0625 17.4316 17.9805C16.5137 18.8984 15.4525 19.6178 14.248 20.1387C13.0501 20.6595 11.7708 20.9199 10.4102 20.9199ZM8.33008 16.1934C8.63607 16.4928 8.94206 16.6458 9.24805 16.6523C9.55404 16.6523 9.86328 16.4961 10.1758 16.1836L15.0488 11.3594C15.2441 11.1641 15.4036 10.9818 15.5273 10.8125C15.6576 10.6367 15.7227 10.3926 15.7227 10.0801V8.20508C15.7227 7.9707 15.6901 7.77865 15.625 7.62891C15.5599 7.47917 15.4492 7.32617 15.293 7.16992L14.4238 6.31055C14.2676 6.16081 14.1113 6.04036 13.9551 5.94922C13.8053 5.85156 13.6198 5.80273 13.3984 5.80273H11.4258C11.1263 5.80273 10.8887 5.86784 10.7129 5.99805C10.5371 6.12826 10.3548 6.28776 10.166 6.47656L5.35156 11.3594C5.03906 11.6719 4.88281 11.9779 4.88281 12.2773C4.88281 12.5768 5.03581 12.8763 5.3418 13.1758L8.33008 16.1934ZM12.207 9.32812C12.0638 9.19141 11.9922 9.02539 11.9922 8.83008C11.9922 8.62826 12.0638 8.45247 12.207 8.30273C12.3438 8.16602 12.5098 8.09766 12.7051 8.09766C12.9004 8.09766 13.0697 8.16602 13.2129 8.30273C13.3561 8.44596 13.4245 8.61523 13.418 8.81055C13.418 9.00586 13.3496 9.17513 13.2129 9.31836C13.0697 9.46159 12.9004 9.5332 12.7051 9.5332C12.5098 9.5332 12.3438 9.46484 12.207 9.32812Z" fill="currentColor"/>
</svg>
