<svg width="17" height="21" viewBox="0 0 17 21" fill="currentColor" xmlns="http://www.w3.org/2000/svg">
<path d="M16.3076 9.56445C16.5713 9.70508 16.6855 9.98633 16.5361 10.2412C16.3867 10.4961 16.0967 10.5312 15.833 10.3818L14.6553 9.6875L14.6465 10.9092C14.6465 11.1553 14.4619 11.375 14.2158 11.375C13.9434 11.3662 13.7676 11.1553 13.7676 10.8828V9.16895L11.166 7.63965L11.1924 10.6807L12.6689 11.542C12.915 11.6914 13.0205 11.9375 12.8799 12.1748C12.748 12.3945 12.4844 12.4473 12.2559 12.3154L11.2012 11.709L11.21 13.0537C11.21 13.3525 11.0254 13.5898 10.7354 13.5898C10.4365 13.5898 10.2607 13.3613 10.2607 13.0537L10.2695 11.7002L9.4873 12.1484C9.26758 11.9814 9.03906 11.6914 8.93359 11.4541L10.2783 10.6807L10.3047 7.63965L8.63477 8.62402V7.57812L9.85645 6.88379L8.63477 6.18066V5.14355L10.3047 6.12793L10.2783 3.06934L8.79297 2.20801C8.54688 2.05859 8.4502 1.8125 8.58203 1.5752C8.70508 1.35547 8.97754 1.30273 9.20605 1.43457L10.2695 2.0498L10.2607 0.713867C10.2607 0.415039 10.4365 0.177734 10.7354 0.177734C11.0254 0.177734 11.21 0.415039 11.21 0.713867L11.2012 2.0498L12.2646 1.43457C12.4932 1.30273 12.7568 1.35547 12.8887 1.5752C13.0205 1.8125 12.9238 2.05859 12.6777 2.20801L11.1924 3.06934L11.166 6.12793L13.7852 4.58984L13.7939 2.88477C13.7939 2.58594 13.9609 2.38379 14.2422 2.38379C14.4883 2.38379 14.6729 2.58594 14.6729 2.8584V4.07129L15.8682 3.37695C16.1055 3.23633 16.4043 3.28906 16.5361 3.53516C16.6855 3.79004 16.5889 4.0625 16.3164 4.2207L15.1387 4.88867L16.2021 5.50391C16.4219 5.62695 16.5098 5.89062 16.3955 6.11914C16.2461 6.34766 15.9824 6.3916 15.7451 6.25098L14.251 5.38965L11.6055 6.88379L14.2246 8.36914L15.7188 7.5166C15.9648 7.37598 16.2373 7.41113 16.3691 7.64844C16.4922 7.86816 16.4043 8.13184 16.1758 8.26367L15.1123 8.87891L16.3076 9.56445ZM4.84668 20.4102C2.29785 20.4102 0.241211 18.3535 0.241211 15.8223C0.241211 14.4863 0.794922 13.3174 1.84082 12.3682C2.03418 12.2012 2.06934 12.0957 2.06934 11.832L2.06055 3.88672C2.06055 2.10254 3.19434 0.880859 4.84668 0.880859C6.48145 0.880859 7.60645 2.10254 7.60645 3.88672L7.59766 11.832C7.59766 12.0957 7.6416 12.2012 7.82617 12.3682C8.88086 13.3174 9.42578 14.4863 9.42578 15.8223C9.42578 18.3535 7.37793 20.4102 4.84668 20.4102ZM4.84668 19.1357C6.65723 19.1357 8.14258 17.6416 8.14258 15.8223C8.14258 14.7236 7.62402 13.7305 6.69238 13.1064C6.41992 12.9219 6.31445 12.7549 6.31445 12.3945V3.93945C6.31445 2.88477 5.70801 2.17285 4.84668 2.17285C3.96777 2.17285 3.36133 2.88477 3.36133 3.93945V12.3945C3.36133 12.7549 3.25586 12.9219 2.9834 13.1064C2.05176 13.7305 1.5332 14.7236 1.5332 15.8223C1.5332 17.6416 3.00977 19.1357 4.84668 19.1357ZM4.83789 17.9492C3.66016 17.9492 2.71094 17 2.71094 15.8135C2.71094 14.9873 3.17676 14.3105 3.85352 13.9414C4.13477 13.792 4.23145 13.6865 4.23145 13.2559V11.498C4.23145 11.0762 4.49512 10.8037 4.83789 10.8037C5.17188 10.8037 5.44434 11.0762 5.44434 11.498V13.2559C5.44434 13.6865 5.54102 13.792 5.82227 13.9414C6.49902 14.3105 6.96484 14.9873 6.96484 15.8135C6.96484 17 6.01562 17.9492 4.83789 17.9492Z" fill="currentColor"/>
</svg>
