<svg width="20" height="17" viewBox="0 0 20 17" fill="currentColor" xmlns="http://www.w3.org/2000/svg">
<path d="M2.24219 13.5234C1 13.5234 0.234375 12.7578 0.234375 11.5156V2.55469C0.234375 1.3125 1 0.546875 2.24219 0.546875H17.7578C19.0078 0.546875 19.7656 1.3125 19.7656 2.55469V11.5156C19.7656 12.7578 19.0078 13.5234 17.7578 13.5234H2.24219ZM2.26562 12.2656H17.7344C18.2188 12.2656 18.5078 11.9766 18.5078 11.5V2.57031C18.5078 2.09375 18.2188 1.80469 17.7344 1.80469H2.26562C1.78125 1.80469 1.49219 2.09375 1.49219 2.57031V11.5C1.49219 11.9766 1.78125 12.2656 2.26562 12.2656ZM6.07031 16.1719C5.72656 16.1719 5.4375 15.8906 5.4375 15.5391C5.4375 15.1875 5.72656 14.9062 6.07031 14.9062H13.9297C14.2734 14.9062 14.5625 15.1875 14.5625 15.5391C14.5625 15.8906 14.2734 16.1719 13.9297 16.1719H6.07031Z" fill="currentColor"/>
</svg>
