<svg width="18" height="21" viewBox="0 0 18 21" fill="currentColor" xmlns="http://www.w3.org/2000/svg">
<path d="M0.970703 11.4189C0.53125 11.4189 0.241211 11.0586 0.241211 10.584C0.241211 7.24414 2.77246 2.60352 8.27441 2.22559V1.00391C8.27441 0.599609 8.59961 0.265625 9.00391 0.265625C9.4082 0.265625 9.7334 0.599609 9.7334 1.00391V2.22559C15.2354 2.60352 17.7666 7.24414 17.7666 10.584C17.7666 11.0586 17.4766 11.4189 17.0371 11.4189C16.7734 11.4189 16.5273 11.252 16.334 10.9619C15.7539 10.0742 15.1387 9.70508 14.3037 9.70508C13.4863 9.70508 12.9326 10.0742 12.4229 10.9531C12.2383 11.2783 12.0537 11.4189 11.8076 11.4189C11.5439 11.4189 11.3594 11.2783 11.1836 10.9531C10.8496 10.3818 10.3135 9.96875 9.7334 9.77539V17.7822C9.7334 19.3818 8.5293 20.5859 6.93848 20.5859C5.35645 20.5859 4.14355 19.3818 4.14355 17.7822C4.14355 17.2725 4.43359 16.9297 4.87305 16.9297C5.32129 16.9297 5.62891 17.2725 5.62891 17.7822C5.62891 18.5469 6.17383 19.1006 6.93848 19.1006C7.7207 19.1006 8.27441 18.5469 8.27441 17.7822V9.77539C7.68555 9.96875 7.1582 10.3818 6.82422 10.9531C6.64844 11.2783 6.45508 11.4189 6.2002 11.4189C5.9541 11.4189 5.76953 11.2783 5.57617 10.9531C5.0752 10.0742 4.52148 9.70508 3.7041 9.70508C2.86914 9.70508 2.25391 10.0742 1.66504 10.9619C1.47168 11.252 1.22559 11.4189 0.970703 11.4189Z" fill="currentColor"/>
</svg>
