<svg xmlns="http://www.w3.org/2000/svg" width="80" height="80" viewBox="0 0 80 80" fill="currentColor">
    <path d="M47.5996 49.8353V54.8577H59.3627C67.2382 54.8577 72.0537 50.1869 72.0537 43.8086C72.0537 38.4849 69.0189 34.1908 64.0278 32.207C64.0528 20.8566 55.8764 12.6702 45.3674 12.6702C38.6958 12.6702 33.6796 16.1105 30.5444 20.6557C24.55 19.1741 17.4771 23.7193 17.2263 30.8007C11.4827 31.7801 7.94629 36.5513 7.94629 42.6283C7.94629 49.3833 13.0879 54.8577 21.44 54.8577H32.3001V49.8353H21.44C15.9723 49.8353 13.0127 46.5708 13.0127 42.5279C13.0127 37.832 16.0977 34.5424 21.2142 34.5424C21.5904 34.5424 21.7409 34.3415 21.7158 33.9899C21.5654 26.5067 26.9076 24.0959 32.3001 25.678C32.6262 25.7533 32.8268 25.7031 32.9773 25.4269C35.3851 21.0323 39.1222 17.6674 45.3423 17.6674C53.2178 17.6674 58.836 23.9202 59.2122 31.2276C59.2874 32.5586 59.1871 34.0401 59.0868 35.2455C59.0366 35.5971 59.1871 35.798 59.5132 35.8482C64.103 36.7271 66.9873 39.3889 66.9873 43.5826C66.9873 47.2489 64.4291 49.8353 59.2623 49.8353H47.5996ZM39.9499 67.4135C41.2541 67.4135 42.3075 66.3588 42.3075 65.1032V41.9754L42.0567 37.5055L43.6619 39.3638L47.1481 42.8794C47.5745 43.3314 48.1514 43.5826 48.7283 43.5826C49.882 43.5826 50.8351 42.7288 50.8351 41.5485C50.8351 40.9458 50.6093 40.4687 50.1579 40.0669L41.7306 32.1317C41.1036 31.5541 40.5769 31.3281 39.9499 31.3281C39.3479 31.3281 38.7961 31.5541 38.1691 32.1317L29.7418 40.0669C29.2904 40.4687 29.0897 40.9458 29.0897 41.5485C29.0897 42.7288 30.0177 43.5826 31.1714 43.5826C31.7483 43.5826 32.3252 43.3314 32.7516 42.8794L36.2378 39.3638L37.8681 37.5055L37.5922 41.9754V65.1032C37.5922 66.3588 38.6707 67.4135 39.9499 67.4135Z" fill="currentColor"/>
</svg>