<svg width="23" height="15" viewBox="0 0 23 15" fill="currentColor" xmlns="http://www.w3.org/2000/svg">
<path d="M3.57227 14.791C1.80566 14.791 0.750977 13.7715 0.750977 12.0049V3.29492C0.750977 1.53711 1.88477 0.517578 3.57227 0.517578H13.0996C14.8662 0.517578 15.833 1.53711 15.833 3.29492V12.0049C15.833 13.7715 14.7783 14.791 13.0117 14.791H3.57227ZM17.0283 10.2471V5.05273L20.2275 2.29297C20.5264 2.0293 20.8779 1.8623 21.1943 1.8623C21.8799 1.8623 22.3281 2.36328 22.3281 3.08398V12.2246C22.3281 12.9453 21.8799 13.4463 21.1943 13.4463C20.8779 13.4463 20.5264 13.2793 20.2275 13.0156L17.0283 10.2471Z" fill="currentColor"/>
</svg>
