<svg width="18" height="23" viewBox="0 0 18 23" fill="currentColor" xmlns="http://www.w3.org/2000/svg">
<path d="M0.370361 19.2883V3.72208C0.370361 2.65491 0.633732 1.85112 1.16047 1.3107C1.69406 0.770272 2.49101 0.500061 3.55133 0.500061H14.4487C15.509 0.500061 16.3026 0.770272 16.8293 1.3107C17.3629 1.85112 17.6297 2.65491 17.6297 3.72208V19.2883C17.6297 20.3623 17.3629 21.1661 16.8293 21.6997C16.3026 22.2333 15.509 22.5001 14.4487 22.5001H3.55133C2.49101 22.5001 1.69406 22.2333 1.16047 21.6997C0.633732 21.1661 0.370361 20.3623 0.370361 19.2883ZM2.02241 19.2575C2.02241 19.7706 2.15581 20.1639 2.4226 20.4376C2.69623 20.7112 3.09984 20.848 3.63342 20.848H14.3666C14.9002 20.848 15.3004 20.7112 15.5672 20.4376C15.8408 20.1639 15.9776 19.7706 15.9776 19.2575V3.75286C15.9776 3.2398 15.8408 2.84645 15.5672 2.57282C15.3004 2.29235 14.9002 2.15211 14.3666 2.15211H3.63342C3.09984 2.15211 2.69623 2.29235 2.4226 2.57282C2.15581 2.84645 2.02241 3.2398 2.02241 3.75286V19.2575ZM4.9879 12.3723C4.70059 12.3723 4.46458 12.3004 4.27988 12.1568C4.09517 12.0063 4.00282 11.7942 4.00282 11.5206C4.00282 11.247 4.09175 11.0349 4.26962 10.8844C4.44748 10.7271 4.6869 10.6484 4.9879 10.6484H13.0327C13.3337 10.6484 13.5697 10.7271 13.7407 10.8844C13.9186 11.0349 14.0075 11.247 14.0075 11.5206C14.0075 11.7942 13.9151 12.0063 13.7304 12.1568C13.5526 12.3004 13.32 12.3723 13.0327 12.3723H4.9879Z" fill="currentColor"/>
</svg>
