<svg width="30" height="28" viewBox="0 0 30 28" fill="currentColor" xmlns="http://www.w3.org/2000/svg">
<path d="M3.91684 27.1891C3.10646 27.1891 2.41049 27.0175 1.82892 26.6743C1.24735 26.331 0.799258 25.8639 0.48464 25.2728C0.170021 24.6912 0.0127117 24.0381 0.0127117 23.3136C0.0127117 22.6176 0.198623 21.9502 0.570445 21.3114L11.6679 1.97669C12.0302 1.32839 12.5117 0.842161 13.1123 0.518009C13.7129 0.184322 14.3422 0.0174789 15 0.0174789C15.6578 0.0174789 16.2823 0.184322 16.8734 0.518009C17.474 0.842161 17.9603 1.32839 18.3321 1.97669L29.4296 21.3114C29.6107 21.6261 29.7489 21.955 29.8443 22.2982C29.9396 22.6414 29.9873 22.9799 29.9873 23.3136C29.9873 24.0381 29.83 24.6912 29.5154 25.2728C29.2007 25.8639 28.7526 26.331 28.1711 26.6743C27.5895 27.0175 26.8935 27.1891 26.0832 27.1891H3.91684ZM15.0143 17.6218C15.7579 17.6218 16.1345 17.2309 16.1441 16.4492L16.3586 8.66949C16.3681 8.29767 16.2394 7.98782 15.9725 7.73994C15.715 7.48252 15.3909 7.35381 15 7.35381C14.5996 7.35381 14.2707 7.47775 14.0132 7.72564C13.7654 7.97352 13.6462 8.28337 13.6557 8.65519L13.8416 16.4492C13.8607 17.2309 14.2516 17.6218 15.0143 17.6218ZM15.0143 22.4126C15.4433 22.4126 15.8151 22.2648 16.1298 21.9693C16.4539 21.6737 16.616 21.3114 16.616 20.8824C16.616 20.4534 16.4539 20.0911 16.1298 19.7956C15.8151 19.4905 15.4433 19.3379 15.0143 19.3379C14.5757 19.3379 14.1992 19.4905 13.8845 19.7956C13.5699 20.1006 13.4126 20.4629 13.4126 20.8824C13.4126 21.3114 13.5699 21.6737 13.8845 21.9693C14.2087 22.2648 14.5853 22.4126 15.0143 22.4126Z" fill="currentColor"/>
</svg>
