<svg width="21" height="20" viewBox="0 0 21 20" fill="currentColor" xmlns="http://www.w3.org/2000/svg">
<path d="M2.93164 19.1777C2.37826 19.1777 1.90299 19.0605 1.50586 18.8262C1.10872 18.5918 0.802734 18.2728 0.587891 17.8691C0.373047 17.472 0.265625 17.026 0.265625 16.5312C0.265625 16.056 0.392578 15.6003 0.646484 15.1641L8.22461 1.96094C8.47201 1.51823 8.80078 1.1862 9.21094 0.964844C9.62109 0.736979 10.0508 0.623047 10.5 0.623047C10.9492 0.623047 11.3757 0.736979 11.7793 0.964844C12.1895 1.1862 12.5215 1.51823 12.7754 1.96094L20.3535 15.1641C20.4772 15.3789 20.5716 15.6035 20.6367 15.8379C20.7018 16.0723 20.7344 16.3034 20.7344 16.5312C20.7344 17.026 20.627 17.472 20.4121 17.8691C20.1973 18.2728 19.8913 18.5918 19.4941 18.8262C19.097 19.0605 18.6217 19.1777 18.0684 19.1777H2.93164ZM2.94141 17.6445H18.0488C18.3874 17.6445 18.6543 17.5306 18.8496 17.3027C19.0514 17.0814 19.1523 16.821 19.1523 16.5215C19.1523 16.3132 19.1003 16.1081 18.9961 15.9062L11.4277 2.70312C11.3236 2.52083 11.1868 2.39062 11.0176 2.3125C10.8548 2.22786 10.6823 2.18555 10.5 2.18555C10.3177 2.18555 10.1419 2.22786 9.97266 2.3125C9.80339 2.39062 9.66667 2.52083 9.5625 2.70312L1.99414 15.8965C1.94206 16.0007 1.90299 16.1081 1.87695 16.2188C1.85742 16.3294 1.84766 16.4303 1.84766 16.5215C1.84766 16.821 1.94531 17.0814 2.14062 17.3027C2.33594 17.5306 2.60286 17.6445 2.94141 17.6445ZM10.5 12.5859C9.9987 12.5859 9.74154 12.3288 9.72852 11.8145L9.60156 6.64844C9.59505 6.40104 9.67318 6.19596 9.83594 6.0332C10.0052 5.87044 10.2233 5.78906 10.4902 5.78906C10.7507 5.78906 10.9655 5.8737 11.1348 6.04297C11.3105 6.20573 11.3952 6.41081 11.3887 6.6582L11.2422 11.8145C11.2357 12.3288 10.9883 12.5859 10.5 12.5859ZM10.5 15.7598C10.2135 15.7598 9.96615 15.6621 9.75781 15.4668C9.54948 15.265 9.44531 15.0241 9.44531 14.7441C9.44531 14.4642 9.54948 14.2266 9.75781 14.0312C9.96615 13.8294 10.2135 13.7285 10.5 13.7285C10.7865 13.7285 11.0339 13.8262 11.2422 14.0215C11.4505 14.2168 11.5547 14.4577 11.5547 14.7441C11.5547 15.0306 11.4473 15.2715 11.2324 15.4668C11.0241 15.6621 10.7799 15.7598 10.5 15.7598Z" fill="currentColor"/>
</svg>
