<svg width="23" height="21" viewBox="0 0 23 21" fill="currentColor" xmlns="http://www.w3.org/2000/svg">
<path d="M3.41006 20.9839C3.22201 21.0271 3.02453 20.9823 2.8738 20.8617C2.72305 20.7412 2.63543 20.5587 2.636 20.3657V3.16564C2.636 2.81598 2.91946 2.53252 3.26912 2.53252C3.61879 2.53252 3.90225 2.81598 3.90225 3.16564V20.3151C3.89754 20.4634 3.84798 20.6066 3.76017 20.7258C3.67218 20.8453 3.55025 20.9355 3.41006 20.9839ZM5.37953 20.9988C5.02999 20.9985 4.74679 20.7152 4.7464 20.3657V3.16564C4.7464 2.81597 5.02987 2.53251 5.37953 2.53251C5.7292 2.53251 6.01266 2.81597 6.01266 3.16564V20.3657C6.01228 20.7152 5.72907 20.9984 5.37953 20.9988ZM8.12308 20.3657C8.12308 20.7154 7.83968 20.9988 7.48995 20.9988C7.14023 20.9988 6.85683 20.7154 6.85683 20.3657V3.16564C6.85683 2.81597 7.14029 2.53251 7.48995 2.53251C7.83962 2.53251 8.12308 2.81597 8.12308 3.16563V20.3657ZM15.0877 20.9988C14.7382 20.9985 14.455 20.7152 14.4546 20.3657V3.16564C14.4546 2.81597 14.7381 2.53251 15.0877 2.53251C15.4374 2.53251 15.7208 2.81597 15.7208 3.16564V20.3657C15.7205 20.7152 15.4373 20.9984 15.0877 20.9988ZM17.1981 20.9988C16.8486 20.9985 16.5654 20.7152 16.565 20.3657V3.16564C16.565 2.81597 16.8485 2.53251 17.1981 2.53251C17.5478 2.53251 17.8313 2.81597 17.8313 3.16563V20.3657C17.8309 20.7152 17.5477 20.9984 17.1981 20.9988ZM19.9417 20.3657C19.9417 20.7154 19.6583 20.9988 19.3086 20.9988C18.9588 20.9988 18.6754 20.7154 18.6754 20.3657V3.16564C18.6754 2.81597 18.9589 2.53251 19.3086 2.53251C19.6582 2.53251 19.9417 2.81597 19.9417 3.16564V20.3657ZM22.0521 0.844169C22.0521 1.31039 21.6742 1.68834 21.2079 1.68834H1.79205C1.32583 1.68834 0.947884 1.31039 0.947884 0.844169C0.947884 0.377947 1.32583 0 1.79205 0H21.2079C21.6742 0 22.0521 0.377947 22.0521 0.844169Z" fill="currentColor"/>
</svg>
